ComputerModernClassic-Italic.ufo
<glyph name="exclam" format="2">
  <advance width="306"/>
  <unicode hex="0021"/>
  <outline>
    <contour>
      <point x="165.463" y="111.44" type="curve" smooth="yes"/>
      <point x="177.746" y="114.063"/>
      <point x="189.372" y="112.793"/>
      <point x="200.072" y="107.66" type="curve" smooth="yes"/>
      <point x="211.23" y="102.308"/>
      <point x="219.723" y="91.7627"/>
      <point x="222.887" y="79.335" type="curve" smooth="yes"/>
      <point x="224.495" y="73.0156"/>
      <point x="224.328" y="60.9824"/>
      <point x="222.534" y="53.9014" type="curve" smooth="yes"/>
      <point x="220.612" y="46.3154"/>
      <point x="215.449" y="35.6914"/>
      <point x="210.596" y="29.335" type="curve" smooth="yes"/>
      <point x="186.873" y="-1.73438"/>
      <point x="144.503" y="-9.31445"/>
      <point x="121.749" y="13.4395" type="curve" smooth="yes"/>
      <point x="112.963" y="22.2256"/>
      <point x="109.104" y="32.0811"/>
      <point x="109.104" y="45.7373" type="curve" smooth="yes"/>
      <point x="109.104" y="55.1299"/>
      <point x="110.738" y="62.1318"/>
      <point x="115.073" y="71.3154" type="curve" smooth="yes"/>
      <point x="124.662" y="91.626"/>
      <point x="143.714" y="106.797"/>
    </contour>
    <contour>
      <point x="319.075" y="716.12" type="curve" smooth="yes"/>
      <point x="330.491" y="718.034"/>
      <point x="342.282" y="716.354"/>
      <point x="352.529" y="711.354" type="curve" smooth="yes"/>
      <point x="371.646" y="702.024"/>
      <point x="380.419" y="680.997"/>
      <point x="374.026" y="659.826" type="curve" smooth="yes"/>
      <point x="370.709" y="648.844"/>
      <point x="221.126" y="198.536"/>
      <point x="220.201" y="196.749" type="curve" smooth="yes"/>
      <point x="218.199" y="192.882"/>
      <point x="216.04" y="192.341"/>
      <point x="202.602" y="192.341" type="curve" smooth="yes"/>
      <point x="191.185" y="192.341"/>
      <point x="190.098" y="192.457"/>
      <point x="188.295" y="193.869" type="curve" smooth="yes"/>
      <point x="185.829" y="195.8"/>
      <point x="184.249" y="198.844"/>
      <point x="184.249" y="201.662" type="curve" smooth="yes"/>
      <point x="184.249" y="205.716"/>
      <point x="261.506" y="663.729"/>
      <point x="263.055" y="668.858" type="curve" smooth="yes"/>
      <point x="266.219" y="679.335"/>
      <point x="271.831" y="688.167"/>
      <point x="280.636" y="696.522" type="curve" smooth="yes"/>
      <point x="291.446" y="706.782"/>
      <point x="305.202" y="713.796"/>
    </contour>
  </outline>
</glyph>
<glyph name="numbersign" format="2">
  <advance width="817"/>
  <unicode hex="0023"/>
  <outline>
    <contour>
      <point x="571.893" y="693.208" type="curve" smooth="yes"/>
      <point x="574.022" y="694.22"/>
      <point x="575.867" y="694.497"/>
      <point x="578.901" y="694.262" type="curve" smooth="yes"/>
      <point x="586.777" y="693.65"/>
      <point x="592.485" y="687.5"/>
      <point x="592.485" y="679.624" type="curve" smooth="yes"/>
      <point x="592.485" y="676.288"/>
      <point x="588.298" y="667.594"/>
      <point x="537.681" y="565.859" type="curve" smooth="yes"/>
      <point x="507.555" y="505.311"/>
      <point x="476.271" y="442.53"/>
      <point x="468.208" y="426.445" type="curve" smooth="yes"/>
      <point x="460.132" y="410.332"/>
      <point x="449.709" y="389.309"/>
      <point x="445.015" y="379.66" type="curve" smooth="yes"/>
      <point x="436.488" y="362.139" type="line"/>
      <point x="527.168" y="362.319" type="line"/>
      <point x="617.847" y="362.5" type="line"/>
      <point x="698.771" y="525.072" type="line" smooth="yes"/>
      <point x="752.506" y="633.021"/>
      <point x="780.447" y="688.422"/>
      <point x="781.932" y="689.957" type="curve" smooth="yes"/>
      <point x="791.031" y="699.368"/>
      <point x="807.081" y="692.774"/>
      <point x="807.081" y="679.624" type="curve" smooth="yes"/>
      <point x="807.081" y="676.286"/>
      <point x="802.817" y="667.449"/>
      <point x="750.976" y="563.331" type="curve" smooth="yes"/>
      <point x="720.107" y="501.337"/>
      <point x="685.021" y="430.824"/>
      <point x="672.977" y="406.575" type="curve" smooth="yes"/>
      <point x="651.084" y="362.5" type="line"/>
      <point x="733.599" y="362.139" type="line"/>
      <point x="816.112" y="361.777" type="line"/>
      <point x="819.509" y="359.419" type="line" smooth="yes"/>
      <point x="828.035" y="353.498"/>
      <point x="828.035" y="341.155"/>
      <point x="819.509" y="335.234" type="curve" smooth="yes"/>
      <point x="816.112" y="332.876" type="line"/>
      <point x="725.795" y="332.695" type="line"/>
      <point x="635.477" y="332.515" type="line"/>
      <point x="594.473" y="250.506" type="line" smooth="yes"/>
      <point x="571.929" y="205.419"/>
      <point x="553.468" y="168.334"/>
      <point x="553.468" y="168.136" type="curve" smooth="yes"/>
      <point x="553.468" y="167.938"/>
      <point x="601.192" y="167.774"/>
      <point x="659.501" y="167.774" type="curve" smooth="yes"/>
      <point x="761.163" y="167.774"/>
      <point x="765.654" y="167.719"/>
      <point x="768.425" y="166.431" type="curve" smooth="yes"/>
      <point x="777.963" y="161.994"/>
      <point x="780.355" y="150.374"/>
      <point x="773.267" y="142.919" type="curve" smooth="yes"/>
      <point x="768.726" y="138.144"/>
      <point x="778.829" y="138.542"/>
      <point x="652.24" y="138.147" type="curve" smooth="yes"/>
      <point x="537.5" y="137.789" type="line"/>
      <point x="456.575" y="-24.7832" type="line" smooth="yes"/>
      <point x="402.841" y="-132.731"/>
      <point x="374.899" y="-188.133"/>
      <point x="373.415" y="-189.668" type="curve" smooth="yes"/>
      <point x="364.315" y="-199.079"/>
      <point x="348.266" y="-192.485"/>
      <point x="348.266" y="-179.335" type="curve" smooth="yes"/>
      <point x="348.266" y="-175.999"/>
      <point x="352.454" y="-167.305"/>
      <point x="403.071" y="-65.5713" type="curve" smooth="yes"/>
      <point x="433.196" y="-5.02148"/>
      <point x="464.48" y="57.7588"/>
      <point x="472.543" y="73.8438" type="curve" smooth="yes"/>
      <point x="480.619" y="89.957"/>
      <point x="491.042" y="110.98"/>
      <point x="495.737" y="120.629" type="curve" smooth="yes"/>
      <point x="504.263" y="138.15" type="line"/>
      <point x="413.584" y="137.97" type="line"/>
      <point x="322.904" y="137.789" type="line"/>
      <point x="241.979" y="-24.7832" type="line" smooth="yes"/>
      <point x="188.246" y="-132.731"/>
      <point x="160.304" y="-188.133"/>
      <point x="158.819" y="-189.668" type="curve" smooth="yes"/>
      <point x="149.72" y="-199.079"/>
      <point x="133.671" y="-192.485"/>
      <point x="133.671" y="-179.335" type="curve" smooth="yes"/>
      <point x="133.671" y="-175.997"/>
      <point x="137.934" y="-167.16"/>
      <point x="189.776" y="-63.042" type="curve" smooth="yes"/>
      <point x="220.644" y="-1.04785"/>
      <point x="255.729" y="69.4648"/>
      <point x="267.774" y="93.7139" type="curve" smooth="yes"/>
      <point x="289.668" y="137.789" type="line"/>
      <point x="207.153" y="138.15" type="line"/>
      <point x="124.639" y="138.512" type="line"/>
      <point x="121.243" y="140.87" type="line" smooth="yes"/>
      <point x="112.717" y="146.791"/>
      <point x="112.717" y="159.134"/>
      <point x="121.243" y="165.055" type="curve" smooth="yes"/>
      <point x="124.639" y="167.413" type="line"/>
      <point x="214.957" y="167.594" type="line"/>
      <point x="305.274" y="167.774" type="line"/>
      <point x="346.279" y="249.783" type="line" smooth="yes"/>
      <point x="368.822" y="294.87"/>
      <point x="387.283" y="331.954"/>
      <point x="387.283" y="332.153" type="curve" smooth="yes"/>
      <point x="387.283" y="332.352"/>
      <point x="339.668" y="332.515"/>
      <point x="281.431" y="332.515" type="curve" smooth="yes"/>
      <point x="165.463" y="332.515"/>
      <point x="172.835" y="332.24"/>
      <point x="168.063" y="336.724" type="curve" smooth="yes"/>
      <point x="160.672" y="343.67"/>
      <point x="162.428" y="355.502"/>
      <point x="171.604" y="360.578" type="curve" smooth="yes"/>
      <point x="173.59" y="361.677"/>
      <point x="183.382" y="361.808"/>
      <point x="288.512" y="362.139" type="curve" smooth="yes"/>
      <point x="403.251" y="362.5" type="line"/>
      <point x="484.177" y="525.072" type="line" smooth="yes"/>
      <point x="528.703" y="614.523"/>
      <point x="565.979" y="688.587"/>
      <point x="567.052" y="689.74" type="curve" smooth="yes"/>
      <point x="568.125" y="690.893"/>
      <point x="570.304" y="692.453"/>
    </contour>
    <contour>
      <point x="601.879" y="332.153" type="curve" smooth="yes"/>
      <point x="601.879" y="332.352"/>
      <point x="561.163" y="332.515"/>
      <point x="511.38" y="332.515" type="curve" smooth="yes"/>
      <point x="420.882" y="332.515" type="line"/>
      <point x="379.877" y="250.506" type="line" smooth="yes"/>
      <point x="357.334" y="205.419"/>
      <point x="338.873" y="168.334"/>
      <point x="338.873" y="168.136" type="curve" smooth="yes"/>
      <point x="338.873" y="167.938"/>
      <point x="379.588" y="167.774"/>
      <point x="429.371" y="167.774" type="curve" smooth="yes"/>
      <point x="519.87" y="167.774" type="line"/>
      <point x="560.874" y="249.783" type="line" smooth="yes"/>
      <point x="583.418" y="294.87"/>
      <point x="601.879" y="331.954"/>
    </contour>
  </outline>
</glyph>
<glyph name="dollar" format="2">
  <advance width="511"/>
  <unicode hex="0024"/>
  <outline>
    <contour>
      <point x="115" y="129" type="curve" smooth="yes"/>
      <point x="118" y="199"/>
      <point x="136" y="216"/>
      <point x="161" y="223" type="curve" smooth="yes"/>
      <point x="184" y="229"/>
      <point x="206" y="214"/>
      <point x="206" y="192" type="curve" smooth="yes"/>
      <point x="206" y="168"/>
      <point x="183" y="137"/>
      <point x="148" y="143" type="curve"/>
      <point x="137" y="54"/>
      <point x="203" y="22"/>
      <point x="241" y="22" type="curve" smooth="yes"/>
      <point x="245" y="22"/>
      <point x="245" y="22"/>
      <point x="246" y="26" type="curve" smooth="yes"/>
      <point x="249" y="37"/>
      <point x="320" y="322"/>
      <point x="320" y="323" type="curve" smooth="yes"/>
      <point x="268" y="340"/>
      <point x="258" y="344"/>
      <point x="239" y="365" type="curve" smooth="yes"/>
      <point x="148" y="451"/>
      <point x="223" y="667"/>
      <point x="401" y="703" type="curve" smooth="yes"/>
      <point x="405" y="703"/>
      <point x="410" y="704"/>
      <point x="412" y="704" type="curve" smooth="yes"/>
      <point x="416" y="704" type="line"/>
      <point x="420" y="724" type="line"/>
      <point x="427" y="749"/>
      <point x="428" y="750"/>
      <point x="440" y="750" type="curve" smooth="yes"/>
      <point x="458" y="750"/>
      <point x="460" y="749"/>
      <point x="449" y="705" type="curve"/>
      <point x="449" y="705"/>
      <point x="452" y="704"/>
      <point x="456" y="704" type="curve" smooth="yes"/>
      <point x="498" y="699"/>
      <point x="553" y="679"/>
      <point x="570" y="606" type="curve" smooth="yes"/>
      <point x="570" y="605"/>
      <point x="579" y="529"/>
      <point x="552" y="499" type="curve" smooth="yes"/>
      <point x="519" y="466"/>
      <point x="464" y="490"/>
      <point x="488" y="538" type="curve" smooth="yes"/>
      <point x="500" y="563"/>
      <point x="518" y="565"/>
      <point x="540" y="567" type="curve"/>
      <point x="539" y="578" type="line"/>
      <point x="537" y="670"/>
      <point x="445" y="672"/>
      <point x="444" y="672" type="curve" smooth="yes"/>
      <point x="440" y="672" type="line"/>
      <point x="406" y="535" type="line" smooth="yes"/>
      <point x="388" y="460"/>
      <point x="372" y="398"/>
      <point x="372" y="398" type="curve"/>
      <point x="374" y="398"/>
      <point x="465" y="388"/>
      <point x="486" y="284" type="curve" smooth="yes"/>
      <point x="488" y="274"/>
      <point x="488" y="270"/>
      <point x="488" y="247" type="curve" smooth="yes"/>
      <point x="488" y="97"/>
      <point x="361" y="2"/>
      <point x="277" y="-10" type="curve" smooth="yes"/>
      <point x="270" y="-10"/>
      <point x="270" y="-10"/>
      <point x="269" y="-14" type="curve" smooth="yes"/>
      <point x="269" y="-18"/>
      <point x="260" y="-49"/>
      <point x="260" y="-49" type="curve" smooth="yes"/>
      <point x="258" y="-54"/>
      <point x="254" y="-56"/>
      <point x="244" y="-56" type="curve" smooth="yes"/>
      <point x="240" y="-56"/>
      <point x="229" y="-56"/>
      <point x="229" y="-46" type="curve" smooth="yes"/>
      <point x="229" y="-43"/>
      <point x="234" y="-21"/>
      <point x="237" y="-12" type="curve" smooth="yes"/>
      <point x="237" y="-7"/>
      <point x="111" y="-11"/>
    </contour>
    <contour>
      <point x="258" y="510" type="curve" smooth="yes"/>
      <point x="258" y="493"/>
      <point x="258" y="444"/>
      <point x="306" y="419" type="curve" smooth="yes"/>
      <point x="314" y="415"/>
      <point x="340" y="407"/>
      <point x="341" y="408" type="curve" smooth="yes"/>
      <point x="342" y="408"/>
      <point x="407" y="669"/>
      <point x="407" y="670" type="curve" smooth="yes"/>
      <point x="407" y="680"/>
      <point x="264" y="634"/>
    </contour>
    <contour>
      <point x="279" y="23" type="curve"/>
      <point x="332" y="23"/>
      <point x="446" y="119"/>
      <point x="430" y="233" type="curve" smooth="yes"/>
      <point x="423" y="272"/>
      <point x="401" y="299"/>
      <point x="366" y="310" type="curve" smooth="yes"/>
      <point x="351" y="315"/>
      <point x="351" y="315"/>
      <point x="350" y="310" type="curve" smooth="yes"/>
      <point x="338" y="266"/>
      <point x="279" y="23"/>
    </contour>
  </outline>
</glyph>
<glyph name="percent" format="2">
  <advance width="818"/>
  <unicode hex="0025"/>
  <outline>
    <contour>
      <point x="147" y="-27" type="curve" smooth="yes"/>
      <point x="151" y="-21"/>
      <point x="730" y="649"/>
      <point x="730" y="650" type="curve"/>
      <point x="730" y="650"/>
      <point x="725" y="648"/>
      <point x="719" y="645" type="curve" smooth="yes"/>
      <point x="682" y="629"/>
      <point x="582" y="594"/>
      <point x="486" y="655" type="curve"/>
      <point x="476" y="662" type="line"/>
      <point x="498" y="562"/>
      <point x="413" y="348"/>
      <point x="301" y="348" type="curve" smooth="yes"/>
      <point x="148" y="348"/>
      <point x="192" y="661"/>
      <point x="346" y="736" type="curve" smooth="yes"/>
      <point x="349" y="738"/>
      <point x="385" y="758"/>
      <point x="418" y="747" type="curve" smooth="yes"/>
      <point x="434" y="741"/>
      <point x="443" y="734"/>
      <point x="458" y="714" type="curve" smooth="yes"/>
      <point x="540" y="607"/>
      <point x="706" y="627"/>
      <point x="802" y="732" type="curve" smooth="yes"/>
      <point x="813" y="745"/>
      <point x="815" y="747"/>
      <point x="819" y="748" type="curve" smooth="yes"/>
      <point x="834" y="755"/>
      <point x="850" y="741"/>
      <point x="846" y="725" type="curve" smooth="yes"/>
      <point x="844" y="720"/>
      <point x="817" y="688"/>
      <point x="512" y="335" type="curve" smooth="yes"/>
      <point x="330" y="124"/>
      <point x="178" y="-51"/>
      <point x="176" y="-52" type="curve" smooth="yes"/>
      <point x="162" y="-63"/>
      <point x="138" y="-48"/>
    </contour>
    <contour>
      <point x="259" y="482" type="curve" smooth="yes"/>
      <point x="256" y="457"/>
      <point x="250" y="371"/>
      <point x="302" y="371" type="curve" smooth="yes"/>
      <point x="354" y="371"/>
      <point x="400" y="452"/>
      <point x="414" y="483" type="curve" smooth="yes"/>
      <point x="474" y="618"/>
      <point x="446" y="744"/>
      <point x="385" y="726" type="curve" smooth="yes"/>
      <point x="311" y="706"/>
      <point x="273" y="568"/>
    </contour>
    <contour>
      <point x="567" y="20" type="curve" smooth="yes"/>
      <point x="575" y="-32"/>
      <point x="601" y="-32"/>
      <point x="611" y="-32" type="curve" smooth="yes"/>
      <point x="676" y="-32"/>
      <point x="756" y="107"/>
      <point x="756" y="226" type="curve" smooth="yes"/>
      <point x="756" y="307"/>
      <point x="720" y="332"/>
      <point x="692" y="322" type="curve" smooth="yes"/>
      <point x="605" y="300"/>
      <point x="556" y="84"/>
    </contour>
    <contour>
      <point x="604" y="-56" type="curve"/>
      <point x="479" y="-45"/>
      <point x="488" y="180"/>
      <point x="604" y="296" type="curve" smooth="yes"/>
      <point x="613" y="305"/>
      <point x="623" y="314"/>
      <point x="627" y="318" type="curve" smooth="yes"/>
      <point x="739" y="395"/>
      <point x="794" y="307"/>
      <point x="787" y="205" type="curve" smooth="yes"/>
      <point x="778" y="82"/>
      <point x="694" y="-60"/>
    </contour>
  </outline>
</glyph>
<glyph name="ampersand" format="2">
  <advance width="766"/>
  <unicode hex="0026"/>
  <outline>
    <contour>
      <point x="406.792" y="715.846" type="curve" smooth="yes"/>
      <point x="416.474" y="717.248"/>
      <point x="436.81" y="716.712"/>
      <point x="445.665" y="714.82" type="curve" smooth="yes"/>
      <point x="466.185" y="710.438"/>
      <point x="482.774" y="701.67"/>
      <point x="496.395" y="688.006" type="curve" smooth="yes"/>
      <point x="525.576" y="658.73"/>
      <point x="535.891" y="610.621"/>
      <point x="523.506" y="561.561" type="curve" smooth="yes"/>
      <point x="520.496" y="549.639"/>
      <point x="516.171" y="541.608"/>
      <point x="508.368" y="533.454" type="curve" smooth="yes"/>
      <point x="488.455" y="512.645"/>
      <point x="455.894" y="509.248"/>
      <point x="438.295" y="526.144" type="curve" smooth="yes"/>
      <point x="430.887" y="533.256"/>
      <point x="427.746" y="541.112"/>
      <point x="427.746" y="552.529" type="curve" smooth="yes"/>
      <point x="427.746" y="575"/>
      <point x="442.52" y="596.54"/>
      <point x="464.09" y="605.52" type="curve" smooth="yes"/>
      <point x="469.003" y="607.564"/>
      <point x="478.61" y="609.971"/>
      <point x="481.864" y="609.971" type="curve" smooth="yes"/>
      <point x="483.673" y="609.971"/>
      <point x="483.688" y="610.332"/>
      <point x="482.282" y="619.726" type="curve" smooth="yes"/>
      <point x="478.389" y="645.737"/>
      <point x="466.289" y="664.521"/>
      <point x="447.615" y="673.549" type="curve" smooth="yes"/>
      <point x="437.802" y="678.293"/>
      <point x="431.286" y="679.671"/>
      <point x="419.075" y="679.586" type="curve" smooth="yes"/>
      <point x="406.792" y="679.5"/>
      <point x="401.08" y="678.079"/>
      <point x="389.09" y="672.127" type="curve" smooth="yes"/>
      <point x="378.179" y="666.712"/>
      <point x="369.734" y="660.426"/>
      <point x="359.032" y="649.755" type="curve" smooth="yes"/>
      <point x="335.09" y="625.883"/>
      <point x="318.056" y="593.353"/>
      <point x="303.768" y="544.22" type="curve" smooth="yes"/>
      <point x="299.733" y="530.347"/>
      <point x="286.963" y="479.257"/>
      <point x="284.353" y="466.546" type="curve" smooth="yes"/>
      <point x="282.098" y="455.563"/>
      <point x="279.625" y="441.401"/>
      <point x="279.913" y="441.112" type="curve" smooth="yes"/>
      <point x="280.031" y="440.994"/>
      <point x="283.382" y="442.769"/>
      <point x="287.283" y="445.017" type="curve" smooth="yes"/>
      <point x="313.15" y="459.918"/>
      <point x="344.062" y="469.075"/>
      <point x="368.497" y="469.075" type="curve" smooth="yes"/>
      <point x="392.991" y="469.075"/>
      <point x="412.279" y="457.311"/>
      <point x="422.751" y="435.982" type="curve" smooth="yes"/>
      <point x="435.641" y="409.731"/>
      <point x="430.581" y="373.049"/>
      <point x="409.826" y="342.269" type="curve" smooth="yes"/>
      <point x="394.781" y="319.957"/>
      <point x="373.266" y="303.977"/>
      <point x="349.277" y="297.296" type="curve" smooth="yes"/>
      <point x="342.696" y="295.463"/>
      <point x="341.112" y="295.307"/>
      <point x="329.479" y="295.34" type="curve" smooth="yes"/>
      <point x="319.364" y="295.368"/>
      <point x="315.246" y="295.691"/>
      <point x="308.888" y="296.955" type="curve" smooth="yes"/>
      <point x="290.679" y="300.575"/>
      <point x="274.735" y="307.633"/>
      <point x="261.055" y="318.13" type="curve" smooth="yes"/>
      <point x="258.021" y="320.458"/>
      <point x="255.294" y="322.398"/>
      <point x="255.058" y="322.398" type="curve" smooth="yes"/>
      <point x="254.525" y="322.398"/>
      <point x="249.221" y="308.165"/>
      <point x="245.228" y="296.026" type="curve" smooth="yes"/>
      <point x="240.392" y="281.321"/>
      <point x="234.594" y="260.621"/>
      <point x="228.348" y="235.766" type="curve" smooth="yes"/>
      <point x="218.29" y="195.737"/>
      <point x="216.401" y="183.163"/>
      <point x="216.401" y="156.214" type="curve" smooth="yes"/>
      <point x="216.401" y="135.982"/>
      <point x="217.264" y="128.1"/>
      <point x="221.094" y="113.295" type="curve" smooth="yes"/>
      <point x="230.007" y="78.8379"/>
      <point x="253.251" y="51.7168"/>
      <point x="288.656" y="34.4639" type="curve" smooth="yes"/>
      <point x="308.801" y="24.6465"/>
      <point x="328.901" y="19.1572"/>
      <point x="356.575" y="15.9141" type="curve" smooth="yes"/>
      <point x="366.896" y="14.7041"/>
      <point x="405.202" y="14.7227"/>
      <point x="419.075" y="15.9434" type="curve" smooth="yes"/>
      <point x="465.751" y="20.0527"/>
      <point x="500.751" y="29.2461"/>
      <point x="535.404" y="46.5" type="curve" smooth="yes"/>
      <point x="560.621" y="59.0557"/>
      <point x="580.598" y="73.417"/>
      <point x="600.071" y="92.9912" type="curve" smooth="yes"/>
      <point x="636.856" y="129.966"/>
      <point x="663.921" y="182.009"/>
      <point x="679.544" y="245.81" type="curve" smooth="yes"/>
      <point x="697.592" y="319.509"/>
      <point x="688.215" y="382.259"/>
      <point x="651.775" y="431.647" type="curve" smooth="yes"/>
      <point x="646.604" y="438.656" type="line"/>
      <point x="640.535" y="434.754" type="line" smooth="yes"/>
      <point x="637.19" y="432.604"/>
      <point x="631.286" y="428.837"/>
      <point x="627.385" y="426.364" type="curve" smooth="yes"/>
      <point x="614.596" y="418.257"/>
      <point x="598.761" y="407.554"/>
      <point x="590.318" y="401.31" type="curve" smooth="yes"/>
      <point x="559.971" y="378.864"/>
      <point x="543.145" y="357.882"/>
      <point x="537.062" y="334.898" type="curve" smooth="yes"/>
      <point x="535.52" y="329.07"/>
      <point x="535.188" y="326.156"/>
      <point x="535.188" y="318.425" type="curve" smooth="yes"/>
      <point x="535.188" y="313.223"/>
      <point x="535.494" y="308.29"/>
      <point x="535.874" y="307.37" type="curve" smooth="yes"/>
      <point x="536.539" y="305.76"/>
      <point x="536.631" y="305.816"/>
      <point x="538.837" y="309.213" type="curve" smooth="yes"/>
      <point x="540.098" y="311.154"/>
      <point x="543.786" y="315.278"/>
      <point x="547.109" y="318.464" type="curve" smooth="yes"/>
      <point x="556.984" y="327.928"/>
      <point x="568.642" y="333.023"/>
      <point x="582.081" y="333.754" type="curve" smooth="yes"/>
      <point x="610.332" y="335.288"/>
      <point x="628.039" y="315.172"/>
      <point x="622.413" y="287.934" type="curve" smooth="yes"/>
      <point x="617.056" y="261.994"/>
      <point x="595.176" y="242.911"/>
      <point x="569.364" y="241.666" type="curve" smooth="yes"/>
      <point x="547.182" y="240.595"/>
      <point x="525.177" y="248.754"/>
      <point x="510.443" y="263.512" type="curve" smooth="yes"/>
      <point x="496.815" y="277.162"/>
      <point x="489.885" y="294.798"/>
      <point x="489.885" y="315.823" type="curve" smooth="yes"/>
      <point x="489.885" y="346.026"/>
      <point x="504.824" y="377.095"/>
      <point x="532.828" y="405.13" type="curve" smooth="yes"/>
      <point x="551.086" y="423.408"/>
      <point x="565.246" y="434.268"/>
      <point x="610.91" y="465.015" type="curve" smooth="yes"/>
      <point x="640.246" y="484.768"/>
      <point x="651.854" y="493.038"/>
      <point x="660.838" y="500.587" type="curve" smooth="yes"/>
      <point x="684.71" y="520.645"/>
      <point x="704.38" y="543.353"/>
      <point x="721.478" y="570.593" type="curve" smooth="yes"/>
      <point x="726.285" y="578.251"/>
      <point x="738.881" y="601.901"/>
      <point x="738.367" y="602.303" type="curve" smooth="yes"/>
      <point x="738.207" y="602.428"/>
      <point x="736.271" y="602.915"/>
      <point x="734.032" y="603.395" type="curve" smooth="yes"/>
      <point x="725.072" y="605.312"/>
      <point x="715.429" y="611.949"/>
      <point x="711.247" y="619.075" type="curve" smooth="yes"/>
      <point x="703.892" y="631.612"/>
      <point x="704.582" y="647.398"/>
      <point x="713.22" y="664.162" type="curve" smooth="yes"/>
      <point x="722.165" y="681.521"/>
      <point x="740.607" y="693.281"/>
      <point x="760.477" y="694.298" type="curve" smooth="yes"/>
      <point x="784.321" y="695.519"/>
      <point x="801.301" y="680.579"/>
      <point x="801.301" y="658.382" type="curve" smooth="yes"/>
      <point x="801.301" y="639.936"/>
      <point x="782.515" y="590.174"/>
      <point x="763.385" y="557.948" type="curve" smooth="yes"/>
      <point x="744.47" y="526.084"/>
      <point x="719.688" y="496.176"/>
      <point x="693.063" y="473.083" type="curve" smooth="yes"/>
      <point x="685.693" y="466.69" type="line"/>
      <point x="688.227" y="463.367" type="line" smooth="yes"/>
      <point x="705.86" y="440.225"/>
      <point x="720.81" y="409.104"/>
      <point x="727.515" y="381.575" type="curve" smooth="yes"/>
      <point x="732.858" y="359.637"/>
      <point x="734.385" y="344.075"/>
      <point x="733.9" y="316.474" type="curve" smooth="yes"/>
      <point x="733.451" y="290.968"/>
      <point x="731.499" y="274.905"/>
      <point x="725.794" y="249.783" type="curve" smooth="yes"/>
      <point x="718.508" y="217.702"/>
      <point x="709.544" y="191.935"/>
      <point x="695.881" y="163.801" type="curve" smooth="yes"/>
      <point x="687.215" y="145.954"/>
      <point x="682.092" y="136.965"/>
      <point x="671.586" y="121.171" type="curve" smooth="yes"/>
      <point x="617.599" y="40.0068"/>
      <point x="532.442" y="-8.8623"/>
      <point x="425.578" y="-20.0049" type="curve" smooth="yes"/>
      <point x="400.939" y="-22.5742"/>
      <point x="363.598" y="-22.7725"/>
      <point x="341.763" y="-20.4492" type="curve" smooth="yes"/>
      <point x="285.115" y="-14.4219"/>
      <point x="237.509" y="3.49121"/>
      <point x="198.699" y="33.3838" type="curve" smooth="yes"/>
      <point x="189.668" y="40.3398"/>
      <point x="170.016" y="60.1455"/>
      <point x="163.5" y="68.8584" type="curve" smooth="yes"/>
      <point x="144.135" y="94.7529"/>
      <point x="132.13" y="124.133"/>
      <point x="127.808" y="156.214" type="curve" smooth="yes"/>
      <point x="126.304" y="167.374"/>
      <point x="126.678" y="192.196"/>
      <point x="128.535" y="204.479" type="curve" smooth="yes"/>
      <point x="133.985" y="240.517"/>
      <point x="151.466" y="288.439"/>
      <point x="172.576" y="325.217" type="curve" smooth="yes"/>
      <point x="183.401" y="344.075"/>
      <point x="198.566" y="365.773"/>
      <point x="210.753" y="379.841" type="curve" smooth="yes"/>
      <point x="215.197" y="384.971"/>
      <point x="215.74" y="385.917"/>
      <point x="215.146" y="387.5" type="curve" smooth="yes"/>
      <point x="213.831" y="391.008"/>
      <point x="210.287" y="406.792"/>
      <point x="209.16" y="414.162" type="curve" smooth="yes"/>
      <point x="207.561" y="424.629"/>
      <point x="206.979" y="450.578"/>
      <point x="208.058" y="463.439" type="curve" smooth="yes"/>
      <point x="209.793" y="484.134"/>
      <point x="215.261" y="509.971"/>
      <point x="222.601" y="532.153" type="curve" smooth="yes"/>
      <point x="241.75" y="590.029"/>
      <point x="278.498" y="643.672"/>
      <point x="322.109" y="677.412" type="curve" smooth="yes"/>
      <point x="348.575" y="697.887"/>
      <point x="379.407" y="711.88"/>
    </contour>
    <contour>
      <point x="377.602" y="429.67" type="curve" smooth="yes"/>
      <point x="374.455" y="431.206"/>
      <point x="372.398" y="431.633"/>
      <point x="366.979" y="431.874" type="curve" smooth="yes"/>
      <point x="346.533" y="432.784"/>
      <point x="325.506" y="422.462"/>
      <point x="303.757" y="400.839" type="curve" smooth="yes"/>
      <point x="296.026" y="393.152"/>
      <point x="284.575" y="379.48"/>
      <point x="283.025" y="376.084" type="curve" smooth="yes"/>
      <point x="281.229" y="372.151"/>
      <point x="289.6" y="355.997"/>
      <point x="297.851" y="347.471" type="curve" smooth="yes"/>
      <point x="305.674" y="339.388"/>
      <point x="314.234" y="334.79"/>
      <point x="325.145" y="332.812" type="curve" smooth="yes"/>
      <point x="340.823" y="329.969"/>
      <point x="353.759" y="333.614"/>
      <point x="363.831" y="343.714" type="curve" smooth="yes"/>
      <point x="372.438" y="352.345"/>
      <point x="376.595" y="361.127"/>
      <point x="381.955" y="382.009" type="curve" smooth="yes"/>
      <point x="389.781" y="412.5"/>
      <point x="388.709" y="424.245"/>
    </contour>
  </outline>
</glyph>
<glyph name="parenleft" format="2">
  <advance width="409"/>
  <unicode hex="0028"/>
  <outline>
    <contour>
      <point x="499" y="748" type="curve" smooth="yes"/>
      <point x="500" y="749"/>
      <point x="504" y="750"/>
      <point x="506" y="750" type="curve" smooth="yes"/>
      <point x="510" y="750"/>
      <point x="512" y="750"/>
      <point x="514" y="747" type="curve" smooth="yes"/>
      <point x="517" y="744"/>
      <point x="518" y="740"/>
      <point x="516" y="737" type="curve" smooth="yes"/>
      <point x="516" y="736"/>
      <point x="510" y="730"/>
      <point x="503" y="724" type="curve" smooth="yes"/>
      <point x="486" y="710"/>
      <point x="455" y="680"/>
      <point x="441" y="663" type="curve" smooth="yes"/>
      <point x="366" y="580"/>
      <point x="309" y="479"/>
      <point x="267" y="353" type="curve" smooth="yes"/>
      <point x="222" y="221"/>
      <point x="199" y="85"/>
      <point x="203" y="-15" type="curve" smooth="yes"/>
      <point x="207" y="-101"/>
      <point x="225" y="-167"/>
      <point x="263" y="-225" type="curve" smooth="yes"/>
      <point x="268" y="-232"/>
      <point x="272" y="-239"/>
      <point x="272" y="-240" type="curve" smooth="yes"/>
      <point x="272" y="-243"/>
      <point x="269" y="-248"/>
      <point x="267" y="-249" type="curve" smooth="yes"/>
      <point x="265" y="-249"/>
      <point x="262" y="-250"/>
      <point x="259" y="-250" type="curve" smooth="yes"/>
      <point x="255" y="-250"/>
      <point x="254" y="-250"/>
      <point x="248" y="-243" type="curve" smooth="yes"/>
      <point x="238" y="-232"/>
      <point x="221" y="-209"/>
      <point x="211" y="-193" type="curve" smooth="yes"/>
      <point x="179" y="-139"/>
      <point x="161" y="-79"/>
      <point x="154" y="-3" type="curve" smooth="yes"/>
      <point x="152" y="16"/>
      <point x="152" y="75"/>
      <point x="154" y="96" type="curve" smooth="yes"/>
      <point x="168" y="271"/>
      <point x="235" y="455"/>
      <point x="335" y="588" type="curve" smooth="yes"/>
      <point x="379" y="647"/>
      <point x="430" y="699"/>
      <point x="486" y="740" type="curve" smooth="yes"/>
      <point x="491" y="744"/>
      <point x="497" y="747"/>
    </contour>
  </outline>
</glyph>
<glyph name="parenright" format="2">
  <advance width="409"/>
  <unicode hex="0029"/>
  <outline>
    <contour>
      <point x="267" y="749" type="curve" smooth="yes"/>
      <point x="268" y="749"/>
      <point x="272" y="750"/>
      <point x="274" y="750" type="curve" smooth="yes"/>
      <point x="279" y="750"/>
      <point x="280" y="750"/>
      <point x="286" y="743" type="curve" smooth="yes"/>
      <point x="296" y="732"/>
      <point x="313" y="709"/>
      <point x="323" y="693" type="curve" smooth="yes"/>
      <point x="355" y="639"/>
      <point x="373" y="579"/>
      <point x="380" y="503" type="curve" smooth="yes"/>
      <point x="382" y="484"/>
      <point x="382" y="425"/>
      <point x="380" y="405" type="curve" smooth="yes"/>
      <point x="366" y="229"/>
      <point x="299" y="45"/>
      <point x="199" y="-88" type="curve" smooth="yes"/>
      <point x="155" y="-147"/>
      <point x="104" y="-199"/>
      <point x="48" y="-240" type="curve" smooth="yes"/>
      <point x="36" y="-249"/>
      <point x="33" y="-250"/>
      <point x="27" y="-250" type="curve" smooth="yes"/>
      <point x="24" y="-250"/>
      <point x="22" y="-249"/>
      <point x="20" y="-247" type="curve" smooth="yes"/>
      <point x="17" y="-244"/>
      <point x="16" y="-240"/>
      <point x="18" y="-237" type="curve" smooth="yes"/>
      <point x="18" y="-236"/>
      <point x="24" y="-230"/>
      <point x="31" y="-224" type="curve" smooth="yes"/>
      <point x="48" y="-210"/>
      <point x="79" y="-180"/>
      <point x="93" y="-163" type="curve" smooth="yes"/>
      <point x="168" y="-80"/>
      <point x="225" y="21"/>
      <point x="267" y="147" type="curve" smooth="yes"/>
      <point x="312" y="279"/>
      <point x="335" y="415"/>
      <point x="331" y="515" type="curve" smooth="yes"/>
      <point x="327" y="601"/>
      <point x="309" y="667"/>
      <point x="271" y="725" type="curve" smooth="yes"/>
      <point x="266" y="732"/>
      <point x="262" y="739"/>
      <point x="262" y="740" type="curve" smooth="yes"/>
      <point x="262" y="743"/>
      <point x="264" y="747"/>
    </contour>
  </outline>
</glyph>
<glyph name="asterisk" format="2">
  <advance width="511"/>
  <unicode hex="002A"/>
  <outline>
    <contour>
      <point x="434" y="749" type="curve" smooth="yes"/>
      <point x="437" y="749"/>
      <point x="441" y="750"/>
      <point x="445" y="750" type="curve" smooth="yes"/>
      <point x="456" y="749"/>
      <point x="463" y="742"/>
      <point x="463" y="732" type="curve" smooth="yes"/>
      <point x="463" y="728"/>
      <point x="456" y="705"/>
      <point x="435" y="642" type="curve" smooth="yes"/>
      <point x="419" y="596"/>
      <point x="407" y="558"/>
      <point x="407" y="557" type="curve"/>
      <point x="407" y="557"/>
      <point x="440" y="578"/>
      <point x="479" y="604" type="curve" smooth="yes"/>
      <point x="518" y="630"/>
      <point x="552" y="652"/>
      <point x="554" y="653" type="curve" smooth="yes"/>
      <point x="560" y="655"/>
      <point x="570" y="654"/>
      <point x="575" y="651" type="curve" smooth="yes"/>
      <point x="581" y="647"/>
      <point x="583" y="641"/>
      <point x="583" y="632" type="curve" smooth="yes"/>
      <point x="582" y="624"/>
      <point x="580" y="619"/>
      <point x="574" y="614" type="curve" smooth="yes"/>
      <point x="570" y="609"/>
      <point x="568" y="608"/>
      <point x="473" y="564" type="curve" smooth="yes"/>
      <point x="410" y="535" type="line"/>
      <point x="470" y="498" type="line" smooth="yes"/>
      <point x="503" y="478"/>
      <point x="531" y="461"/>
      <point x="532" y="459" type="curve" smooth="yes"/>
      <point x="536" y="456"/>
      <point x="538" y="449"/>
      <point x="536" y="442" type="curve" smooth="yes"/>
      <point x="535" y="436"/>
      <point x="529" y="426"/>
      <point x="524" y="423" type="curve" smooth="yes"/>
      <point x="514" y="415"/>
      <point x="501" y="413"/>
      <point x="494" y="417" type="curve" smooth="yes"/>
      <point x="492" y="418"/>
      <point x="469" y="440"/>
      <point x="443" y="466" type="curve" smooth="yes"/>
      <point x="417" y="491"/>
      <point x="396" y="512"/>
      <point x="396" y="512" type="curve" smooth="yes"/>
      <point x="395" y="512"/>
      <point x="389" y="473"/>
      <point x="381" y="427" type="curve" smooth="yes"/>
      <point x="366" y="335"/>
      <point x="366" y="336"/>
      <point x="358" y="329" type="curve" smooth="yes"/>
      <point x="340" y="313"/>
      <point x="315" y="318"/>
      <point x="315" y="337" type="curve" smooth="yes"/>
      <point x="315" y="340"/>
      <point x="325" y="371"/>
      <point x="343" y="426" type="curve" smooth="yes"/>
      <point x="359" y="472"/>
      <point x="371" y="510"/>
      <point x="371" y="511" type="curve"/>
      <point x="371" y="511"/>
      <point x="339" y="491"/>
      <point x="300" y="465" type="curve" smooth="yes"/>
      <point x="261" y="440"/>
      <point x="228" y="418"/>
      <point x="226" y="417" type="curve" smooth="yes"/>
      <point x="221" y="415"/>
      <point x="211" y="414"/>
      <point x="207" y="416" type="curve" smooth="yes"/>
      <point x="203" y="418"/>
      <point x="198" y="424"/>
      <point x="196" y="429" type="curve" smooth="yes"/>
      <point x="194" y="434"/>
      <point x="195" y="442"/>
      <point x="198" y="448" type="curve" smooth="yes"/>
      <point x="203" y="458"/>
      <point x="203" y="458"/>
      <point x="289" y="498" type="curve" smooth="yes"/>
      <point x="368" y="535" type="line"/>
      <point x="364" y="537" type="line" smooth="yes"/>
      <point x="362" y="538"/>
      <point x="335" y="555"/>
      <point x="304" y="574" type="curve" smooth="yes"/>
      <point x="260" y="600"/>
      <point x="246" y="609"/>
      <point x="244" y="612" type="curve" smooth="yes"/>
      <point x="241" y="617"/>
      <point x="241" y="626"/>
      <point x="245" y="634" type="curve" smooth="yes"/>
      <point x="248" y="641"/>
      <point x="256" y="648"/>
      <point x="263" y="652" type="curve" smooth="yes"/>
      <point x="270" y="655"/>
      <point x="279" y="655"/>
      <point x="284" y="652" type="curve" smooth="yes"/>
      <point x="285" y="651"/>
      <point x="308" y="629"/>
      <point x="335" y="604" type="curve" smooth="yes"/>
      <point x="381" y="558"/>
      <point x="383" y="557"/>
      <point x="383" y="560" type="curve" smooth="yes"/>
      <point x="384" y="561"/>
      <point x="390" y="599"/>
      <point x="398" y="644" type="curve" smooth="yes"/>
      <point x="405" y="688"/>
      <point x="412" y="726"/>
      <point x="413" y="729" type="curve" smooth="yes"/>
      <point x="415" y="737"/>
      <point x="424" y="745"/>
    </contour>
  </outline>
</glyph>
<glyph name="plus" format="2">
  <advance width="767"/>
  <unicode hex="002B"/>
  <outline>
    <contour>
      <point x="152" y="232" type="curve" smooth="yes"/>
      <point x="135" y="241"/>
      <point x="135" y="260"/>
      <point x="152" y="268" type="curve" smooth="yes"/>
      <point x="155" y="270"/>
      <point x="162" y="270"/>
      <point x="293" y="270" type="curve" smooth="yes"/>
      <point x="431" y="270" type="line"/>
      <point x="465" y="407" type="line" smooth="yes"/>
      <point x="489" y="504"/>
      <point x="500" y="545"/>
      <point x="502" y="548" type="curve" smooth="yes"/>
      <point x="506" y="561"/>
      <point x="538" y="559"/>
      <point x="538" y="538" type="curve" smooth="yes"/>
      <point x="538" y="535"/>
      <point x="476" y="284"/>
      <point x="472" y="272" type="curve" smooth="yes"/>
      <point x="472" y="270"/>
      <point x="479" y="270"/>
      <point x="604" y="270" type="curve" smooth="yes"/>
      <point x="730" y="270"/>
      <point x="737" y="270"/>
      <point x="741" y="268" type="curve" smooth="yes"/>
      <point x="757" y="258"/>
      <point x="756" y="241"/>
      <point x="741" y="232" type="curve" smooth="yes"/>
      <point x="737" y="230"/>
      <point x="730" y="230"/>
      <point x="599" y="230" type="curve" smooth="yes"/>
      <point x="462" y="230" type="line"/>
      <point x="461" y="226" type="line" smooth="yes"/>
      <point x="461" y="223"/>
      <point x="394" y="-41"/>
      <point x="392" y="-47" type="curve" smooth="yes"/>
      <point x="383" y="-64"/>
      <point x="355" y="-58"/>
      <point x="355" y="-37" type="curve" smooth="yes"/>
      <point x="355" y="-34"/>
      <point x="369" y="24"/>
      <point x="388" y="99" type="curve" smooth="yes"/>
      <point x="421" y="230" type="line"/>
      <point x="288" y="230" type="line" smooth="yes"/>
      <point x="162" y="230"/>
      <point x="155" y="230"/>
    </contour>
  </outline>
</glyph>
<glyph name="comma" format="2">
  <advance width="307"/>
  <unicode hex="002C"/>
  <outline>
    <contour>
      <point x="72" y="-181" type="curve" smooth="yes"/>
      <point x="72" y="-173"/>
      <point x="92" y="-163"/>
      <point x="110" y="-142" type="curve" smooth="yes"/>
      <point x="154" y="-97"/>
      <point x="184" y="-44"/>
      <point x="196" y="11" type="curve"/>
      <point x="197" y="14" type="line"/>
      <point x="189" y="9"/>
      <point x="173" y="0"/>
      <point x="156" y="0" type="curve" smooth="yes"/>
      <point x="131" y="0"/>
      <point x="113" y="15"/>
      <point x="112" y="39" type="curve" smooth="yes"/>
      <point x="112" y="107"/>
      <point x="195" y="128"/>
      <point x="216" y="84" type="curve" smooth="yes"/>
      <point x="222" y="74"/>
      <point x="223" y="65"/>
      <point x="223" y="48" type="curve" smooth="yes"/>
      <point x="223" y="25"/>
      <point x="217" y="-37"/>
      <point x="164" y="-114" type="curve" smooth="yes"/>
      <point x="140" y="-147"/>
      <point x="93" y="-194"/>
      <point x="83" y="-194" type="curve" smooth="yes"/>
      <point x="78" y="-194"/>
      <point x="72" y="-187"/>
    </contour>
  </outline>
</glyph>
<glyph name="hyphen" format="2">
  <advance width="358"/>
  <unicode hex="002D"/>
  <outline>
    <contour>
      <point x="88" y="192" type="curve" smooth="yes"/>
      <point x="83" y="199"/>
      <point x="94" y="239"/>
      <point x="99" y="242" type="curve" smooth="yes"/>
      <point x="102" y="244"/>
      <point x="107" y="244"/>
      <point x="217" y="244" type="curve" smooth="yes"/>
      <point x="332" y="244" type="line"/>
      <point x="340" y="238"/>
      <point x="341" y="237"/>
      <point x="335" y="212" type="curve" smooth="yes"/>
      <point x="330" y="195"/>
      <point x="328" y="191"/>
      <point x="324" y="188" type="curve" smooth="yes"/>
      <point x="322" y="187"/>
      <point x="296" y="187"/>
      <point x="208" y="187" type="curve" smooth="yes"/>
      <point x="86" y="187"/>
      <point x="91" y="187"/>
    </contour>
  </outline>
</glyph>
<glyph name="period" format="2">
  <advance width="307"/>
  <unicode hex="002E"/>
  <outline>
    <contour>
      <point x="165" y="105" type="curve" smooth="yes"/>
      <point x="181" y="109"/>
      <point x="198" y="105"/>
      <point x="209" y="95" type="curve" smooth="yes"/>
      <point x="216" y="89"/>
      <point x="222" y="74"/>
      <point x="222" y="65" type="curve" smooth="yes"/>
      <point x="222" y="57"/>
      <point x="219" y="47"/>
      <point x="215" y="38" type="curve" smooth="yes"/>
      <point x="211" y="31"/>
      <point x="209" y="28"/>
      <point x="202" y="20" type="curve" smooth="yes"/>
      <point x="194" y="13"/>
      <point x="191" y="11"/>
      <point x="184" y="7" type="curve" smooth="yes"/>
      <point x="165" y="-2"/>
      <point x="150" y="-2"/>
      <point x="133" y="6" type="curve" smooth="yes"/>
      <point x="117" y="14"/>
      <point x="109" y="34"/>
      <point x="114" y="55" type="curve" smooth="yes"/>
      <point x="115" y="63"/>
      <point x="122" y="75"/>
      <point x="127" y="82" type="curve" smooth="yes"/>
      <point x="136" y="93"/>
      <point x="151" y="102"/>
    </contour>
  </outline>
</glyph>
<glyph name="slash" format="2">
  <advance width="510"/>
  <unicode hex="002F"/>
  <outline>
    <contour>
      <point x="592.485" y="749.454" type="curve" smooth="yes"/>
      <point x="595.231" y="750.28"/>
      <point x="600.471" y="750.14"/>
      <point x="603.107" y="749.17" type="curve" smooth="yes"/>
      <point x="607.442" y="747.576"/>
      <point x="611.692" y="743.96"/>
      <point x="613.43" y="740.391" type="curve" smooth="yes"/>
      <point x="615.504" y="736.127"/>
      <point x="616.092" y="730.389"/>
      <point x="614.845" y="726.59" type="curve" smooth="yes"/>
      <point x="613.516" y="722.543"/>
      <point x="52.9893" y="-241.162"/>
      <point x="50.3115" y="-244.003" type="curve" smooth="yes"/>
      <point x="39.4346" y="-255.546"/>
      <point x="20.2637" y="-248.699"/>
      <point x="18.9521" y="-232.804" type="curve" smooth="yes"/>
      <point x="18.7783" y="-230.708"/>
      <point x="19.0508" y="-227.8"/>
      <point x="19.5674" y="-226.229" type="curve" smooth="yes"/>
      <point x="20.8955" y="-222.182"/>
      <point x="581.354" y="741.384"/>
      <point x="584.029" y="744.22" type="curve" smooth="yes"/>
      <point x="586.374" y="746.706"/>
      <point x="589.234" y="748.477"/>
    </contour>
  </outline>
</glyph>
<glyph name="zero" format="2">
  <advance width="511"/>
  <unicode hex="0030"/>
  <outline>
    <contour>
      <point x="144" y="31" type="curve" smooth="yes"/>
      <point x="66" y="150"/>
      <point x="181" y="445"/>
      <point x="183" y="449" type="curve" smooth="yes"/>
      <point x="212" y="523"/>
      <point x="252" y="583"/>
      <point x="295" y="617" type="curve" smooth="yes"/>
      <point x="387" y="692"/>
      <point x="510" y="680"/>
      <point x="542" y="583" type="curve" smooth="yes"/>
      <point x="586" y="465"/>
      <point x="505" y="192"/>
      <point x="439" y="97" type="curve"/>
      <point x="335" y="-63"/>
      <point x="184" y="-35"/>
    </contour>
    <contour>
      <point x="206" y="252" type="curve" smooth="yes"/>
      <point x="182" y="150"/>
      <point x="155" y="27"/>
      <point x="237" y="3" type="curve"/>
      <point x="291" y="-8"/>
      <point x="348" y="33"/>
      <point x="380" y="100" type="curve" smooth="yes"/>
      <point x="401" y="143"/>
      <point x="420" y="206"/>
      <point x="452" y="332" type="curve" smooth="yes"/>
      <point x="495" y="504"/>
      <point x="502" y="560"/>
      <point x="484" y="599" type="curve" smooth="yes"/>
      <point x="448" y="674"/>
      <point x="345" y="649"/>
      <point x="296" y="555" type="curve" smooth="yes"/>
      <point x="257" y="484"/>
      <point x="207" y="255"/>
    </contour>
  </outline>
</glyph>
<glyph name="one" format="2">
  <advance width="511"/>
  <unicode hex="0031"/>
  <outline>
    <contour>
      <point x="118" y="16" type="curve" smooth="yes"/>
      <point x="120" y="32"/>
      <point x="125" y="32"/>
      <point x="146" y="32" type="curve" smooth="yes"/>
      <point x="174" y="32"/>
      <point x="220" y="32"/>
      <point x="232" y="44" type="curve" smooth="yes"/>
      <point x="242" y="53"/>
      <point x="238" y="38"/>
      <point x="304" y="303" type="curve" smooth="yes"/>
      <point x="338" y="436"/>
      <point x="365" y="545"/>
      <point x="364" y="545" type="curve" smooth="yes"/>
      <point x="324" y="515"/>
      <point x="250" y="495"/>
      <point x="239" y="511" type="curve" smooth="yes"/>
      <point x="237" y="517"/>
      <point x="240" y="533"/>
      <point x="247" y="536" type="curve" smooth="yes"/>
      <point x="268" y="536"/>
      <point x="356" y="543"/>
      <point x="438" y="659" type="curve" smooth="yes"/>
      <point x="444" y="671"/>
      <point x="457" y="666"/>
      <point x="461" y="659" type="curve" smooth="yes"/>
      <point x="464" y="649"/>
      <point x="313" y="67"/>
      <point x="313" y="49" type="curve" smooth="yes"/>
      <point x="314" y="39"/>
      <point x="315" y="34"/>
      <point x="380" y="32" type="curve" smooth="yes"/>
      <point x="413" y="32"/>
      <point x="420" y="32"/>
      <point x="417" y="16" type="curve" smooth="yes"/>
      <point x="415" y="0"/>
      <point x="414" y="0"/>
      <point x="373" y="1" type="curve" smooth="yes"/>
      <point x="330" y="3"/>
      <point x="197" y="3"/>
      <point x="156" y="1" type="curve" smooth="yes"/>
      <point x="120" y="0"/>
      <point x="115" y="0"/>
    </contour>
  </outline>
</glyph>
<glyph name="two" format="2">
  <advance width="511"/>
  <unicode hex="0032"/>
  <outline>
    <contour>
      <point x="379" y="665" type="curve" smooth="yes"/>
      <point x="380" y="666"/>
      <point x="387" y="666"/>
      <point x="394" y="666" type="curve" smooth="yes"/>
      <point x="444" y="666"/>
      <point x="490" y="644"/>
      <point x="519" y="605" type="curve" smooth="yes"/>
      <point x="526" y="595"/>
      <point x="537" y="574"/>
      <point x="541" y="561" type="curve" smooth="yes"/>
      <point x="543" y="555"/>
      <point x="546" y="545"/>
      <point x="548" y="538" type="curve" smooth="yes"/>
      <point x="550" y="525"/>
      <point x="550" y="523"/>
      <point x="550" y="499" type="curve" smooth="yes"/>
      <point x="550" y="478"/>
      <point x="550" y="470"/>
      <point x="549" y="462" type="curve" smooth="yes"/>
      <point x="540" y="412"/>
      <point x="522" y="377"/>
      <point x="481" y="337" type="curve" smooth="yes"/>
      <point x="457" y="314"/>
      <point x="437" y="298"/>
      <point x="401" y="275" type="curve" smooth="yes"/>
      <point x="377" y="259"/>
      <point x="355" y="246"/>
      <point x="312" y="221" type="curve" smooth="yes"/>
      <point x="271" y="198"/>
      <point x="258" y="189"/>
      <point x="235" y="170" type="curve" smooth="yes"/>
      <point x="207" y="147"/>
      <point x="183" y="121"/>
      <point x="163" y="91" type="curve" smooth="yes"/>
      <point x="152" y="74"/>
      <point x="152" y="75"/>
      <point x="161" y="77" type="curve" smooth="yes"/>
      <point x="166" y="78"/>
      <point x="172" y="78"/>
      <point x="180" y="78" type="curve" smooth="yes"/>
      <point x="207" y="76"/>
      <point x="225" y="73"/>
      <point x="267" y="64" type="curve" smooth="yes"/>
      <point x="321" y="52"/>
      <point x="337" y="50"/>
      <point x="363" y="50" type="curve" smooth="yes"/>
      <point x="382" y="49"/>
      <point x="389" y="51"/>
      <point x="403" y="57" type="curve" smooth="yes"/>
      <point x="438" y="73"/>
      <point x="471" y="115"/>
      <point x="483" y="160" type="curve" smooth="yes"/>
      <point x="487" y="172"/>
      <point x="488" y="173"/>
      <point x="501" y="173" type="curve" smooth="yes"/>
      <point x="511" y="173"/>
      <point x="511" y="173"/>
      <point x="514" y="170" type="curve" smooth="yes"/>
      <point x="516" y="168"/>
      <point x="517" y="166"/>
      <point x="517" y="165" type="curve" smooth="yes"/>
      <point x="517" y="161"/>
      <point x="509" y="134"/>
      <point x="504" y="121" type="curve" smooth="yes"/>
      <point x="491" y="87"/>
      <point x="475" y="58"/>
      <point x="458" y="36" type="curve" smooth="yes"/>
      <point x="449" y="24"/>
      <point x="429" y="6"/>
      <point x="419" y="-1" type="curve" smooth="yes"/>
      <point x="379" y="-28"/>
      <point x="336" y="-29"/>
      <point x="291" y="-4" type="curve" smooth="yes"/>
      <point x="286" y="-2"/>
      <point x="276" y="5"/>
      <point x="269" y="10" type="curve" smooth="yes"/>
      <point x="235" y="33"/>
      <point x="226" y="38"/>
      <point x="217" y="43" type="curve" smooth="yes"/>
      <point x="204" y="49"/>
      <point x="192" y="53"/>
      <point x="179" y="54" type="curve" smooth="yes"/>
      <point x="162" y="56"/>
      <point x="154" y="53"/>
      <point x="142" y="40" type="curve" smooth="yes"/>
      <point x="132" y="29"/>
      <point x="122" y="12"/>
      <point x="117" y="-6" type="curve" smooth="yes"/>
      <point x="113" y="-21"/>
      <point x="112" y="-22"/>
      <point x="98" y="-22" type="curve" smooth="yes"/>
      <point x="89" y="-22"/>
      <point x="89" y="-22"/>
      <point x="86" y="-19" type="curve" smooth="yes"/>
      <point x="82" y="-15"/>
      <point x="82" y="-13"/>
      <point x="87" y="2" type="curve" smooth="yes"/>
      <point x="108" y="75"/>
      <point x="157" y="147"/>
      <point x="221" y="198" type="curve" smooth="yes"/>
      <point x="242" y="215"/>
      <point x="253" y="223"/>
      <point x="281" y="238" type="curve" smooth="yes"/>
      <point x="356" y="282"/>
      <point x="409" y="331"/>
      <point x="441" y="384" type="curve" smooth="yes"/>
      <point x="457" y="410"/>
      <point x="466" y="437"/>
      <point x="473" y="479" type="curve" smooth="yes"/>
      <point x="483" y="529"/>
      <point x="481" y="566"/>
      <point x="468" y="594" type="curve" smooth="yes"/>
      <point x="463" y="604"/>
      <point x="459" y="610"/>
      <point x="451" y="618" type="curve" smooth="yes"/>
      <point x="434" y="636"/>
      <point x="413" y="644"/>
      <point x="387" y="643" type="curve" smooth="yes"/>
      <point x="363" y="641"/>
      <point x="342" y="634"/>
      <point x="320" y="619" type="curve" smooth="yes"/>
      <point x="270" y="587"/>
      <point x="227" y="521"/>
      <point x="205" y="443" type="curve" smooth="yes"/>
      <point x="198" y="420"/>
      <point x="196" y="408"/>
      <point x="196" y="392" type="curve" smooth="yes"/>
      <point x="195" y="375"/>
      <point x="197" y="369"/>
      <point x="203" y="364" type="curve" smooth="yes"/>
      <point x="208" y="360"/>
      <point x="212" y="358"/>
      <point x="220" y="359" type="curve" smooth="yes"/>
      <point x="235" y="361"/>
      <point x="248" y="367"/>
      <point x="261" y="380" type="curve" smooth="yes"/>
      <point x="281" y="398"/>
      <point x="295" y="423"/>
      <point x="306" y="457" type="curve" smooth="yes"/>
      <point x="316" y="488"/>
      <point x="316" y="503"/>
      <point x="306" y="526" type="curve" smooth="yes"/>
      <point x="304" y="531"/>
      <point x="302" y="536"/>
      <point x="302" y="537" type="curve" smooth="yes"/>
      <point x="302" y="538"/>
      <point x="304" y="541"/>
      <point x="306" y="544" type="curve" smooth="yes"/>
      <point x="310" y="547"/>
      <point x="311" y="548"/>
      <point x="314" y="548" type="curve" smooth="yes"/>
      <point x="316" y="548"/>
      <point x="319" y="548"/>
      <point x="320" y="547" type="curve" smooth="yes"/>
      <point x="323" y="545"/>
      <point x="331" y="527"/>
      <point x="334" y="517" type="curve" smooth="yes"/>
      <point x="337" y="507"/>
      <point x="338" y="491"/>
      <point x="336" y="481" type="curve" smooth="yes"/>
      <point x="334" y="465"/>
      <point x="325" y="439"/>
      <point x="315" y="419" type="curve" smooth="yes"/>
      <point x="297" y="381"/>
      <point x="275" y="356"/>
      <point x="249" y="344" type="curve" smooth="yes"/>
      <point x="238" y="339"/>
      <point x="230" y="337"/>
      <point x="219" y="336" type="curve" smooth="yes"/>
      <point x="203" y="335"/>
      <point x="190" y="340"/>
      <point x="181" y="350" type="curve" smooth="yes"/>
      <point x="170" y="361"/>
      <point x="166" y="373"/>
      <point x="165" y="395" type="curve" smooth="yes"/>
      <point x="165" y="412"/>
      <point x="166" y="419"/>
      <point x="171" y="439" type="curve" smooth="yes"/>
      <point x="189" y="509"/>
      <point x="229" y="577"/>
      <point x="276" y="618" type="curve" smooth="yes"/>
      <point x="308" y="645"/>
      <point x="339" y="659"/>
    </contour>
  </outline>
</glyph>
<glyph name="three" format="2">
  <advance width="511"/>
  <unicode hex="0033"/>
  <outline>
    <contour>
      <point x="398" y="665" type="curve" smooth="yes"/>
      <point x="402" y="665"/>
      <point x="411" y="666"/>
      <point x="419" y="666" type="curve" smooth="yes"/>
      <point x="451" y="666"/>
      <point x="481" y="658"/>
      <point x="506" y="641" type="curve" smooth="yes"/>
      <point x="515" y="636"/>
      <point x="530" y="621"/>
      <point x="537" y="612" type="curve" smooth="yes"/>
      <point x="548" y="597"/>
      <point x="557" y="575"/>
      <point x="561" y="555" type="curve" smooth="yes"/>
      <point x="563" y="539"/>
      <point x="562" y="514"/>
      <point x="559" y="498" type="curve" smooth="yes"/>
      <point x="547" y="447"/>
      <point x="515" y="400"/>
      <point x="471" y="366" type="curve" smooth="yes"/>
      <point x="453" y="353"/>
      <point x="431" y="341"/>
      <point x="411" y="333" type="curve" smooth="yes"/>
      <point x="401" y="329" type="line"/>
      <point x="407" y="327" type="line" smooth="yes"/>
      <point x="417" y="321"/>
      <point x="432" y="311"/>
      <point x="441" y="302" type="curve" smooth="yes"/>
      <point x="469" y="274"/>
      <point x="483" y="232"/>
      <point x="479" y="190" type="curve" smooth="yes"/>
      <point x="474" y="130"/>
      <point x="440" y="73"/>
      <point x="386" y="33" type="curve" smooth="yes"/>
      <point x="333" y="-6"/>
      <point x="263" y="-28"/>
      <point x="208" y="-21" type="curve" smooth="yes"/>
      <point x="186" y="-18"/>
      <point x="160" y="-8"/>
      <point x="144" y="4" type="curve" smooth="yes"/>
      <point x="120" y="22"/>
      <point x="104" y="47"/>
      <point x="97" y="80" type="curve" smooth="yes"/>
      <point x="96" y="86"/>
      <point x="96" y="93"/>
      <point x="96" y="106" type="curve" smooth="yes"/>
      <point x="95" y="153"/>
      <point x="109" y="177"/>
      <point x="140" y="184" type="curve" smooth="yes"/>
      <point x="149" y="186"/>
      <point x="157" y="185"/>
      <point x="166" y="181" type="curve" smooth="yes"/>
      <point x="177" y="175"/>
      <point x="182" y="167"/>
      <point x="183" y="155" type="curve" smooth="yes"/>
      <point x="185" y="128"/>
      <point x="161" y="103"/>
      <point x="134" y="103" type="curve" smooth="yes"/>
      <point x="127" y="103" type="line"/>
      <point x="127" y="99" type="line" smooth="yes"/>
      <point x="127" y="92"/>
      <point x="130" y="77"/>
      <point x="133" y="68" type="curve" smooth="yes"/>
      <point x="147" y="22"/>
      <point x="190" y="-4"/>
      <point x="242" y="2" type="curve" smooth="yes"/>
      <point x="298" y="8"/>
      <point x="349" y="47"/>
      <point x="375" y="104" type="curve" smooth="yes"/>
      <point x="388" y="131"/>
      <point x="401" y="178"/>
      <point x="406" y="213" type="curve" smooth="yes"/>
      <point x="408" y="228"/>
      <point x="407" y="255"/>
      <point x="405" y="265" type="curve" smooth="yes"/>
      <point x="398" y="288"/>
      <point x="383" y="306"/>
      <point x="364" y="314" type="curve" smooth="yes"/>
      <point x="354" y="318"/>
      <point x="345" y="319"/>
      <point x="313" y="319" type="curve" smooth="yes"/>
      <point x="281" y="319"/>
      <point x="280" y="319"/>
      <point x="278" y="325" type="curve" smooth="yes"/>
      <point x="277" y="328"/>
      <point x="277" y="330"/>
      <point x="281" y="343" type="curve" smooth="yes"/>
      <point x="283" y="351"/>
      <point x="283" y="351"/>
      <point x="319" y="351" type="curve" smooth="yes"/>
      <point x="340" y="351"/>
      <point x="352" y="351"/>
      <point x="359" y="352" type="curve" smooth="yes"/>
      <point x="389" y="357"/>
      <point x="416" y="371"/>
      <point x="440" y="395" type="curve" smooth="yes"/>
      <point x="463" y="418"/>
      <point x="478" y="445"/>
      <point x="490" y="485" type="curve" smooth="yes"/>
      <point x="505" y="538"/>
      <point x="505" y="580"/>
      <point x="490" y="605" type="curve" smooth="yes"/>
      <point x="468" y="640"/>
      <point x="428" y="651"/>
      <point x="373" y="637" type="curve" smooth="yes"/>
      <point x="321" y="622"/>
      <point x="271" y="581"/>
      <point x="247" y="533" type="curve" smooth="yes"/>
      <point x="224" y="488"/>
      <point x="225" y="442"/>
      <point x="248" y="436" type="curve" smooth="yes"/>
      <point x="251" y="435"/>
      <point x="255" y="435"/>
      <point x="259" y="435" type="curve" smooth="yes"/>
      <point x="281" y="437"/>
      <point x="304" y="456"/>
      <point x="312" y="479" type="curve" smooth="yes"/>
      <point x="314" y="484"/>
      <point x="314" y="487"/>
      <point x="314" y="497" type="curve" smooth="yes"/>
      <point x="314" y="506"/>
      <point x="314" y="509"/>
      <point x="312" y="515" type="curve" smooth="yes"/>
      <point x="310" y="519"/>
      <point x="307" y="524"/>
      <point x="306" y="527" type="curve" smooth="yes"/>
      <point x="304" y="530"/>
      <point x="303" y="533"/>
      <point x="302" y="535" type="curve" smooth="yes"/>
      <point x="302" y="539"/>
      <point x="302" y="539"/>
      <point x="306" y="544" type="curve" smooth="yes"/>
      <point x="310" y="547"/>
      <point x="311" y="548"/>
      <point x="315" y="548" type="curve" smooth="yes"/>
      <point x="317" y="548"/>
      <point x="320" y="547"/>
      <point x="321" y="547" type="curve" smooth="yes"/>
      <point x="323" y="545"/>
      <point x="329" y="535"/>
      <point x="332" y="526" type="curve" smooth="yes"/>
      <point x="344" y="495"/>
      <point x="336" y="460"/>
      <point x="311" y="436" type="curve" smooth="yes"/>
      <point x="303" y="429"/>
      <point x="298" y="426"/>
      <point x="289" y="421" type="curve" smooth="yes"/>
      <point x="255" y="404"/>
      <point x="220" y="412"/>
      <point x="207" y="441" type="curve" smooth="yes"/>
      <point x="201" y="454"/>
      <point x="200" y="460"/>
      <point x="200" y="477" type="curve" smooth="yes"/>
      <point x="200" y="491"/>
      <point x="200" y="494"/>
      <point x="203" y="504" type="curve" smooth="yes"/>
      <point x="221" y="570"/>
      <point x="274" y="626"/>
      <point x="346" y="652" type="curve" smooth="yes"/>
      <point x="361" y="658"/>
      <point x="382" y="663"/>
    </contour>
  </outline>
</glyph>
<glyph name="four" format="2">
  <advance width="511"/>
  <unicode hex="0034"/>
  <outline>
    <contour>
      <point x="433" y="664" type="curve" smooth="yes"/>
      <point x="443" y="668"/>
      <point x="456" y="666"/>
      <point x="463" y="660" type="curve" smooth="yes"/>
      <point x="468" y="656"/>
      <point x="471" y="649"/>
      <point x="472" y="642" type="curve" smooth="yes"/>
      <point x="472" y="636"/>
      <point x="472" y="633"/>
      <point x="468" y="618" type="curve" smooth="yes"/>
      <point x="424" y="450"/>
      <point x="344" y="292"/>
      <point x="239" y="167" type="curve" smooth="yes"/>
      <point x="216" y="138"/>
      <point x="183" y="103"/>
      <point x="157" y="78" type="curve" smooth="yes"/>
      <point x="146" y="68" type="line"/>
      <point x="168" y="68" type="line" smooth="yes"/>
      <point x="209" y="68"/>
      <point x="229" y="64"/>
      <point x="282" y="43" type="curve" smooth="yes"/>
      <point x="296" y="37"/>
      <point x="307" y="33"/>
      <point x="308" y="33" type="curve"/>
      <point x="308" y="34"/>
      <point x="318" y="75"/>
      <point x="331" y="125" type="curve" smooth="yes"/>
      <point x="344" y="177"/>
      <point x="355" y="217"/>
      <point x="356" y="220" type="curve" smooth="yes"/>
      <point x="360" y="228"/>
      <point x="364" y="232"/>
      <point x="372" y="236" type="curve" smooth="yes"/>
      <point x="384" y="242"/>
      <point x="393" y="243"/>
      <point x="403" y="239" type="curve" smooth="yes"/>
      <point x="412" y="235"/>
      <point x="418" y="226"/>
      <point x="418" y="216" type="curve" smooth="yes"/>
      <point x="418" y="213"/>
      <point x="410" y="180"/>
      <point x="394" y="114" type="curve" smooth="yes"/>
      <point x="381" y="61"/>
      <point x="370" y="18"/>
      <point x="370" y="17" type="curve" smooth="yes"/>
      <point x="372" y="16"/>
      <point x="391" y="16"/>
      <point x="401" y="17" type="curve" smooth="yes"/>
      <point x="416" y="19"/>
      <point x="430" y="22"/>
      <point x="443" y="26" type="curve" smooth="yes"/>
      <point x="462" y="33"/>
      <point x="463" y="33"/>
      <point x="471" y="22" type="curve" smooth="yes"/>
      <point x="476" y="15"/>
      <point x="476" y="11"/>
      <point x="473" y="7" type="curve" smooth="yes"/>
      <point x="469" y="2"/>
      <point x="435" y="-9"/>
      <point x="411" y="-14" type="curve" smooth="yes"/>
      <point x="403" y="-15"/>
      <point x="395" y="-15"/>
      <point x="381" y="-15" type="curve" smooth="yes"/>
      <point x="361" y="-15" type="line"/>
      <point x="343" y="-91" type="line" smooth="yes"/>
      <point x="322" y="-173"/>
      <point x="321" y="-176"/>
      <point x="313" y="-184" type="curve" smooth="yes"/>
      <point x="300" y="-195"/>
      <point x="279" y="-197"/>
      <point x="268" y="-188" type="curve" smooth="yes"/>
      <point x="263" y="-184"/>
      <point x="260" y="-177"/>
      <point x="259" y="-170" type="curve" smooth="yes"/>
      <point x="259" y="-164"/>
      <point x="260" y="-157"/>
      <point x="279" y="-83" type="curve" smooth="yes"/>
      <point x="290" y="-39"/>
      <point x="299" y="-2"/>
      <point x="299" y="-1" type="curve" smooth="yes"/>
      <point x="299" y="1"/>
      <point x="296" y="3"/>
      <point x="276" y="11" type="curve" smooth="yes"/>
      <point x="224" y="32"/>
      <point x="205" y="36"/>
      <point x="168" y="36" type="curve" smooth="yes"/>
      <point x="141" y="36"/>
      <point x="115" y="33"/>
      <point x="104" y="29" type="curve" smooth="yes"/>
      <point x="102" y="29"/>
      <point x="93" y="23"/>
      <point x="85" y="17" type="curve" smooth="yes"/>
      <point x="66" y="2"/>
      <point x="63" y="0"/>
      <point x="60" y="0" type="curve" smooth="yes"/>
      <point x="56" y="0"/>
      <point x="54" y="2"/>
      <point x="48" y="9" type="curve" smooth="yes"/>
      <point x="43" y="17"/>
      <point x="43" y="20"/>
      <point x="48" y="28" type="curve" smooth="yes"/>
      <point x="54" y="38"/>
      <point x="65" y="46"/>
      <point x="79" y="53" type="curve" smooth="yes"/>
      <point x="88" y="58"/>
      <point x="102" y="70"/>
      <point x="128" y="95" type="curve" smooth="yes"/>
      <point x="253" y="219"/>
      <point x="343" y="390"/>
      <point x="403" y="621" type="curve" smooth="yes"/>
      <point x="406" y="631"/>
      <point x="409" y="642"/>
      <point x="410" y="645" type="curve" smooth="yes"/>
      <point x="415" y="654"/>
      <point x="422" y="660"/>
    </contour>
  </outline>
</glyph>
<glyph name="five" format="2">
  <advance width="510"/>
  <unicode hex="0035"/>
  <outline>
    <contour>
      <point x="279.66" y="665.787" type="curve" smooth="yes"/>
      <point x="281.033" y="666.484"/>
      <point x="283.014" y="667.052"/>
      <point x="284.068" y="667.052" type="curve" smooth="yes"/>
      <point x="285.119" y="667.052"/>
      <point x="290.968" y="664.479"/>
      <point x="297.037" y="661.348" type="curve" smooth="yes"/>
      <point x="326.229" y="646.283"/>
      <point x="356.937" y="637.919"/>
      <point x="392.702" y="635.288" type="curve" smooth="yes"/>
      <point x="441.724" y="631.684"/>
      <point x="498.41" y="642.217"/>
      <point x="548.627" y="664.261" type="curve" smooth="yes"/>
      <point x="552.096" y="665.783"/>
      <point x="555.807" y="667.052"/>
      <point x="556.792" y="667.052" type="curve" smooth="yes"/>
      <point x="561.85" y="667.052"/>
      <point x="566.474" y="662.635"/>
      <point x="566.474" y="657.804" type="curve" smooth="yes"/>
      <point x="566.474" y="655.328"/>
      <point x="562.734" y="639.379"/>
      <point x="561.308" y="635.766" type="curve" smooth="yes"/>
      <point x="560.406" y="633.485"/>
      <point x="547.688" y="621.886"/>
      <point x="535.404" y="612.142" type="curve" smooth="yes"/>
      <point x="525.911" y="604.611"/>
      <point x="505.997" y="591.139"/>
      <point x="495.304" y="585.013" type="curve" smooth="yes"/>
      <point x="472.651" y="572.036"/>
      <point x="445.231" y="560.698"/>
      <point x="420.521" y="554.091" type="curve" smooth="yes"/>
      <point x="379.19" y="543.041"/>
      <point x="336.438" y="542.389"/>
      <point x="299.639" y="552.247" type="curve" smooth="yes"/>
      <point x="296.532" y="553.08"/>
      <point x="293.873" y="553.628"/>
      <point x="293.714" y="553.468" type="curve" smooth="yes"/>
      <point x="293.555" y="553.31"/>
      <point x="283.792" y="514.632"/>
      <point x="272.037" y="467.594" type="curve" smooth="yes"/>
      <point x="260.283" y="420.557"/>
      <point x="250.472" y="381.423"/>
      <point x="250.253" y="380.708" type="curve" smooth="yes"/>
      <point x="249.998" y="379.873"/>
      <point x="251.951" y="380.96"/>
      <point x="255.708" y="383.743" type="curve" smooth="yes"/>
      <point x="276.812" y="399.376"/>
      <point x="303.035" y="411.375"/>
      <point x="327.818" y="416.739" type="curve" smooth="yes"/>
      <point x="368.28" y="425.497"/>
      <point x="404.49" y="419.704"/>
      <point x="434.682" y="399.643" type="curve" smooth="yes"/>
      <point x="446.184" y="392"/>
      <point x="460.914" y="377.096"/>
      <point x="468.82" y="365.102" type="curve" smooth="yes"/>
      <point x="483.355" y="343.05"/>
      <point x="492.507" y="316.907"/>
      <point x="495.782" y="288.078" type="curve" smooth="yes"/>
      <point x="496.945" y="277.841"/>
      <point x="496.913" y="250.072"/>
      <point x="495.726" y="239.307" type="curve" smooth="yes"/>
      <point x="491.806" y="203.757"/>
      <point x="482.395" y="171.829"/>
      <point x="466.357" y="139.668" type="curve" smooth="yes"/>
      <point x="423.771" y="54.2627"/>
      <point x="342.181" y="-8.13379"/>
      <point x="256.864" y="-20.5449" type="curve" smooth="yes"/>
      <point x="245.954" y="-22.1318"/>
      <point x="218.579" y="-22.3564"/>
      <point x="209.898" y="-20.9297" type="curve" smooth="yes"/>
      <point x="195.159" y="-18.5068"/>
      <point x="183.631" y="-14.7842"/>
      <point x="171.026" y="-8.37793" type="curve" smooth="yes"/>
      <point x="136.586" y="9.12695"/>
      <point x="114.763" y="40.8232"/>
      <point x="106.458" y="85.4043" type="curve" smooth="yes"/>
      <point x="104.602" y="95.375"/>
      <point x="104.606" y="128.612"/>
      <point x="106.467" y="140.174" type="curve" smooth="yes"/>
      <point x="110.466" y="165.029"/>
      <point x="115.483" y="177.453"/>
      <point x="125.986" y="188.512" type="curve" smooth="yes"/>
      <point x="137.396" y="200.524"/>
      <point x="151.59" y="207.162"/>
      <point x="167.702" y="208.021" type="curve" smooth="yes"/>
      <point x="188.367" y="209.122"/>
      <point x="204.978" y="198.831"/>
      <point x="210.272" y="181.647" type="curve" smooth="yes"/>
      <point x="212.218" y="175.332"/>
      <point x="212.196" y="164.523"/>
      <point x="210.221" y="156.214" type="curve" smooth="yes"/>
      <point x="207.198" y="143.497"/>
      <point x="199.009" y="130.291"/>
      <point x="189.162" y="122.256" type="curve" smooth="yes"/>
      <point x="180.396" y="115.103"/>
      <point x="166.618" y="109.506"/>
      <point x="154.407" y="108.137" type="curve" smooth="yes"/>
      <point x="150.145" y="107.659" type="line"/>
      <point x="150.629" y="102.457" type="line" smooth="yes"/>
      <point x="151.295" y="95.3037"/>
      <point x="153.51" y="84.6035"/>
      <point x="155.729" y="77.8184" type="curve" smooth="yes"/>
      <point x="164.968" y="49.5664"/>
      <point x="186.334" y="28.8164"/>
      <point x="212.645" y="22.5439" type="curve" smooth="yes"/>
      <point x="243.858" y="15.1025"/>
      <point x="277.64" y="22.9912"/>
      <point x="308.526" y="44.9336" type="curve" smooth="yes"/>
      <point x="331.708" y="61.4033"/>
      <point x="351.319" y="85.4766"/>
      <point x="365.335" y="114.668" type="curve" smooth="yes"/>
      <point x="376.501" y="137.926"/>
      <point x="383.055" y="158.021"/>
      <point x="394.789" y="204.985" type="curve" smooth="yes"/>
      <point x="409.088" y="262.211"/>
      <point x="412.798" y="283.976"/>
      <point x="412.833" y="310.838" type="curve" smooth="yes"/>
      <point x="412.855" y="328.54"/>
      <point x="411.898" y="335.429"/>
      <point x="407.831" y="346.821" type="curve" smooth="yes"/>
      <point x="401.847" y="363.584"/>
      <point x="390.461" y="376.176"/>
      <point x="377.023" y="380.894" type="curve" smooth="yes"/>
      <point x="364.763" y="385.197"/>
      <point x="344.942" y="384.426"/>
      <point x="323.338" y="378.802" type="curve" smooth="yes"/>
      <point x="302.674" y="373.423"/>
      <point x="280.596" y="361.694"/>
      <point x="262.283" y="346.366" type="curve" smooth="yes"/>
      <point x="253.612" y="339.109"/>
      <point x="238.196" y="323.158"/>
      <point x="231.577" y="314.596" type="curve" smooth="yes"/>
      <point x="224.352" y="305.247"/>
      <point x="223.916" y="305.058"/>
      <point x="209.609" y="305.058" type="curve" smooth="yes"/>
      <point x="199.277" y="305.058"/>
      <point x="197.565" y="305.231"/>
      <point x="195.015" y="306.539" type="curve" smooth="yes"/>
      <point x="191.406" y="308.389"/>
      <point x="189.305" y="311.777"/>
      <point x="189.302" y="315.751" type="curve" smooth="yes"/>
      <point x="189.299" y="319.581"/>
      <point x="274.224" y="659.401"/>
      <point x="275.922" y="662.355" type="curve" smooth="yes"/>
      <point x="276.607" y="663.549"/>
      <point x="278.287" y="665.091"/>
    </contour>
  </outline>
</glyph>
<glyph name="six" format="2">
  <advance width="511"/>
  <unicode hex="0036"/>
  <outline>
    <contour>
      <point x="150" y="344" type="curve" smooth="yes"/>
      <point x="206" y="543"/>
      <point x="366" y="680"/>
      <point x="490" y="665" type="curve" smooth="yes"/>
      <point x="588" y="652"/>
      <point x="576" y="559"/>
      <point x="549" y="534" type="curve" smooth="yes"/>
      <point x="528" y="514"/>
      <point x="494" y="516"/>
      <point x="484" y="539" type="curve" smooth="yes"/>
      <point x="473" y="565"/>
      <point x="498" y="602"/>
      <point x="530" y="602" type="curve" smooth="yes"/>
      <point x="534" y="602" type="line"/>
      <point x="528" y="616"/>
      <point x="520" y="637"/>
      <point x="475" y="640" type="curve" smooth="yes"/>
      <point x="447" y="641"/>
      <point x="331" y="631"/>
      <point x="255" y="417" type="curve" smooth="yes"/>
      <point x="248" y="396"/>
      <point x="245" y="382"/>
      <point x="233" y="341" type="curve" smooth="yes"/>
      <point x="233" y="334"/>
      <point x="291" y="447"/>
      <point x="400" y="424" type="curve" smooth="yes"/>
      <point x="469" y="410"/>
      <point x="507" y="337"/>
      <point x="507" y="271" type="curve" smooth="yes"/>
      <point x="507" y="251"/>
      <point x="503" y="114"/>
      <point x="381" y="25" type="curve" smooth="yes"/>
      <point x="364" y="12"/>
      <point x="278" y="-50"/>
      <point x="196" y="-9" type="curve" smooth="yes"/>
      <point x="86" y="46"/>
      <point x="119" y="233"/>
    </contour>
    <contour>
      <point x="200" y="197" type="curve" smooth="yes"/>
      <point x="190" y="149"/>
      <point x="165" y="35"/>
      <point x="234" y="10" type="curve" smooth="yes"/>
      <point x="242" y="8"/>
      <point x="308" y="-10"/>
      <point x="367" y="77" type="curve" smooth="yes"/>
      <point x="406" y="134"/>
      <point x="435" y="287"/>
      <point x="434" y="324" type="curve" smooth="yes"/>
      <point x="426" y="462"/>
      <point x="245" y="428"/>
    </contour>
  </outline>
</glyph>
<glyph name="seven" format="2">
  <advance width="510"/>
  <unicode hex="0037"/>
  <outline>
    <contour>
      <point x="248.049" y="665.643" type="curve" smooth="yes"/>
      <point x="250.147" y="666.922"/>
      <point x="251.734" y="667.052"/>
      <point x="265.174" y="667.052" type="curve" smooth="yes"/>
      <point x="278.179" y="667.052"/>
      <point x="280.285" y="666.893"/>
      <point x="282.442" y="665.742" type="curve" smooth="yes"/>
      <point x="285.3" y="664.218"/>
      <point x="287.572" y="660.477"/>
      <point x="287.572" y="657.298" type="curve" smooth="yes"/>
      <point x="287.572" y="656.024"/>
      <point x="284.143" y="647.868"/>
      <point x="279.263" y="637.536" type="curve" smooth="yes"/>
      <point x="274.69" y="627.854"/>
      <point x="270.954" y="619.812"/>
      <point x="270.954" y="619.653" type="curve" smooth="yes"/>
      <point x="270.954" y="619.493"/>
      <point x="273.627" y="621.422"/>
      <point x="276.951" y="623.979" type="curve" smooth="yes"/>
      <point x="300.437" y="642.055"/>
      <point x="327.457" y="655.495"/>
      <point x="353.323" y="661.968" type="curve" smooth="yes"/>
      <point x="371.749" y="666.579"/>
      <point x="393.128" y="668.309"/>
      <point x="403.396" y="666.02" type="curve" smooth="yes"/>
      <point x="422.378" y="661.788"/>
      <point x="433.005" y="647.543"/>
      <point x="437.824" y="619.87" type="curve" smooth="yes"/>
      <point x="438.604" y="615.397"/>
      <point x="440.091" y="605.636"/>
      <point x="441.148" y="598.049" type="curve" smooth="yes"/>
      <point x="444.182" y="576.301"/>
      <point x="447.078" y="567.438"/>
      <point x="453.035" y="561.682" type="curve" smooth="yes"/>
      <point x="457.189" y="557.667"/>
      <point x="459.898" y="556.876"/>
      <point x="469.292" y="556.934" type="curve" smooth="yes"/>
      <point x="486.009" y="557.036"/>
      <point x="501.012" y="563.308"/>
      <point x="518.786" y="577.623" type="curve" smooth="yes"/>
      <point x="536.417" y="591.823"/>
      <point x="555.681" y="614.523"/>
      <point x="581.985" y="652.096" type="curve" smooth="yes"/>
      <point x="586.994" y="659.249"/>
      <point x="591.463" y="664.875"/>
      <point x="592.774" y="665.679" type="curve" smooth="yes"/>
      <point x="594.783" y="666.91"/>
      <point x="596.532" y="667.052"/>
      <point x="609.682" y="667.052" type="curve" smooth="yes"/>
      <point x="626.084" y="667.052"/>
      <point x="628.325" y="666.576"/>
      <point x="630.77" y="662.572" type="curve" smooth="yes"/>
      <point x="631.611" y="661.193"/>
      <point x="632.226" y="658.924"/>
      <point x="632.226" y="657.189" type="curve" smooth="yes"/>
      <point x="632.226" y="654.493"/>
      <point x="630.963" y="652.312"/>
      <point x="619.692" y="635.549" type="curve" smooth="yes"/>
      <point x="540.273" y="517.416"/>
      <point x="477.829" y="390.679"/>
      <point x="425.353" y="241.112" type="curve" smooth="yes"/>
      <point x="403.977" y="180.188"/>
      <point x="380.931" y="103.179"/>
      <point x="364.853" y="38.9453" type="curve" smooth="yes"/>
      <point x="362.846" y="30.9248"/>
      <point x="360.383" y="21.9082"/>
      <point x="359.387" y="18.9307" type="curve" smooth="yes"/>
      <point x="351.645" y="-4.22266"/>
      <point x="329.913" y="-20.6533"/>
      <point x="305.202" y="-22.0381" type="curve" smooth="yes"/>
      <point x="283.021" y="-23.2822"/>
      <point x="265.583" y="-10.6621"/>
      <point x="262.273" y="9.03223" type="curve" smooth="yes"/>
      <point x="260.772" y="17.9658"/>
      <point x="261.817" y="23.916"/>
      <point x="270.36" y="55.0576" type="curve" smooth="yes"/>
      <point x="283.644" y="103.479"/>
      <point x="303.688" y="160.043"/>
      <point x="326.05" y="212.211" type="curve" smooth="yes"/>
      <point x="365.39" y="303.983"/>
      <point x="423.017" y="410.115"/>
      <point x="490.394" y="514.885" type="curve" smooth="yes"/>
      <point x="493.692" y="520.015"/>
      <point x="496.29" y="524.303"/>
      <point x="496.171" y="524.422" type="curve" smooth="yes"/>
      <point x="496.052" y="524.541"/>
      <point x="492.847" y="523.85"/>
      <point x="489.09" y="522.896" type="curve" smooth="yes"/>
      <point x="469.581" y="517.94"/>
      <point x="453.757" y="518.652"/>
      <point x="441.618" y="525.032" type="curve" smooth="yes"/>
      <point x="431.491" y="530.354"/>
      <point x="425.179" y="536.922"/>
      <point x="411.925" y="555.925" type="curve" smooth="yes"/>
      <point x="395.697" y="579.19"/>
      <point x="389.455" y="583.215"/>
      <point x="371.026" y="582.287" type="curve" smooth="yes"/>
      <point x="339.74" y="580.713"/>
      <point x="308.459" y="569.005"/>
      <point x="278.179" y="547.534" type="curve" smooth="yes"/>
      <point x="240.808" y="521.036"/>
      <point x="206.082" y="479.407"/>
      <point x="183.137" y="433.599" type="curve" smooth="yes"/>
      <point x="180.531" y="428.396"/>
      <point x="177.695" y="423.765"/>
      <point x="176.59" y="422.904" type="curve" smooth="yes"/>
      <point x="174.735" y="421.463"/>
      <point x="173.844" y="421.388"/>
      <point x="158.671" y="421.388" type="curve" smooth="yes"/>
      <point x="143.931" y="421.388"/>
      <point x="142.519" y="421.499"/>
      <point x="140.318" y="422.841" type="curve" smooth="yes"/>
      <point x="137.492" y="424.563"/>
      <point x="135.549" y="428.685"/>
      <point x="136.065" y="431.864" type="curve" smooth="yes"/>
      <point x="136.408" y="433.981"/>
      <point x="242.329" y="659.032"/>
      <point x="244.648" y="662.572" type="curve" smooth="yes"/>
      <point x="245.261" y="663.507"/>
      <point x="246.749" y="664.851"/>
    </contour>
  </outline>
</glyph>
<glyph name="eight" format="2">
  <advance width="511"/>
  <unicode hex="0038"/>
  <outline>
    <contour>
      <point x="396" y="664" type="curve" smooth="yes"/>
      <point x="409" y="666"/>
      <point x="437" y="666"/>
      <point x="449" y="664" type="curve" smooth="yes"/>
      <point x="476" y="659"/>
      <point x="501" y="647"/>
      <point x="518" y="631" type="curve" smooth="yes"/>
      <point x="536" y="615"/>
      <point x="548" y="593"/>
      <point x="553" y="568" type="curve" smooth="yes"/>
      <point x="555" y="557"/>
      <point x="554" y="533"/>
      <point x="551" y="521" type="curve" smooth="yes"/>
      <point x="547" y="502"/>
      <point x="538" y="481"/>
      <point x="527" y="464" type="curve" smooth="yes"/>
      <point x="504" y="427"/>
      <point x="465" y="395"/>
      <point x="411" y="366" type="curve" smooth="yes"/>
      <point x="398" y="360" type="line"/>
      <point x="400" y="358" type="line" smooth="yes"/>
      <point x="401" y="357"/>
      <point x="414" y="346"/>
      <point x="428" y="334" type="curve" smooth="yes"/>
      <point x="461" y="306"/>
      <point x="468" y="298"/>
      <point x="479" y="276" type="curve" smooth="yes"/>
      <point x="508" y="217"/>
      <point x="494" y="138"/>
      <point x="443" y="75" type="curve" smooth="yes"/>
      <point x="434" y="63"/>
      <point x="414" y="44"/>
      <point x="403" y="35" type="curve" smooth="yes"/>
      <point x="372" y="10"/>
      <point x="330" y="-10"/>
      <point x="295" y="-17" type="curve" smooth="yes"/>
      <point x="249" y="-27"/>
      <point x="207" y="-22"/>
      <point x="170" y="-3" type="curve" smooth="yes"/>
      <point x="126" y="19"/>
      <point x="100" y="60"/>
      <point x="97" y="108" type="curve" smooth="yes"/>
      <point x="96" y="142"/>
      <point x="108" y="182"/>
      <point x="131" y="217" type="curve" smooth="yes"/>
      <point x="160" y="261"/>
      <point x="205" y="298"/>
      <point x="268" y="329" type="curve" smooth="yes"/>
      <point x="285" y="338" type="line"/>
      <point x="271" y="349" type="line" smooth="yes"/>
      <point x="243" y="373"/>
      <point x="233" y="384"/>
      <point x="224" y="402" type="curve" smooth="yes"/>
      <point x="214" y="421"/>
      <point x="211" y="438"/>
      <point x="211" y="463" type="curve" smooth="yes"/>
      <point x="211" y="486"/>
      <point x="214" y="505"/>
      <point x="224" y="528" type="curve" smooth="yes"/>
      <point x="253" y="599"/>
      <point x="322" y="654"/>
    </contour>
    <contour>
      <point x="441" y="638" type="curve" smooth="yes"/>
      <point x="434" y="639"/>
      <point x="411" y="640"/>
      <point x="405" y="639" type="curve" smooth="yes"/>
      <point x="361" y="633"/>
      <point x="330" y="618"/>
      <point x="302" y="588" type="curve" smooth="yes"/>
      <point x="271" y="556"/>
      <point x="259" y="515"/>
      <point x="270" y="482" type="curve" smooth="yes"/>
      <point x="273" y="473"/>
      <point x="277" y="468"/>
      <point x="283" y="460" type="curve" smooth="yes"/>
      <point x="287" y="455"/>
      <point x="325" y="422"/>
      <point x="375" y="379" type="curve"/>
      <point x="378" y="377" type="line"/>
      <point x="384" y="380" type="line" smooth="yes"/>
      <point x="387" y="381"/>
      <point x="396" y="387"/>
      <point x="404" y="392" type="curve" smooth="yes"/>
      <point x="438" y="415"/>
      <point x="462" y="438"/>
      <point x="481" y="467" type="curve" smooth="yes"/>
      <point x="512" y="513"/>
      <point x="517" y="566"/>
      <point x="494" y="601" type="curve" smooth="yes"/>
      <point x="482" y="620"/>
      <point x="463" y="633"/>
    </contour>
    <contour>
      <point x="359" y="274" type="curve" smooth="yes"/>
      <point x="332" y="298"/>
      <point x="308" y="317"/>
      <point x="307" y="319" type="curve" smooth="yes"/>
      <point x="304" y="321" type="line"/>
      <point x="292" y="314" type="line" smooth="yes"/>
      <point x="265" y="300"/>
      <point x="239" y="280"/>
      <point x="218" y="260" type="curve" smooth="yes"/>
      <point x="149" y="190"/>
      <point x="128" y="102"/>
      <point x="168" y="48" type="curve" smooth="yes"/>
      <point x="198" y="8"/>
      <point x="252" y="-4"/>
      <point x="313" y="18" type="curve" smooth="yes"/>
      <point x="365" y="36"/>
      <point x="410" y="79"/>
      <point x="426" y="126" type="curve" smooth="yes"/>
      <point x="432" y="141"/>
      <point x="433" y="151"/>
      <point x="433" y="168" type="curve" smooth="yes"/>
      <point x="433" y="184"/>
      <point x="431" y="196"/>
      <point x="424" y="209" type="curve" smooth="yes"/>
      <point x="416" y="225"/>
      <point x="412" y="229"/>
    </contour>
  </outline>
</glyph>
<glyph name="nine" format="2">
  <advance width="511"/>
  <unicode hex="0039"/>
  <outline>
    <contour>
      <point x="407" y="665" type="curve" smooth="yes"/>
      <point x="408" y="666"/>
      <point x="417" y="666"/>
      <point x="427" y="665" type="curve" smooth="yes"/>
      <point x="446" y="665"/>
      <point x="457" y="663"/>
      <point x="473" y="656" type="curve" smooth="yes"/>
      <point x="504" y="643"/>
      <point x="529" y="614"/>
      <point x="540" y="579" type="curve" smooth="yes"/>
      <point x="555" y="535"/>
      <point x="557" y="478"/>
      <point x="546" y="412" type="curve" smooth="yes"/>
      <point x="541" y="379"/>
      <point x="531" y="332"/>
      <point x="521" y="299" type="curve" smooth="yes"/>
      <point x="499" y="220"/>
      <point x="461" y="148"/>
      <point x="410" y="89" type="curve" smooth="yes"/>
      <point x="398" y="75"/>
      <point x="371" y="48"/>
      <point x="358" y="37" type="curve" smooth="yes"/>
      <point x="306" y="-4"/>
      <point x="255" y="-24"/>
      <point x="205" y="-22" type="curve" smooth="yes"/>
      <point x="181" y="-21"/>
      <point x="163" y="-17"/>
      <point x="145" y="-8" type="curve" smooth="yes"/>
      <point x="136" y="-3"/>
      <point x="133" y="-1"/>
      <point x="125" y="6" type="curve" smooth="yes"/>
      <point x="118" y="14"/>
      <point x="116" y="17"/>
      <point x="112" y="24" type="curve" smooth="yes"/>
      <point x="106" y="36"/>
      <point x="105" y="44"/>
      <point x="105" y="59" type="curve" smooth="yes"/>
      <point x="105" y="89"/>
      <point x="115" y="109"/>
      <point x="135" y="119" type="curve" smooth="yes"/>
      <point x="157" y="129"/>
      <point x="180" y="123"/>
      <point x="188" y="105" type="curve" smooth="yes"/>
      <point x="196" y="87"/>
      <point x="185" y="59"/>
      <point x="165" y="48" type="curve" smooth="yes"/>
      <point x="158" y="45"/>
      <point x="148" y="42"/>
      <point x="143" y="42" type="curve" smooth="yes"/>
      <point x="141" y="42"/>
      <point x="140" y="42"/>
      <point x="140" y="41" type="curve" smooth="yes"/>
      <point x="140" y="41"/>
      <point x="141" y="38"/>
      <point x="143" y="36" type="curve" smooth="yes"/>
      <point x="149" y="27"/>
      <point x="158" y="19"/>
      <point x="170" y="15" type="curve" smooth="yes"/>
      <point x="184" y="9"/>
      <point x="212" y="6"/>
      <point x="229" y="8" type="curve" smooth="yes"/>
      <point x="287" y="16"/>
      <point x="349" y="73"/>
      <point x="390" y="157" type="curve" smooth="yes"/>
      <point x="401" y="182"/>
      <point x="412" y="209"/>
      <point x="421" y="240" type="curve" smooth="yes"/>
      <point x="426" y="257"/>
      <point x="439" y="304"/>
      <point x="439" y="305" type="curve" smooth="yes"/>
      <point x="439" y="306"/>
      <point x="436" y="302"/>
      <point x="433" y="297" type="curve" smooth="yes"/>
      <point x="398" y="246"/>
      <point x="352" y="218"/>
      <point x="304" y="218" type="curve" smooth="yes"/>
      <point x="281" y="218"/>
      <point x="260" y="222"/>
      <point x="243" y="231" type="curve" smooth="yes"/>
      <point x="230" y="237"/>
      <point x="222" y="244"/>
      <point x="211" y="254" type="curve" smooth="yes"/>
      <point x="201" y="265"/>
      <point x="193" y="278"/>
      <point x="183" y="297" type="curve" smooth="yes"/>
      <point x="175" y="313"/>
      <point x="171" y="325"/>
      <point x="168" y="341" type="curve" smooth="yes"/>
      <point x="166" y="351"/>
      <point x="166" y="355"/>
      <point x="166" y="376" type="curve" smooth="yes"/>
      <point x="166" y="402"/>
      <point x="167" y="412"/>
      <point x="174" y="441" type="curve" smooth="yes"/>
      <point x="190" y="507"/>
      <point x="217" y="553"/>
      <point x="266" y="597" type="curve" smooth="yes"/>
      <point x="291" y="619"/>
      <point x="309" y="632"/>
      <point x="331" y="644" type="curve" smooth="yes"/>
      <point x="353" y="655"/>
      <point x="374" y="661"/>
      <point x="395" y="664" type="curve" smooth="yes"/>
      <point x="399" y="665"/>
      <point x="405" y="665"/>
    </contour>
    <contour>
      <point x="436" y="639" type="curve" smooth="yes"/>
      <point x="421" y="642"/>
      <point x="398" y="639"/>
      <point x="379" y="632" type="curve" smooth="yes"/>
      <point x="346" y="619"/>
      <point x="311" y="583"/>
      <point x="291" y="542" type="curve" smooth="yes"/>
      <point x="279" y="517"/>
      <point x="272" y="495"/>
      <point x="257" y="437" type="curve" smooth="yes"/>
      <point x="243" y="377"/>
      <point x="239" y="354"/>
      <point x="239" y="328" type="curve" smooth="yes"/>
      <point x="238" y="307"/>
      <point x="240" y="298"/>
      <point x="246" y="284" type="curve" smooth="yes"/>
      <point x="251" y="269"/>
      <point x="258" y="260"/>
      <point x="268" y="252" type="curve" smooth="yes"/>
      <point x="288" y="237"/>
      <point x="326" y="237"/>
      <point x="356" y="253" type="curve" smooth="yes"/>
      <point x="402" y="277"/>
      <point x="442" y="337"/>
      <point x="464" y="413" type="curve" smooth="yes"/>
      <point x="471" y="436"/>
      <point x="478" y="471"/>
      <point x="484" y="508" type="curve" smooth="yes"/>
      <point x="487" y="531"/>
      <point x="488" y="566"/>
      <point x="485" y="580" type="curve" smooth="yes"/>
      <point x="481" y="598"/>
      <point x="473" y="613"/>
      <point x="463" y="624" type="curve" smooth="yes"/>
      <point x="454" y="632"/>
      <point x="446" y="636"/>
    </contour>
  </outline>
</glyph>
<glyph name="colon" format="2">
  <advance width="307"/>
  <unicode hex="003A"/>
  <outline>
    <contour>
      <point x="246" y="429" type="curve" smooth="yes"/>
      <point x="262" y="433"/>
      <point x="279" y="429"/>
      <point x="290" y="419" type="curve" smooth="yes"/>
      <point x="297" y="413"/>
      <point x="303" y="398"/>
      <point x="303" y="389" type="curve" smooth="yes"/>
      <point x="303" y="381"/>
      <point x="300" y="371"/>
      <point x="296" y="362" type="curve" smooth="yes"/>
      <point x="292" y="355"/>
      <point x="290" y="352"/>
      <point x="283" y="344" type="curve" smooth="yes"/>
      <point x="275" y="337"/>
      <point x="272" y="335"/>
      <point x="265" y="331" type="curve" smooth="yes"/>
      <point x="246" y="322"/>
      <point x="231" y="322"/>
      <point x="214" y="330" type="curve" smooth="yes"/>
      <point x="198" y="338"/>
      <point x="190" y="358"/>
      <point x="195" y="379" type="curve" smooth="yes"/>
      <point x="196" y="387"/>
      <point x="203" y="399"/>
      <point x="208" y="406" type="curve" smooth="yes"/>
      <point x="217" y="417"/>
      <point x="232" y="426"/>
    </contour>
    <contour>
      <point x="165" y="105" type="curve" smooth="yes"/>
      <point x="181" y="109"/>
      <point x="198" y="105"/>
      <point x="209" y="95" type="curve" smooth="yes"/>
      <point x="216" y="89"/>
      <point x="222" y="74"/>
      <point x="222" y="65" type="curve" smooth="yes"/>
      <point x="222" y="57"/>
      <point x="219" y="47"/>
      <point x="215" y="38" type="curve" smooth="yes"/>
      <point x="211" y="31"/>
      <point x="209" y="28"/>
      <point x="202" y="20" type="curve" smooth="yes"/>
      <point x="194" y="13"/>
      <point x="191" y="11"/>
      <point x="184" y="7" type="curve" smooth="yes"/>
      <point x="165" y="-2"/>
      <point x="150" y="-2"/>
      <point x="133" y="6" type="curve" smooth="yes"/>
      <point x="117" y="14"/>
      <point x="109" y="34"/>
      <point x="114" y="55" type="curve" smooth="yes"/>
      <point x="115" y="63"/>
      <point x="122" y="75"/>
      <point x="127" y="82" type="curve" smooth="yes"/>
      <point x="136" y="93"/>
      <point x="151" y="102"/>
    </contour>
  </outline>
</glyph>
<glyph name="semicolon" format="2">
  <advance width="307"/>
  <unicode hex="003B"/>
  <outline>
    <contour>
      <point x="72" y="-181" type="curve" smooth="yes"/>
      <point x="72" y="-172"/>
      <point x="156" y="-112"/>
      <point x="186" y="-2" type="curve" smooth="yes"/>
      <point x="187" y="2"/>
      <point x="188" y="6"/>
      <point x="189" y="7" type="curve" smooth="yes"/>
      <point x="189" y="11"/>
      <point x="172" y="-5"/>
      <point x="143" y="2" type="curve" smooth="yes"/>
      <point x="130" y="5"/>
      <point x="121" y="12"/>
      <point x="116" y="23" type="curve" smooth="yes"/>
      <point x="95" y="71"/>
      <point x="156" y="122"/>
      <point x="195" y="103" type="curve"/>
      <point x="241" y="92"/>
      <point x="221" y="-62"/>
      <point x="109" y="-174" type="curve" smooth="yes"/>
      <point x="92" y="-190"/>
      <point x="87" y="-194"/>
      <point x="83" y="-194" type="curve" smooth="yes"/>
      <point x="78" y="-194"/>
      <point x="72" y="-187"/>
    </contour>
    <contour>
      <point x="195" y="379" type="curve" smooth="yes"/>
      <point x="199" y="414"/>
      <point x="256" y="450"/>
      <point x="290" y="419" type="curve" smooth="yes"/>
      <point x="297" y="413"/>
      <point x="303" y="398"/>
      <point x="303" y="389" type="curve" smooth="yes"/>
      <point x="303" y="353"/>
      <point x="260" y="308"/>
      <point x="214" y="330" type="curve" smooth="yes"/>
      <point x="198" y="338"/>
      <point x="190" y="358"/>
    </contour>
  </outline>
</glyph>
<glyph name="less" format="2">
  <advance width="766"/>
  <unicode hex="003C"/>
  <outline>
    <contour>
      <point x="474" y="395" type="curve" smooth="yes"/>
      <point x="651" y="474"/>
      <point x="781" y="531"/>
      <point x="783" y="531" type="curve" smooth="yes"/>
      <point x="790" y="531"/>
      <point x="796" y="523"/>
      <point x="793" y="516" type="curve" smooth="yes"/>
      <point x="792" y="514"/>
      <point x="791" y="511"/>
      <point x="790" y="511" type="curve" smooth="yes"/>
      <point x="788" y="510"/>
      <point x="656" y="451"/>
      <point x="496" y="379" type="curve" smooth="yes"/>
      <point x="335" y="308"/>
      <point x="203" y="249"/>
      <point x="203" y="249" type="curve" smooth="yes"/>
      <point x="202" y="249"/>
      <point x="304" y="190"/>
      <point x="429" y="119" type="curve" smooth="yes"/>
      <point x="668" y="-18"/>
      <point x="659" y="-13"/>
      <point x="659" y="-19" type="curve" smooth="yes"/>
      <point x="659" y="-26"/>
      <point x="653" y="-32"/>
      <point x="647" y="-31" type="curve" smooth="yes"/>
      <point x="642" y="-30"/>
      <point x="168" y="241"/>
      <point x="166" y="244" type="curve" smooth="yes"/>
      <point x="164" y="247"/>
      <point x="164" y="254"/>
      <point x="167" y="257" type="curve" smooth="yes"/>
      <point x="168" y="259"/>
      <point x="242" y="292"/>
    </contour>
  </outline>
</glyph>
<glyph name="equal" format="2">
  <advance width="767"/>
  <unicode hex="003D"/>
  <outline>
    <contour>
      <point x="176" y="365" type="curve" smooth="yes"/>
      <point x="179" y="367"/>
      <point x="190" y="367"/>
      <point x="470" y="367" type="curve" smooth="yes"/>
      <point x="761" y="367" type="line"/>
      <point x="766" y="364" type="line" smooth="yes"/>
      <point x="780" y="357"/>
      <point x="780" y="337"/>
      <point x="766" y="330" type="curve" smooth="yes"/>
      <point x="761" y="327" type="line"/>
      <point x="470" y="327" type="line" smooth="yes"/>
      <point x="210" y="327"/>
      <point x="180" y="327"/>
      <point x="176" y="329" type="curve" smooth="yes"/>
      <point x="160" y="335"/>
      <point x="160" y="358"/>
    </contour>
    <contour>
      <point x="126" y="170" type="curve" smooth="yes"/>
      <point x="131" y="173" type="line"/>
      <point x="422" y="173" type="line" smooth="yes"/>
      <point x="702" y="173"/>
      <point x="713" y="173"/>
      <point x="717" y="171" type="curve" smooth="yes"/>
      <point x="732" y="164"/>
      <point x="732" y="142"/>
      <point x="717" y="135" type="curve" smooth="yes"/>
      <point x="713" y="133"/>
      <point x="702" y="133"/>
      <point x="422" y="133" type="curve" smooth="yes"/>
      <point x="131" y="133" type="line"/>
      <point x="126" y="136" type="line" smooth="yes"/>
      <point x="112" y="143"/>
      <point x="112" y="163"/>
    </contour>
  </outline>
</glyph>
<glyph name="greater" format="2">
  <advance width="766"/>
  <unicode hex="003E"/>
  <outline>
    <contour>
      <point x="241.835" y="533.34" type="curve" smooth="yes"/>
      <point x="245.015" y="534.297"/>
      <point x="249.076" y="534.196"/>
      <point x="251.662" y="533.097" type="curve" smooth="yes"/>
      <point x="257.515" y="530.607"/>
      <point x="720.902" y="261.443"/>
      <point x="722.366" y="259.682" type="curve" smooth="yes"/>
      <point x="723.263" y="258.604"/>
      <point x="724.49" y="256.033"/>
      <point x="725.108" y="253.938" type="curve" smooth="yes"/>
      <point x="726.127" y="250.489"/>
      <point x="726.123" y="249.783"/>
      <point x="725.072" y="246.171" type="curve" smooth="yes"/>
      <point x="724.357" y="243.714"/>
      <point x="723.006" y="241.29"/>
      <point x="721.532" y="239.822" type="curve" smooth="yes"/>
      <point x="718.354" y="236.657"/>
      <point x="118.569" y="-32.9424"/>
      <point x="113.295" y="-33.5762" type="curve" smooth="yes"/>
      <point x="99.8555" y="-35.1924"/>
      <point x="91.8643" y="-18.6367"/>
      <point x="101.413" y="-8.95996" type="curve" smooth="yes"/>
      <point x="104.144" y="-6.19238"/>
      <point x="129.732" y="5.44824"/>
      <point x="391.438" y="122.977" type="curve" smooth="yes"/>
      <point x="549.313" y="193.877"/>
      <point x="678.387" y="251.928"/>
      <point x="678.287" y="251.987" type="curve" smooth="yes"/>
      <point x="678.188" y="252.047"/>
      <point x="579.407" y="309.267"/>
      <point x="458.815" y="379.118" type="curve" smooth="yes"/>
      <point x="338.223" y="448.971"/>
      <point x="238.45" y="506.937"/>
      <point x="237.139" y="507.908" type="curve" smooth="yes"/>
      <point x="230.053" y="513.156"/>
      <point x="230.13" y="525.362"/>
      <point x="237.283" y="530.807" type="curve" smooth="yes"/>
      <point x="238.656" y="531.852"/>
      <point x="240.737" y="533.01"/>
    </contour>
  </outline>
</glyph>
<glyph name="question" format="2">
  <advance width="510"/>
  <unicode hex="003F"/>
  <outline>
    <contour>
      <point x="269.509" y="118.667" type="curve" smooth="yes"/>
      <point x="282.298" y="121.391"/>
      <point x="294.386" y="120.034"/>
      <point x="305.636" y="114.614" type="curve" smooth="yes"/>
      <point x="317.727" y="108.789"/>
      <point x="326.413" y="98.1211"/>
      <point x="330.008" y="84.6816" type="curve" smooth="yes"/>
      <point x="331.845" y="77.8154"/>
      <point x="331.655" y="64.5234"/>
      <point x="329.61" y="56.8643" type="curve" smooth="yes"/>
      <point x="326.524" y="45.3037"/>
      <point x="318.332" y="31.4541"/>
      <point x="309.393" y="22.6846" type="curve" smooth="yes"/>
      <point x="300.182" y="13.6475"/>
      <point x="286.055" y="5.42383"/>
      <point x="274.205" y="2.19824" type="curve" smooth="yes"/>
      <point x="265.535" y="-0.162109"/>
      <point x="250.291" y="-0.161133"/>
      <point x="242.774" y="2.2002" type="curve" smooth="yes"/>
      <point x="225.217" y="7.71582"/>
      <point x="213.84" y="19.6709"/>
      <point x="209.8" y="36.8496" type="curve" smooth="yes"/>
      <point x="208.04" y="44.3301"/>
      <point x="208.758" y="57.876"/>
      <point x="211.339" y="65.8955" type="curve" smooth="yes"/>
      <point x="219.955" y="92.6729"/>
      <point x="242.196" y="112.85"/>
    </contour>
    <contour>
      <point x="411.85" y="715.714" type="curve" smooth="yes"/>
      <point x="433.599" y="718.343"/>
      <point x="454.025" y="716.405"/>
      <point x="473.266" y="709.888" type="curve" smooth="yes"/>
      <point x="481.214" y="707.195"/>
      <point x="495.89" y="699.424"/>
      <point x="502.891" y="694.199" type="curve" smooth="yes"/>
      <point x="511.009" y="688.142"/>
      <point x="522.438" y="676.229"/>
      <point x="528.036" y="667.991" type="curve" smooth="yes"/>
      <point x="536.938" y="654.893"/>
      <point x="543.919" y="637.934"/>
      <point x="547.342" y="621.099" type="curve" smooth="yes"/>
      <point x="555.198" y="582.455"/>
      <point x="546.594" y="536.199"/>
      <point x="523.9" y="495.087" type="curve" smooth="yes"/>
      <point x="518.955" y="486.127"/>
      <point x="507.965" y="469.644"/>
      <point x="501.74" y="461.85" type="curve" smooth="yes"/>
      <point x="495.492" y="454.026"/>
      <point x="478.396" y="436.533"/>
      <point x="470.376" y="429.756" type="curve" smooth="yes"/>
      <point x="466.996" y="426.9"/>
      <point x="432.876" y="400.601"/>
      <point x="394.509" y="371.279" type="curve" smooth="yes"/>
      <point x="345.737" y="334.005"/>
      <point x="323.251" y="316.385"/>
      <point x="319.684" y="312.645" type="curve" smooth="yes"/>
      <point x="311.244" y="303.797"/>
      <point x="304.942" y="291.329"/>
      <point x="301.241" y="276.156" type="curve" smooth="yes"/>
      <point x="299.89" y="270.617"/>
      <point x="299.561" y="267.269"/>
      <point x="299.537" y="258.815" type="curve" smooth="yes"/>
      <point x="299.504" y="246.749"/>
      <point x="300.644" y="241.881"/>
      <point x="304.56" y="237.355" type="curve" smooth="yes"/>
      <point x="306.937" y="234.609" type="line"/>
      <point x="313.367" y="234.677" type="line" smooth="yes"/>
      <point x="340.773" y="234.964"/>
      <point x="370.541" y="260.621"/>
      <point x="381.19" y="293.136" type="curve" smooth="yes"/>
      <point x="385.332" y="305.78"/>
      <point x="385.332" y="305.78"/>
      <point x="404.624" y="305.78" type="curve" smooth="yes"/>
      <point x="420.882" y="305.78"/>
      <point x="423.126" y="305.301"/>
      <point x="425.572" y="301.301" type="curve" smooth="yes"/>
      <point x="427.594" y="297.994"/>
      <point x="427.425" y="294.653"/>
      <point x="424.82" y="286.416" type="curve" smooth="yes"/>
      <point x="412.889" y="248.681"/>
      <point x="379.263" y="215.609"/>
      <point x="339.957" y="202.951" type="curve" smooth="yes"/>
      <point x="327.602" y="198.973"/>
      <point x="320.521" y="197.823"/>
      <point x="308.165" y="197.789" type="curve" smooth="yes"/>
      <point x="298.771" y="197.764"/>
      <point x="296.604" y="197.986"/>
      <point x="291.907" y="199.453" type="curve" smooth="yes"/>
      <point x="283.743" y="202.005"/>
      <point x="277.23" y="205.755"/>
      <point x="271.243" y="211.351" type="curve" smooth="yes"/>
      <point x="262.315" y="219.694"/>
      <point x="256.115" y="230.419"/>
      <point x="252.573" y="243.642" type="curve" smooth="yes"/>
      <point x="241.641" y="284.465"/>
      <point x="260.017" y="341.62"/>
      <point x="294.653" y="374.523" type="curve" smooth="yes"/>
      <point x="298.15" y="377.846"/>
      <point x="330.744" y="403.306"/>
      <point x="367.088" y="431.105" type="curve" smooth="yes"/>
      <point x="403.432" y="458.905"/>
      <point x="436.903" y="484.635"/>
      <point x="441.474" y="488.286" type="curve" smooth="yes"/>
      <point x="470.189" y="511.227"/>
      <point x="490.024" y="542.124"/>
      <point x="497.374" y="575.361" type="curve" smooth="yes"/>
      <point x="507.023" y="619.003"/>
      <point x="493.132" y="656.368"/>
      <point x="461.344" y="672.275" type="curve" smooth="yes"/>
      <point x="437.396" y="684.259"/>
      <point x="403.251" y="682.07"/>
      <point x="371.604" y="666.523" type="curve" smooth="yes"/>
      <point x="328.245" y="645.223"/>
      <point x="287.182" y="596.46"/>
      <point x="260.52" y="534.609" type="curve" smooth="yes"/>
      <point x="256.72" y="525.795" type="line"/>
      <point x="263.006" y="524.236" type="line" smooth="yes"/>
      <point x="271.243" y="522.194"/>
      <point x="276.136" y="519.609"/>
      <point x="281.503" y="514.466" type="curve" smooth="yes"/>
      <point x="291.326" y="505.052"/>
      <point x="294.39" y="491.04"/>
      <point x="290.117" y="475.072" type="curve" smooth="yes"/>
      <point x="285.168" y="456.575"/>
      <point x="272.896" y="442.432"/>
      <point x="255.563" y="435.248" type="curve" smooth="yes"/>
      <point x="234.249" y="426.415"/>
      <point x="210.753" y="431.434"/>
      <point x="200.704" y="446.965" type="curve" smooth="yes"/>
      <point x="193.858" y="457.547"/>
      <point x="193.095" y="467.774"/>
      <point x="197.812" y="485.693" type="curve" smooth="yes"/>
      <point x="210.003" y="532.009"/>
      <point x="232.993" y="579.685"/>
      <point x="261.398" y="617.558" type="curve" smooth="yes"/>
      <point x="274.241" y="634.682"/>
      <point x="295.261" y="656.903"/>
      <point x="310.404" y="669.364" type="curve" smooth="yes"/>
      <point x="341.382" y="694.855"/>
      <point x="378.107" y="711.636"/>
    </contour>
  </outline>
</glyph>
<glyph name="at" format="2">
  <advance width="766"/>
  <unicode hex="0040"/>
  <outline>
    <contour>
      <point x="538.656" y="704.859" type="curve" smooth="yes"/>
      <point x="546.944" y="705.517"/>
      <point x="578.035" y="704.667"/>
      <point x="586.705" y="703.548" type="curve" smooth="yes"/>
      <point x="613.584" y="700.078"/>
      <point x="637.043" y="692.88"/>
      <point x="661.199" y="680.692" type="curve" smooth="yes"/>
      <point x="680.347" y="671.031"/>
      <point x="696.743" y="659.357"/>
      <point x="712.355" y="644.269" type="curve" smooth="yes"/>
      <point x="734.498" y="622.87"/>
      <point x="751.59" y="597.76"/>
      <point x="764.472" y="567.702" type="curve" smooth="yes"/>
      <point x="789.297" y="509.776"/>
      <point x="794.661" y="439.812"/>
      <point x="779.899" y="366.474" type="curve" smooth="yes"/>
      <point x="775.567" y="344.954"/>
      <point x="762.134" y="294.726"/>
      <point x="754.236" y="270.521" type="curve" smooth="yes"/>
      <point x="725.569" y="182.659"/>
      <point x="690.872" y="139.15"/>
      <point x="640.823" y="128.305" type="curve" smooth="yes"/>
      <point x="633.165" y="126.646"/>
      <point x="612.728" y="126.437"/>
      <point x="605.13" y="127.94" type="curve" smooth="yes"/>
      <point x="579.985" y="132.918"/>
      <point x="561.324" y="146.455"/>
      <point x="552.109" y="166.401" type="curve" smooth="yes"/>
      <point x="549.675" y="171.672"/>
      <point x="548.747" y="174.639"/>
      <point x="546.373" y="184.754" type="curve" smooth="yes"/>
      <point x="545.882" y="186.85" type="line"/>
      <point x="540.102" y="181.562" type="line" smooth="yes"/>
      <point x="528.229" y="170.698"/>
      <point x="514.812" y="160.736"/>
      <point x="500.65" y="152.267" type="curve" smooth="yes"/>
      <point x="451.59" y="122.926"/>
      <point x="401.446" y="118.624"/>
      <point x="357.226" y="139.962" type="curve" smooth="yes"/>
      <point x="320.881" y="157.499"/>
      <point x="294.923" y="191.257"/>
      <point x="283.612" y="235.693" type="curve" smooth="yes"/>
      <point x="273.08" y="277.077"/>
      <point x="276.314" y="324.566"/>
      <point x="293.02" y="373.771" type="curve" smooth="yes"/>
      <point x="327.949" y="476.662"/>
      <point x="415.561" y="556.626"/>
      <point x="504.769" y="567.039" type="curve" smooth="yes"/>
      <point x="517.63" y="568.54"/>
      <point x="534.767" y="568.049"/>
      <point x="545.015" y="565.886" type="curve" smooth="yes"/>
      <point x="584.725" y="557.503"/>
      <point x="615.548" y="530.347"/>
      <point x="631.853" y="489.379" type="curve" smooth="yes"/>
      <point x="635.332" y="480.636" type="line"/>
      <point x="655.997" y="480.636" type="line" smooth="yes"/>
      <point x="675.361" y="480.636"/>
      <point x="676.812" y="480.544"/>
      <point x="679.046" y="479.183" type="curve" smooth="yes"/>
      <point x="681.575" y="477.641"/>
      <point x="684.249" y="473.858"/>
      <point x="684.249" y="471.821" type="curve" smooth="yes"/>
      <point x="684.249" y="471.145"/>
      <point x="669.152" y="410.043"/>
      <point x="650.687" y="335.982" type="curve" smooth="yes"/>
      <point x="632.221" y="261.922"/>
      <point x="616.6" y="198.123"/>
      <point x="615.959" y="194.147" type="curve" smooth="yes"/>
      <point x="613.71" y="180.202"/>
      <point x="614.587" y="166.263"/>
      <point x="618.037" y="161.127" type="curve" smooth="yes"/>
      <point x="620.77" y="157.06"/>
      <point x="623.627" y="156.055"/>
      <point x="631.142" y="156.521" type="curve" smooth="yes"/>
      <point x="638.801" y="156.996"/>
      <point x="643.481" y="158.16"/>
      <point x="650" y="161.211" type="curve" smooth="yes"/>
      <point x="666.82" y="169.082"/>
      <point x="681.877" y="186.922"/>
      <point x="695.481" y="215.102" type="curve" smooth="yes"/>
      <point x="708.761" y="242.606"/>
      <point x="719.159" y="274.639"/>
      <point x="734.088" y="334.032" type="curve" smooth="yes"/>
      <point x="746.802" y="384.609"/>
      <point x="750.342" y="409.33"/>
      <point x="750.271" y="447.037" type="curve" smooth="yes"/>
      <point x="750.229" y="468.931"/>
      <point x="749.229" y="481.28"/>
      <point x="745.938" y="500.506" type="curve" smooth="yes"/>
      <point x="733.659" y="572.254"/>
      <point x="695.234" y="628.378"/>
      <point x="639.379" y="656.149" type="curve" smooth="yes"/>
      <point x="620.031" y="665.769"/>
      <point x="600.361" y="671.564"/>
      <point x="577.312" y="674.438" type="curve" smooth="yes"/>
      <point x="566.222" y="675.821"/>
      <point x="538.078" y="675.589"/>
      <point x="526.373" y="674.018" type="curve" smooth="yes"/>
      <point x="463.15" y="665.53"/>
      <point x="401.221" y="635.008"/>
      <point x="345.087" y="584.669" type="curve" smooth="yes"/>
      <point x="274.762" y="521.603"/>
      <point x="223.215" y="435.91"/>
      <point x="200.58" y="344.437" type="curve" smooth="yes"/>
      <point x="176.104" y="245.521"/>
      <point x="188.545" y="154.545"/>
      <point x="235.056" y="92.3408" type="curve" smooth="yes"/>
      <point x="243.592" y="80.9248"/>
      <point x="260.699" y="63.8145"/>
      <point x="272.037" y="55.3525" type="curve" smooth="yes"/>
      <point x="297.131" y="36.626"/>
      <point x="325.361" y="25.2686"/>
      <point x="358.382" y="20.6162" type="curve" smooth="yes"/>
      <point x="369.327" y="19.0742"/>
      <point x="405.636" y="18.8799"/>
      <point x="423.41" y="20.2686" type="curve" smooth="yes"/>
      <point x="499.639" y="26.2236"/>
      <point x="570.337" y="44.4014"/>
      <point x="643.28" y="76.8018" type="curve" smooth="yes"/>
      <point x="656.142" y="82.5146" type="line"/>
      <point x="677.602" y="82.5146" type="line" smooth="yes"/>
      <point x="697.037" y="82.5146"/>
      <point x="699.292" y="82.3916"/>
      <point x="701.518" y="81.209" type="curve" smooth="yes"/>
      <point x="704.843" y="79.4414"/>
      <point x="706.824" y="75.7227"/>
      <point x="706.441" y="71.9648" type="curve" smooth="yes"/>
      <point x="705.805" y="65.6973"/>
      <point x="704.624" y="64.9688"/>
      <point x="673.771" y="51.7988" type="curve" smooth="yes"/>
      <point x="592.096" y="16.9316"/>
      <point x="511.199" y="-3.00977"/>
      <point x="425.578" y="-9.38379" type="curve" smooth="yes"/>
      <point x="406.647" y="-10.793"/>
      <point x="363.706" y="-10.583"/>
      <point x="352.312" y="-9.02539" type="curve" smooth="yes"/>
      <point x="312.717" y="-3.61328"/>
      <point x="277.553" y="10.249"/>
      <point x="247.832" y="32.1621" type="curve" smooth="yes"/>
      <point x="199.904" y="67.499"/>
      <point x="166.899" y="124.205"/>
      <point x="155.443" y="190.896" type="curve" smooth="yes"/>
      <point x="151.778" y="212.235"/>
      <point x="151.373" y="217.991"/>
      <point x="151.373" y="248.699" type="curve" smooth="yes"/>
      <point x="151.373" y="279.985"/>
      <point x="151.848" y="286.754"/>
      <point x="155.725" y="310.766" type="curve" smooth="yes"/>
      <point x="171.043" y="405.636"/>
      <point x="216.537" y="497.433"/>
      <point x="284.53" y="570.665" type="curve" smooth="yes"/>
      <point x="357.785" y="649.564"/>
      <point x="449.061" y="697.764"/>
    </contour>
    <contour>
      <point x="531.937" y="537.374" type="curve" smooth="yes"/>
      <point x="517.112" y="539.626"/>
      <point x="504.913" y="538.142"/>
      <point x="489.523" y="532.213" type="curve" smooth="yes"/>
      <point x="460.438" y="521.009"/>
      <point x="428.774" y="492.052"/>
      <point x="402.552" y="452.674" type="curve" smooth="yes"/>
      <point x="375.354" y="411.83"/>
      <point x="355.659" y="358.526"/>
      <point x="348.679" y="306.864" type="curve" smooth="yes"/>
      <point x="342.04" y="257.731"/>
      <point x="349.089" y="213.283"/>
      <point x="367.986" y="185.115" type="curve" smooth="yes"/>
      <point x="372.397" y="178.54"/>
      <point x="381.716" y="169.117"/>
      <point x="387.645" y="165.233" type="curve" smooth="yes"/>
      <point x="397.416" y="158.834"/>
      <point x="410.549" y="155.661"/>
      <point x="423.916" y="156.47" type="curve" smooth="yes"/>
      <point x="452.939" y="158.225"/>
      <point x="482.515" y="172.555"/>
      <point x="512.5" y="199.392" type="curve" smooth="yes"/>
      <point x="521.099" y="207.087"/>
      <point x="532.367" y="219.22"/>
      <point x="541.184" y="230.274" type="curve" smooth="yes"/>
      <point x="546.543" y="236.994"/>
      <point x="556.994" y="251.525"/>
      <point x="558.385" y="254.19" type="curve" smooth="yes"/>
      <point x="558.82" y="255.025"/>
      <point x="569.774" y="298.085"/>
      <point x="582.731" y="349.892" type="curve" smooth="yes"/>
      <point x="606.286" y="444.075" type="line"/>
      <point x="604.377" y="453.901" type="line" smooth="yes"/>
      <point x="598.635" y="483.454"/>
      <point x="585.235" y="507.822"/>
      <point x="566.835" y="522.177" type="curve" smooth="yes"/>
      <point x="555.958" y="530.663"/>
      <point x="545.159" y="535.365"/>
    </contour>
  </outline>
</glyph>
<glyph name="A" format="2">
  <advance width="743"/>
  <unicode hex="0041"/>
  <outline>
    <contour>
      <point x="538" y="714" type="curve" smooth="yes"/>
      <point x="540" y="715"/>
      <point x="544" y="716"/>
      <point x="551" y="716" type="curve" smooth="yes"/>
      <point x="561" y="716"/>
      <point x="565" y="714"/>
      <point x="567" y="709" type="curve" smooth="yes"/>
      <point x="568" y="708"/>
      <point x="577" y="573"/>
      <point x="590" y="383" type="curve" smooth="yes"/>
      <point x="602" y="205"/>
      <point x="612" y="57"/>
      <point x="613" y="54" type="curve" smooth="yes"/>
      <point x="615" y="42"/>
      <point x="619" y="38"/>
      <point x="629" y="35" type="curve" smooth="yes"/>
      <point x="637" y="34"/>
      <point x="655" y="32"/>
      <point x="671" y="32" type="curve" smooth="yes"/>
      <point x="686" y="32"/>
      <point x="690" y="31"/>
      <point x="692" y="25" type="curve" smooth="yes"/>
      <point x="694" y="20"/>
      <point x="691" y="8"/>
      <point x="686" y="3" type="curve" smooth="yes"/>
      <point x="683" y="0" type="line"/>
      <point x="672" y="0" type="line" smooth="yes"/>
      <point x="631" y="3"/>
      <point x="569" y="3"/>
      <point x="518" y="2" type="curve" smooth="yes"/>
      <point x="489" y="1"/>
      <point x="460" y="1"/>
      <point x="455" y="0" type="curve" smooth="yes"/>
      <point x="446" y="0" type="line"/>
      <point x="442" y="3" type="line" smooth="yes"/>
      <point x="439" y="7"/>
      <point x="439" y="7"/>
      <point x="439" y="13" type="curve" smooth="yes"/>
      <point x="440" y="22"/>
      <point x="443" y="28"/>
      <point x="447" y="30" type="curve" smooth="yes"/>
      <point x="449" y="32"/>
      <point x="453" y="32"/>
      <point x="460" y="32" type="curve" smooth="yes"/>
      <point x="486" y="32"/>
      <point x="506" y="37"/>
      <point x="518" y="45" type="curve" smooth="yes"/>
      <point x="522" y="48"/>
      <point x="526" y="53"/>
      <point x="528" y="58" type="curve" smooth="yes"/>
      <point x="529" y="61"/>
      <point x="527" y="84"/>
      <point x="523" y="145" type="curve" smooth="yes"/>
      <point x="517" y="228" type="line"/>
      <point x="404" y="228" type="line"/>
      <point x="290" y="228" type="line"/>
      <point x="253" y="163" type="line" smooth="yes"/>
      <point x="232" y="127"/>
      <point x="214" y="94"/>
      <point x="212" y="89" type="curve" smooth="yes"/>
      <point x="206" y="77"/>
      <point x="205" y="68"/>
      <point x="206" y="60" type="curve" smooth="yes"/>
      <point x="207" y="52"/>
      <point x="208" y="51"/>
      <point x="213" y="45" type="curve" smooth="yes"/>
      <point x="220" y="38"/>
      <point x="231" y="33"/>
      <point x="246" y="32" type="curve" smooth="yes"/>
      <point x="256" y="32"/>
      <point x="260" y="30"/>
      <point x="262" y="25" type="curve" smooth="yes"/>
      <point x="263" y="22"/>
      <point x="263" y="21"/>
      <point x="262" y="16" type="curve" smooth="yes"/>
      <point x="261" y="9"/>
      <point x="259" y="5"/>
      <point x="255" y="2" type="curve" smooth="yes"/>
      <point x="252" y="0"/>
      <point x="252" y="0"/>
      <point x="226" y="1" type="curve" smooth="yes"/>
      <point x="193" y="3"/>
      <point x="109" y="3"/>
      <point x="85" y="1" type="curve" smooth="yes"/>
      <point x="64" y="0"/>
      <point x="62" y="0"/>
      <point x="59" y="7" type="curve" smooth="yes"/>
      <point x="58" y="10"/>
      <point x="58" y="10"/>
      <point x="59" y="18" type="curve" smooth="yes"/>
      <point x="61" y="24"/>
      <point x="62" y="26"/>
      <point x="64" y="29" type="curve" smooth="yes"/>
      <point x="67" y="32"/>
      <point x="68" y="32"/>
      <point x="79" y="32" type="curve" smooth="yes"/>
      <point x="121" y="35"/>
      <point x="152" y="53"/>
      <point x="176" y="90" type="curve" smooth="yes"/>
      <point x="179" y="95"/>
      <point x="183" y="100"/>
      <point x="184" y="101" type="curve" smooth="yes"/>
      <point x="185" y="102"/>
      <point x="263" y="239"/>
      <point x="357" y="405" type="curve" smooth="yes"/>
      <point x="451" y="571"/>
      <point x="529" y="708"/>
      <point x="531" y="709" type="curve" smooth="yes"/>
      <point x="532" y="711"/>
      <point x="535" y="713"/>
    </contour>
    <contour>
      <point x="505" y="419" type="curve" smooth="yes"/>
      <point x="499" y="505"/>
      <point x="494" y="577"/>
      <point x="493" y="579" type="curve" smooth="yes"/>
      <point x="493" y="584" type="line"/>
      <point x="400" y="422" type="line"/>
      <point x="308" y="260" type="line"/>
      <point x="412" y="260" type="line" smooth="yes"/>
      <point x="509" y="260"/>
      <point x="515" y="260"/>
      <point x="515" y="262" type="curve" smooth="yes"/>
      <point x="515" y="263"/>
      <point x="510" y="333"/>
    </contour>
  </outline>
</glyph>
<glyph name="B" format="2">
  <advance width="704"/>
  <unicode hex="0042"/>
  <outline>
    <contour>
      <point x="65" y="7" type="curve" smooth="yes"/>
      <point x="64" y="9"/>
      <point x="61" y="20"/>
      <point x="73" y="32" type="curve"/>
      <point x="89" y="32" type="line" smooth="yes"/>
      <point x="159" y="32"/>
      <point x="163" y="43"/>
      <point x="168" y="57" type="curve" smooth="yes"/>
      <point x="169" y="60"/>
      <point x="202" y="189"/>
      <point x="241" y="344" type="curve" smooth="yes"/>
      <point x="317" y="651"/>
      <point x="315" y="640"/>
      <point x="309" y="644" type="curve" smooth="yes"/>
      <point x="304" y="648"/>
      <point x="280" y="651"/>
      <point x="250" y="651" type="curve" smooth="yes"/>
      <point x="233" y="651"/>
      <point x="230" y="652"/>
      <point x="227" y="658" type="curve" smooth="yes"/>
      <point x="227" y="658"/>
      <point x="223" y="670"/>
      <point x="236" y="683" type="curve"/>
      <point x="408" y="683" type="line" smooth="yes"/>
      <point x="522" y="683"/>
      <point x="583" y="683"/>
      <point x="591" y="682" type="curve" smooth="yes"/>
      <point x="752" y="668"/>
      <point x="789" y="491"/>
      <point x="635" y="396" type="curve" smooth="yes"/>
      <point x="578" y="360"/>
      <point x="521" y="356"/>
      <point x="542" y="356" type="curve" smooth="yes"/>
      <point x="558" y="356"/>
      <point x="659" y="336"/>
      <point x="676" y="241" type="curve" smooth="yes"/>
      <point x="688" y="159"/>
      <point x="618" y="32"/>
      <point x="457" y="2" type="curve" smooth="yes"/>
      <point x="448" y="1"/>
      <point x="428" y="1"/>
      <point x="259" y="0" type="curve" smooth="yes"/>
      <point x="52" y="0"/>
      <point x="68" y="-1"/>
    </contour>
    <contour>
      <point x="243" y="43" type="curve" smooth="yes"/>
      <point x="243" y="38"/>
      <point x="243" y="36"/>
      <point x="244" y="35" type="curve" smooth="yes"/>
      <point x="248" y="32"/>
      <point x="260" y="32"/>
      <point x="342" y="32" type="curve" smooth="yes"/>
      <point x="422" y="33"/>
      <point x="424" y="33"/>
      <point x="433" y="35" type="curve" smooth="yes"/>
      <point x="594" y="71"/>
      <point x="641" y="307"/>
      <point x="517" y="341" type="curve" smooth="yes"/>
      <point x="510" y="343"/>
      <point x="508" y="343"/>
      <point x="414" y="344" type="curve"/>
      <point x="318" y="344" type="line"/>
      <point x="281" y="197" type="line" smooth="yes"/>
      <point x="260" y="116"/>
      <point x="244" y="47"/>
    </contour>
    <contour>
      <point x="323" y="367" type="line"/>
      <point x="404" y="367" type="line"/>
      <point x="485" y="368" type="line"/>
      <point x="495" y="370" type="line"/>
      <point x="656" y="410"/>
      <point x="692" y="625"/>
      <point x="578" y="649" type="curve" smooth="yes"/>
      <point x="569" y="651"/>
      <point x="564" y="651"/>
      <point x="493" y="651" type="curve" smooth="yes"/>
      <point x="451" y="651"/>
      <point x="414" y="650"/>
      <point x="411" y="650" type="curve" smooth="yes"/>
      <point x="400" y="648"/>
      <point x="395" y="645"/>
      <point x="391" y="634" type="curve" smooth="yes"/>
      <point x="390" y="631"/>
      <point x="374" y="570"/>
      <point x="356" y="498" type="curve" smooth="yes"/>
    </contour>
  </outline>
</glyph>
<glyph name="C" format="2">
  <advance width="716"/>
  <unicode hex="0043"/>
  <outline>
    <contour>
      <point x="151" y="218" type="curve"/>
      <point x="137" y="340"/>
      <point x="212" y="524"/>
      <point x="347" y="621" type="curve" smooth="yes"/>
      <point x="403" y="664"/>
      <point x="495" y="714"/>
      <point x="604" y="703" type="curve" smooth="yes"/>
      <point x="627" y="699"/>
      <point x="682" y="683"/>
      <point x="713" y="632" type="curve"/>
      <point x="721" y="620" type="line"/>
      <point x="757" y="662" type="line" smooth="yes"/>
      <point x="777" y="685"/>
      <point x="794" y="704"/>
      <point x="795" y="704" type="curve" smooth="yes"/>
      <point x="796" y="704"/>
      <point x="808" y="708"/>
      <point x="812" y="699" type="curve" smooth="yes"/>
      <point x="813" y="696"/>
      <point x="748" y="428"/>
      <point x="743" y="423" type="curve" smooth="yes"/>
      <point x="740" y="420"/>
      <point x="740" y="420"/>
      <point x="731" y="420" type="curve" smooth="yes"/>
      <point x="717" y="420"/>
      <point x="713" y="423"/>
      <point x="715" y="435" type="curve" smooth="yes"/>
      <point x="731" y="540"/>
      <point x="705" y="687"/>
      <point x="557" y="672" type="curve"/>
      <point x="320" y="639"/>
      <point x="239" y="346"/>
      <point x="239" y="208" type="curve" smooth="yes"/>
      <point x="236" y="99"/>
      <point x="296" y="11"/>
      <point x="411" y="11" type="curve" smooth="yes"/>
      <point x="541" y="11"/>
      <point x="636" y="136"/>
      <point x="663" y="229" type="curve" smooth="yes"/>
      <point x="670" y="250"/>
      <point x="669" y="250"/>
      <point x="684" y="250" type="curve" smooth="yes"/>
      <point x="702" y="250"/>
      <point x="701" y="244"/>
      <point x="695" y="226" type="curve" smooth="yes"/>
      <point x="662" y="111"/>
      <point x="537" y="-40"/>
      <point x="359" y="-20" type="curve" smooth="yes"/>
      <point x="325" y="-15"/>
      <point x="166" y="19"/>
    </contour>
  </outline>
</glyph>
<glyph name="D" format="2">
  <advance width="755"/>
  <unicode hex="0044"/>
  <outline>
    <contour>
      <point x="64" y="7" type="curve" smooth="yes"/>
      <point x="63" y="9"/>
      <point x="60" y="20"/>
      <point x="72" y="32" type="curve"/>
      <point x="88" y="32" type="line" smooth="yes"/>
      <point x="158" y="32"/>
      <point x="162" y="43"/>
      <point x="167" y="57" type="curve" smooth="yes"/>
      <point x="168" y="60"/>
      <point x="201" y="189"/>
      <point x="240" y="344" type="curve" smooth="yes"/>
      <point x="316" y="651"/>
      <point x="314" y="640"/>
      <point x="308" y="644" type="curve" smooth="yes"/>
      <point x="303" y="648"/>
      <point x="279" y="651"/>
      <point x="249" y="651" type="curve" smooth="yes"/>
      <point x="232" y="651"/>
      <point x="229" y="652"/>
      <point x="226" y="658" type="curve" smooth="yes"/>
      <point x="226" y="658"/>
      <point x="222" y="670"/>
      <point x="235" y="683" type="curve"/>
      <point x="407" y="683" type="line" smooth="yes"/>
      <point x="592" y="683"/>
      <point x="592" y="683"/>
      <point x="614" y="678" type="curve" smooth="yes"/>
      <point x="829" y="629"/>
      <point x="827" y="278"/>
      <point x="613" y="92" type="curve" smooth="yes"/>
      <point x="558" y="43"/>
      <point x="497" y="13"/>
      <point x="432" y="2" type="curve" smooth="yes"/>
      <point x="422" y="1"/>
      <point x="408" y="1"/>
      <point x="246" y="0" type="curve" smooth="yes"/>
      <point x="52" y="0"/>
      <point x="67" y="-1"/>
    </contour>
    <contour>
      <point x="245" y="43" type="curve" smooth="yes"/>
      <point x="245" y="35"/>
      <point x="245" y="35"/>
      <point x="254" y="33" type="curve" smooth="yes"/>
      <point x="263" y="32"/>
      <point x="389" y="32"/>
      <point x="402" y="33" type="curve" smooth="yes"/>
      <point x="449" y="38"/>
      <point x="585" y="71"/>
      <point x="650" y="267" type="curve" smooth="yes"/>
      <point x="651" y="269"/>
      <point x="702" y="429"/>
      <point x="690" y="507" type="curve" smooth="yes"/>
      <point x="682" y="568"/>
      <point x="651" y="636"/>
      <point x="558" y="650" type="curve" smooth="yes"/>
      <point x="549" y="651"/>
      <point x="535" y="651"/>
      <point x="483" y="651" type="curve" smooth="yes"/>
      <point x="447" y="651"/>
      <point x="416" y="650"/>
      <point x="413" y="650" type="curve" smooth="yes"/>
      <point x="402" y="648"/>
      <point x="397" y="645"/>
      <point x="393" y="634" type="curve" smooth="yes"/>
      <point x="390" y="625"/>
      <point x="246" y="51"/>
    </contour>
  </outline>
</glyph>
<glyph name="E" format="2">
  <advance width="678"/>
  <unicode hex="0045"/>
  <outline>
    <contour>
      <point x="230" y="678" type="curve" smooth="yes"/>
      <point x="233" y="680"/>
      <point x="240" y="680"/>
      <point x="485" y="680" type="curve" smooth="yes"/>
      <point x="736" y="680" type="line"/>
      <point x="740" y="677" type="line" smooth="yes"/>
      <point x="742" y="674"/>
      <point x="743" y="672"/>
      <point x="743" y="669" type="curve" smooth="yes"/>
      <point x="743" y="666"/>
      <point x="719" y="477"/>
      <point x="717" y="465" type="curve" smooth="yes"/>
      <point x="717" y="462"/>
      <point x="716" y="459"/>
      <point x="713" y="457" type="curve" smooth="yes"/>
      <point x="710" y="454"/>
      <point x="710" y="454"/>
      <point x="702" y="454" type="curve" smooth="yes"/>
      <point x="695" y="454"/>
      <point x="693" y="454"/>
      <point x="690" y="456" type="curve" smooth="yes"/>
      <point x="685" y="459"/>
      <point x="685" y="462"/>
      <point x="687" y="480" type="curve" smooth="yes"/>
      <point x="698" y="566"/>
      <point x="692" y="605"/>
      <point x="665" y="625" type="curve" smooth="yes"/>
      <point x="648" y="638"/>
      <point x="625" y="645"/>
      <point x="588" y="647" type="curve" smooth="yes"/>
      <point x="567" y="648"/>
      <point x="423" y="648"/>
      <point x="414" y="647" type="curve" smooth="yes"/>
      <point x="410" y="646"/>
      <point x="405" y="645"/>
      <point x="403" y="644" type="curve" smooth="yes"/>
      <point x="394" y="639"/>
      <point x="394" y="640"/>
      <point x="359" y="498" type="curve" smooth="yes"/>
      <point x="341" y="428"/>
      <point x="327" y="370"/>
      <point x="327" y="369" type="curve"/>
      <point x="382" y="369" type="line" smooth="yes"/>
      <point x="426" y="370"/>
      <point x="439" y="370"/>
      <point x="447" y="371" type="curve" smooth="yes"/>
      <point x="493" y="379"/>
      <point x="511" y="400"/>
      <point x="528" y="465" type="curve" smooth="yes"/>
      <point x="531" y="477"/>
      <point x="532" y="480"/>
      <point x="535" y="483" type="curve" smooth="yes"/>
      <point x="538" y="486"/>
      <point x="538" y="486"/>
      <point x="546" y="486" type="curve" smooth="yes"/>
      <point x="556" y="486"/>
      <point x="560" y="484"/>
      <point x="562" y="479" type="curve" smooth="yes"/>
      <point x="563" y="476"/>
      <point x="562" y="469"/>
      <point x="533" y="352" type="curve" smooth="yes"/>
      <point x="516" y="284"/>
      <point x="501" y="227"/>
      <point x="500" y="226" type="curve" smooth="yes"/>
      <point x="498" y="222"/>
      <point x="494" y="220"/>
      <point x="485" y="220" type="curve" smooth="yes"/>
      <point x="477" y="220"/>
      <point x="477" y="220"/>
      <point x="473" y="224" type="curve" smooth="yes"/>
      <point x="470" y="227"/>
      <point x="470" y="227"/>
      <point x="470" y="232" type="curve" smooth="yes"/>
      <point x="471" y="235"/>
      <point x="472" y="244"/>
      <point x="474" y="253" type="curve" smooth="yes"/>
      <point x="480" y="276"/>
      <point x="482" y="292"/>
      <point x="480" y="303" type="curve" smooth="yes"/>
      <point x="478" y="321"/>
      <point x="471" y="328"/>
      <point x="451" y="333" type="curve" smooth="yes"/>
      <point x="438" y="336"/>
      <point x="418" y="337"/>
      <point x="367" y="337" type="curve" smooth="yes"/>
      <point x="319" y="337" type="line"/>
      <point x="283" y="193" type="line" smooth="yes"/>
      <point x="263" y="114"/>
      <point x="247" y="47"/>
      <point x="246" y="43" type="curve" smooth="yes"/>
      <point x="246" y="35"/>
      <point x="246" y="35"/>
      <point x="255" y="33" type="curve" smooth="yes"/>
      <point x="263" y="32"/>
      <point x="405" y="32"/>
      <point x="427" y="33" type="curve" smooth="yes"/>
      <point x="469" y="36"/>
      <point x="497" y="42"/>
      <point x="525" y="55" type="curve" smooth="yes"/>
      <point x="551" y="69"/>
      <point x="567" y="82"/>
      <point x="586" y="108" type="curve" smooth="yes"/>
      <point x="605" y="133"/>
      <point x="625" y="173"/>
      <point x="648" y="230" type="curve" smooth="yes"/>
      <point x="661" y="259"/>
      <point x="660" y="259"/>
      <point x="673" y="259" type="curve" smooth="yes"/>
      <point x="681" y="259"/>
      <point x="682" y="259"/>
      <point x="685" y="256" type="curve" smooth="yes"/>
      <point x="691" y="251"/>
      <point x="694" y="258"/>
      <point x="640" y="125" type="curve" smooth="yes"/>
      <point x="595" y="14"/>
      <point x="590" y="4"/>
      <point x="588" y="2" type="curve" smooth="yes"/>
      <point x="585" y="0"/>
      <point x="576" y="0"/>
      <point x="326" y="0" type="curve" smooth="yes"/>
      <point x="68" y="0" type="line"/>
      <point x="64" y="4" type="line" smooth="yes"/>
      <point x="61" y="7"/>
      <point x="61" y="7"/>
      <point x="61" y="13" type="curve" smooth="yes"/>
      <point x="62" y="17"/>
      <point x="63" y="22"/>
      <point x="64" y="24" type="curve" smooth="yes"/>
      <point x="67" y="31"/>
      <point x="69" y="32"/>
      <point x="87" y="32" type="curve" smooth="yes"/>
      <point x="117" y="32"/>
      <point x="141" y="35"/>
      <point x="151" y="39" type="curve" smooth="yes"/>
      <point x="156" y="42"/>
      <point x="162" y="49"/>
      <point x="165" y="57" type="curve" smooth="yes"/>
      <point x="166" y="60"/>
      <point x="199" y="188"/>
      <point x="237" y="342" type="curve" smooth="yes"/>
      <point x="300" y="595"/>
      <point x="307" y="623"/>
      <point x="307" y="631" type="curve" smooth="yes"/>
      <point x="307" y="638"/>
      <point x="307" y="639"/>
      <point x="305" y="641" type="curve" smooth="yes"/>
      <point x="300" y="645"/>
      <point x="276" y="648"/>
      <point x="246" y="648" type="curve" smooth="yes"/>
      <point x="230" y="648" type="line"/>
      <point x="226" y="652" type="line" smooth="yes"/>
      <point x="223" y="655"/>
      <point x="223" y="655"/>
      <point x="223" y="661" type="curve" smooth="yes"/>
      <point x="224" y="670"/>
      <point x="227" y="676"/>
    </contour>
  </outline>
</glyph>
<glyph name="F" format="2">
  <advance width="653"/>
  <unicode hex="0046"/>
  <outline>
    <contour>
      <point x="62" y="7" type="curve" smooth="yes"/>
      <point x="61" y="9"/>
      <point x="58" y="20"/>
      <point x="70" y="32" type="curve"/>
      <point x="86" y="32" type="line" smooth="yes"/>
      <point x="156" y="32"/>
      <point x="160" y="43"/>
      <point x="165" y="57" type="curve" smooth="yes"/>
      <point x="177" y="92"/>
      <point x="307" y="625"/>
      <point x="307" y="631" type="curve" smooth="yes"/>
      <point x="307" y="638"/>
      <point x="307" y="639"/>
      <point x="305" y="641" type="curve" smooth="yes"/>
      <point x="300" y="645"/>
      <point x="276" y="648"/>
      <point x="246" y="648" type="curve" smooth="yes"/>
      <point x="231" y="648"/>
      <point x="219" y="648"/>
      <point x="224" y="666" type="curve" smooth="yes"/>
      <point x="226" y="674"/>
      <point x="227" y="675"/>
      <point x="232" y="680" type="curve"/>
      <point x="724" y="680" type="line"/>
      <point x="728" y="677"/>
      <point x="731" y="675"/>
      <point x="731" y="669" type="curve" smooth="yes"/>
      <point x="731" y="666"/>
      <point x="707" y="477"/>
      <point x="705" y="465" type="curve" smooth="yes"/>
      <point x="705" y="454"/>
      <point x="694" y="454"/>
      <point x="690" y="454" type="curve" smooth="yes"/>
      <point x="672" y="454"/>
      <point x="673" y="456"/>
      <point x="675" y="485" type="curve" smooth="yes"/>
      <point x="679" y="515"/>
      <point x="680" y="527"/>
      <point x="680" y="548" type="curve" smooth="yes"/>
      <point x="680" y="601"/>
      <point x="671" y="642"/>
      <point x="580" y="647" type="curve" smooth="yes"/>
      <point x="578" y="647"/>
      <point x="416" y="651"/>
      <point x="403" y="644" type="curve" smooth="yes"/>
      <point x="394" y="639"/>
      <point x="395" y="641"/>
      <point x="358" y="492" type="curve" smooth="yes"/>
      <point x="339" y="418"/>
      <point x="324" y="358"/>
      <point x="324" y="357" type="curve" smooth="yes"/>
      <point x="324" y="355"/>
      <point x="428" y="356"/>
      <point x="438" y="358" type="curve" smooth="yes"/>
      <point x="493" y="366"/>
      <point x="505" y="398"/>
      <point x="519" y="450" type="curve" smooth="yes"/>
      <point x="524" y="473"/>
      <point x="527" y="473"/>
      <point x="539" y="473" type="curve" smooth="yes"/>
      <point x="548" y="473"/>
      <point x="548" y="473"/>
      <point x="555" y="463" type="curve"/>
      <point x="524" y="340" type="line"/>
      <point x="508" y="272"/>
      <point x="493" y="215"/>
      <point x="492" y="213" type="curve" smooth="yes"/>
      <point x="490" y="209"/>
      <point x="486" y="207"/>
      <point x="478" y="207" type="curve" smooth="yes"/>
      <point x="459" y="207"/>
      <point x="461" y="216"/>
      <point x="464" y="232" type="curve" smooth="yes"/>
      <point x="480" y="296"/>
      <point x="474" y="315"/>
      <point x="437" y="322" type="curve" smooth="yes"/>
      <point x="430" y="323"/>
      <point x="418" y="323"/>
      <point x="372" y="324" type="curve"/>
      <point x="316" y="324" type="line"/>
      <point x="282" y="191" type="line" smooth="yes"/>
      <point x="251" y="66"/>
      <point x="249" y="57"/>
      <point x="249" y="50" type="curve" smooth="yes"/>
      <point x="251" y="37"/>
      <point x="252" y="34"/>
      <point x="320" y="32" type="curve"/>
      <point x="351" y="32" type="line"/>
      <point x="357" y="24"/>
      <point x="357" y="24"/>
      <point x="357" y="21" type="curve" smooth="yes"/>
      <point x="357" y="17"/>
      <point x="355" y="8"/>
      <point x="352" y="4" type="curve" smooth="yes"/>
      <point x="349" y="0"/>
      <point x="348" y="0"/>
      <point x="310" y="1" type="curve" smooth="yes"/>
      <point x="264" y="3"/>
      <point x="132" y="3"/>
      <point x="96" y="1" type="curve" smooth="yes"/>
      <point x="65" y="0"/>
      <point x="65" y="0"/>
    </contour>
  </outline>
</glyph>
<glyph name="G" format="2">
  <advance width="774"/>
  <unicode hex="0047"/>
  <outline>
    <contour>
      <point x="546" y="704" type="curve" smooth="yes"/>
      <point x="559" y="705"/>
      <point x="594" y="704"/>
      <point x="604" y="703" type="curve" smooth="yes"/>
      <point x="641" y="696"/>
      <point x="666" y="683"/>
      <point x="692" y="658" type="curve" smooth="yes"/>
      <point x="702" y="648"/>
      <point x="707" y="642"/>
      <point x="713" y="632" type="curve" smooth="yes"/>
      <point x="721" y="620" type="line"/>
      <point x="757" y="662" type="line" smooth="yes"/>
      <point x="777" y="685"/>
      <point x="794" y="704"/>
      <point x="795" y="704" type="curve" smooth="yes"/>
      <point x="798" y="705"/>
      <point x="805" y="705"/>
      <point x="808" y="704" type="curve" smooth="yes"/>
      <point x="809" y="703"/>
      <point x="811" y="701"/>
      <point x="812" y="699" type="curve" smooth="yes"/>
      <point x="813" y="696"/>
      <point x="810" y="685"/>
      <point x="779" y="561" type="curve" smooth="yes"/>
      <point x="749" y="437"/>
      <point x="745" y="425"/>
      <point x="743" y="423" type="curve" smooth="yes"/>
      <point x="740" y="420"/>
      <point x="740" y="420"/>
      <point x="731" y="420" type="curve" smooth="yes"/>
      <point x="717" y="420"/>
      <point x="713" y="423"/>
      <point x="715" y="435" type="curve" smooth="yes"/>
      <point x="719" y="461"/>
      <point x="720" y="502"/>
      <point x="718" y="526" type="curve" smooth="yes"/>
      <point x="713" y="562"/>
      <point x="703" y="593"/>
      <point x="687" y="617" type="curve" smooth="yes"/>
      <point x="655" y="665"/>
      <point x="604" y="682"/>
      <point x="535" y="668" type="curve" smooth="yes"/>
      <point x="468" y="654"/>
      <point x="400" y="609"/>
      <point x="351" y="546" type="curve" smooth="yes"/>
      <point x="307" y="489"/>
      <point x="275" y="418"/>
      <point x="254" y="327" type="curve" smooth="yes"/>
      <point x="235" y="243"/>
      <point x="233" y="178"/>
      <point x="250" y="128" type="curve" smooth="yes"/>
      <point x="268" y="73"/>
      <point x="309" y="33"/>
      <point x="362" y="18" type="curve" smooth="yes"/>
      <point x="380" y="12"/>
      <point x="392" y="11"/>
      <point x="415" y="11" type="curve" smooth="yes"/>
      <point x="437" y="11"/>
      <point x="446" y="12"/>
      <point x="465" y="17" type="curve" smooth="yes"/>
      <point x="520" y="30"/>
      <point x="566" y="66"/>
      <point x="583" y="108" type="curve" smooth="yes"/>
      <point x="584" y="111"/>
      <point x="591" y="137"/>
      <point x="598" y="164" type="curve" smooth="yes"/>
      <point x="614" y="229"/>
      <point x="614" y="232"/>
      <point x="602" y="235" type="curve" smooth="yes"/>
      <point x="590" y="239"/>
      <point x="564" y="241"/>
      <point x="533" y="241" type="curve" smooth="yes"/>
      <point x="516" y="241"/>
      <point x="513" y="241"/>
      <point x="510" y="243" type="curve" smooth="yes"/>
      <point x="506" y="246"/>
      <point x="504" y="250"/>
      <point x="506" y="257" type="curve" smooth="yes"/>
      <point x="507" y="264"/>
      <point x="509" y="269"/>
      <point x="513" y="271" type="curve" smooth="yes"/>
      <point x="516" y="273"/>
      <point x="517" y="273"/>
      <point x="549" y="272" type="curve" smooth="yes"/>
      <point x="629" y="270"/>
      <point x="718" y="270"/>
      <point x="753" y="273" type="curve" smooth="yes"/>
      <point x="761" y="273" type="line"/>
      <point x="764" y="270" type="line" smooth="yes"/>
      <point x="768" y="266"/>
      <point x="769" y="262"/>
      <point x="767" y="253" type="curve" smooth="yes"/>
      <point x="764" y="242"/>
      <point x="761" y="241"/>
      <point x="746" y="241" type="curve" smooth="yes"/>
      <point x="725" y="241"/>
      <point x="710" y="238"/>
      <point x="703" y="233" type="curve" smooth="yes"/>
      <point x="697" y="229"/>
      <point x="695" y="223"/>
      <point x="669" y="117" type="curve" smooth="yes"/>
      <point x="654" y="60"/>
      <point x="642" y="12"/>
      <point x="641" y="9" type="curve" smooth="yes"/>
      <point x="639" y="1"/>
      <point x="634" y="-2"/>
      <point x="628" y="1" type="curve" smooth="yes"/>
      <point x="620" y="5"/>
      <point x="596" y="41"/>
      <point x="591" y="57" type="curve" smooth="yes"/>
      <point x="590" y="61" type="line"/>
      <point x="584" y="54" type="line" smooth="yes"/>
      <point x="552" y="17"/>
      <point x="495" y="-10"/>
      <point x="433" y="-20" type="curve" smooth="yes"/>
      <point x="415" y="-22"/>
      <point x="375" y="-22"/>
      <point x="359" y="-20" type="curve" smooth="yes"/>
      <point x="325" y="-15"/>
      <point x="292" y="-3"/>
      <point x="265" y="14" type="curve" smooth="yes"/>
      <point x="199" y="55"/>
      <point x="158" y="128"/>
      <point x="151" y="218" type="curve" smooth="yes"/>
      <point x="149" y="236"/>
      <point x="150" y="270"/>
      <point x="152" y="289" type="curve" smooth="yes"/>
      <point x="162" y="369"/>
      <point x="196" y="451"/>
      <point x="247" y="520" type="curve" smooth="yes"/>
      <point x="275" y="558"/>
      <point x="311" y="595"/>
      <point x="347" y="621" type="curve" smooth="yes"/>
      <point x="409" y="668"/>
      <point x="479" y="697"/>
    </contour>
  </outline>
</glyph>
<glyph name="H" format="2">
  <advance width="743"/>
  <unicode hex="0048"/>
  <outline>
    <contour>
      <point x="61" y="13" type="curve" smooth="yes"/>
      <point x="66" y="32"/>
      <point x="66" y="32"/>
      <point x="87" y="32" type="curve" smooth="yes"/>
      <point x="156" y="32"/>
      <point x="160" y="43"/>
      <point x="165" y="57" type="curve" smooth="yes"/>
      <point x="166" y="60"/>
      <point x="199" y="189"/>
      <point x="238" y="344" type="curve" smooth="yes"/>
      <point x="314" y="651"/>
      <point x="312" y="640"/>
      <point x="306" y="644" type="curve" smooth="yes"/>
      <point x="301" y="648"/>
      <point x="277" y="651"/>
      <point x="247" y="651" type="curve" smooth="yes"/>
      <point x="230" y="651"/>
      <point x="227" y="652"/>
      <point x="224" y="658" type="curve" smooth="yes"/>
      <point x="224" y="658"/>
      <point x="220" y="670"/>
      <point x="233" y="683" type="curve"/>
      <point x="245" y="683" type="line" smooth="yes"/>
      <point x="247" y="683"/>
      <point x="453" y="678"/>
      <point x="480" y="683" type="curve"/>
      <point x="489" y="683" type="line"/>
      <point x="495" y="677"/>
      <point x="498" y="674"/>
      <point x="495" y="663" type="curve" smooth="yes"/>
      <point x="492" y="652"/>
      <point x="490" y="651"/>
      <point x="470" y="651" type="curve" smooth="yes"/>
      <point x="405" y="651"/>
      <point x="399" y="641"/>
      <point x="393" y="630" type="curve" smooth="yes"/>
      <point x="392" y="626"/>
      <point x="381" y="585"/>
      <point x="359" y="498" type="curve" smooth="yes"/>
      <point x="327" y="371" type="line"/>
      <point x="464" y="371" type="line"/>
      <point x="601" y="372" type="line"/>
      <point x="633" y="499" type="line" smooth="yes"/>
      <point x="661" y="608"/>
      <point x="665" y="628"/>
      <point x="665" y="634" type="curve" smooth="yes"/>
      <point x="665" y="641"/>
      <point x="665" y="642"/>
      <point x="663" y="644" type="curve" smooth="yes"/>
      <point x="658" y="648"/>
      <point x="634" y="651"/>
      <point x="604" y="651" type="curve" smooth="yes"/>
      <point x="587" y="651"/>
      <point x="584" y="652"/>
      <point x="581" y="658" type="curve" smooth="yes"/>
      <point x="581" y="658"/>
      <point x="577" y="670"/>
      <point x="590" y="683" type="curve"/>
      <point x="602" y="683" type="line" smooth="yes"/>
      <point x="604" y="683"/>
      <point x="810" y="678"/>
      <point x="837" y="683" type="curve"/>
      <point x="846" y="683" type="line"/>
      <point x="852" y="677"/>
      <point x="855" y="674"/>
      <point x="852" y="663" type="curve" smooth="yes"/>
      <point x="849" y="652"/>
      <point x="847" y="651"/>
      <point x="827" y="651" type="curve" smooth="yes"/>
      <point x="759" y="651"/>
      <point x="755" y="640"/>
      <point x="750" y="629" type="curve" smooth="yes"/>
      <point x="748" y="623"/>
      <point x="606" y="69"/>
      <point x="606" y="49" type="curve" smooth="yes"/>
      <point x="606" y="42"/>
      <point x="606" y="41"/>
      <point x="608" y="39" type="curve" smooth="yes"/>
      <point x="613" y="35"/>
      <point x="637" y="32"/>
      <point x="667" y="32" type="curve" smooth="yes"/>
      <point x="683" y="32" type="line"/>
      <point x="690" y="25"/>
      <point x="690" y="25"/>
      <point x="690" y="19" type="curve" smooth="yes"/>
      <point x="688" y="0"/>
      <point x="686" y="0"/>
      <point x="651" y="1" type="curve" smooth="yes"/>
      <point x="585" y="3"/>
      <point x="481" y="3"/>
      <point x="435" y="0" type="curve"/>
      <point x="425" y="0" type="line"/>
      <point x="419" y="5"/>
      <point x="418" y="5"/>
      <point x="418" y="13" type="curve" smooth="yes"/>
      <point x="423" y="32"/>
      <point x="423" y="32"/>
      <point x="444" y="32" type="curve" smooth="yes"/>
      <point x="513" y="32"/>
      <point x="517" y="43"/>
      <point x="522" y="57" type="curve" smooth="yes"/>
      <point x="524" y="61"/>
      <point x="593" y="336"/>
      <point x="593" y="338" type="curve" smooth="yes"/>
      <point x="593" y="339"/>
      <point x="531" y="339"/>
      <point x="456" y="339" type="curve" smooth="yes"/>
      <point x="319" y="339" type="line"/>
      <point x="284" y="198" type="line" smooth="yes"/>
      <point x="253" y="73"/>
      <point x="249" y="56"/>
      <point x="249" y="49" type="curve" smooth="yes"/>
      <point x="249" y="42"/>
      <point x="249" y="41"/>
      <point x="251" y="39" type="curve" smooth="yes"/>
      <point x="256" y="35"/>
      <point x="280" y="32"/>
      <point x="310" y="32" type="curve" smooth="yes"/>
      <point x="326" y="32" type="line"/>
      <point x="333" y="25"/>
      <point x="333" y="25"/>
      <point x="333" y="19" type="curve" smooth="yes"/>
      <point x="331" y="0"/>
      <point x="329" y="0"/>
      <point x="294" y="1" type="curve" smooth="yes"/>
      <point x="228" y="3"/>
      <point x="124" y="3"/>
      <point x="78" y="0" type="curve"/>
      <point x="68" y="0" type="line"/>
      <point x="62" y="5"/>
      <point x="61" y="5"/>
    </contour>
  </outline>
</glyph>
<glyph name="I" format="2">
  <advance width="386"/>
  <unicode hex="0049"/>
  <outline>
    <contour>
      <point x="226" y="681" type="curve" smooth="yes"/>
      <point x="229" y="683"/>
      <point x="231" y="683"/>
      <point x="243" y="683" type="curve" smooth="yes"/>
      <point x="310" y="680"/>
      <point x="402" y="680"/>
      <point x="466" y="682" type="curve" smooth="yes"/>
      <point x="495" y="683"/>
      <point x="497" y="683"/>
      <point x="500" y="676" type="curve" smooth="yes"/>
      <point x="501" y="673"/>
      <point x="501" y="672"/>
      <point x="500" y="667" type="curve" smooth="yes"/>
      <point x="499" y="659"/>
      <point x="497" y="656"/>
      <point x="494" y="653" type="curve" smooth="yes"/>
      <point x="491" y="651"/>
      <point x="489" y="651"/>
      <point x="465" y="651" type="curve" smooth="yes"/>
      <point x="411" y="649"/>
      <point x="400" y="646"/>
      <point x="392" y="626" type="curve" smooth="yes"/>
      <point x="391" y="624"/>
      <point x="358" y="495"/>
      <point x="319" y="340" type="curve" smooth="yes"/>
      <point x="257" y="90"/>
      <point x="249" y="57"/>
      <point x="249" y="49" type="curve" smooth="yes"/>
      <point x="249" y="44"/>
      <point x="249" y="41"/>
      <point x="250" y="40" type="curve" smooth="yes"/>
      <point x="253" y="36"/>
      <point x="271" y="33"/>
      <point x="306" y="32" type="curve" smooth="yes"/>
      <point x="332" y="32" type="line"/>
      <point x="335" y="28" type="line" smooth="yes"/>
      <point x="338" y="25"/>
      <point x="339" y="21"/>
      <point x="337" y="12" type="curve" smooth="yes"/>
      <point x="333" y="-1"/>
      <point x="334" y="0"/>
      <point x="298" y="1" type="curve" smooth="yes"/>
      <point x="229" y="3"/>
      <point x="121" y="3"/>
      <point x="74" y="0" type="curve" smooth="yes"/>
      <point x="63" y="0" type="line"/>
      <point x="60" y="3" type="line" smooth="yes"/>
      <point x="56" y="7"/>
      <point x="55" y="11"/>
      <point x="57" y="20" type="curve" smooth="yes"/>
      <point x="61" y="31"/>
      <point x="62" y="32"/>
      <point x="83" y="32" type="curve" smooth="yes"/>
      <point x="114" y="32"/>
      <point x="140" y="35"/>
      <point x="150" y="39" type="curve" smooth="yes"/>
      <point x="155" y="41"/>
      <point x="160" y="46"/>
      <point x="164" y="55" type="curve" smooth="yes"/>
      <point x="166" y="60"/>
      <point x="182" y="120"/>
      <point x="238" y="344" type="curve" smooth="yes"/>
      <point x="309" y="630"/>
      <point x="310" y="635"/>
      <point x="308" y="642" type="curve" smooth="yes"/>
      <point x="306" y="647"/>
      <point x="281" y="651"/>
      <point x="243" y="651" type="curve" smooth="yes"/>
      <point x="226" y="651" type="line"/>
      <point x="222" y="655" type="line" smooth="yes"/>
      <point x="219" y="658"/>
      <point x="219" y="658"/>
      <point x="219" y="664" type="curve" smooth="yes"/>
      <point x="220" y="673"/>
      <point x="223" y="679"/>
    </contour>
  </outline>
</glyph>
<glyph name="J" format="2">
  <advance width="525"/>
  <unicode hex="004A"/>
  <outline>
    <contour>
      <point x="355" y="682" type="curve" smooth="yes"/>
      <point x="357" y="683"/>
      <point x="361" y="683"/>
      <point x="373" y="683" type="curve" smooth="yes"/>
      <point x="449" y="680"/>
      <point x="544" y="680"/>
      <point x="593" y="682" type="curve" smooth="yes"/>
      <point x="616" y="683"/>
      <point x="618" y="683"/>
      <point x="621" y="676" type="curve" smooth="yes"/>
      <point x="622" y="673"/>
      <point x="622" y="672"/>
      <point x="620" y="665" type="curve" smooth="yes"/>
      <point x="619" y="659"/>
      <point x="618" y="657"/>
      <point x="615" y="654" type="curve" smooth="yes"/>
      <point x="612" y="651" type="line"/>
      <point x="600" y="651" type="line" smooth="yes"/>
      <point x="583" y="651"/>
      <point x="567" y="649"/>
      <point x="559" y="647" type="curve" smooth="yes"/>
      <point x="551" y="645"/>
      <point x="547" y="641"/>
      <point x="543" y="633" type="curve" smooth="yes"/>
      <point x="542" y="631"/>
      <point x="513" y="520"/>
      <point x="478" y="380" type="curve" smooth="yes"/>
      <point x="444" y="243"/>
      <point x="415" y="128"/>
      <point x="414" y="124" type="curve" smooth="yes"/>
      <point x="409" y="113"/>
      <point x="399" y="92"/>
      <point x="392" y="82" type="curve" smooth="yes"/>
      <point x="369" y="47"/>
      <point x="337" y="18"/>
      <point x="299" y="-1" type="curve" smooth="yes"/>
      <point x="213" y="-42"/>
      <point x="125" y="-21"/>
      <point x="99" y="48" type="curve" smooth="yes"/>
      <point x="93" y="62"/>
      <point x="92" y="72"/>
      <point x="92" y="90" type="curve" smooth="yes"/>
      <point x="93" y="108"/>
      <point x="95" y="117"/>
      <point x="101" y="130" type="curve" smooth="yes"/>
      <point x="106" y="140"/>
      <point x="112" y="147"/>
      <point x="122" y="153" type="curve" smooth="yes"/>
      <point x="133" y="160"/>
      <point x="140" y="163"/>
      <point x="155" y="162" type="curve" smooth="yes"/>
      <point x="169" y="162"/>
      <point x="175" y="160"/>
      <point x="184" y="152" type="curve" smooth="yes"/>
      <point x="198" y="139"/>
      <point x="200" y="121"/>
      <point x="189" y="99" type="curve" smooth="yes"/>
      <point x="179" y="78"/>
      <point x="159" y="65"/>
      <point x="135" y="65" type="curve" smooth="yes"/>
      <point x="130" y="65"/>
      <point x="126" y="64"/>
      <point x="126" y="64" type="curve"/>
      <point x="128" y="56" type="line" smooth="yes"/>
      <point x="139" y="23"/>
      <point x="171" y="1"/>
      <point x="210" y="1" type="curve" smooth="yes"/>
      <point x="232" y="1"/>
      <point x="257" y="13"/>
      <point x="280" y="36" type="curve" smooth="yes"/>
      <point x="303" y="60"/>
      <point x="322" y="89"/>
      <point x="333" y="123" type="curve" smooth="yes"/>
      <point x="335" y="129"/>
      <point x="364" y="243"/>
      <point x="398" y="379" type="curve" smooth="yes"/>
      <point x="463" y="638"/>
      <point x="462" y="633"/>
      <point x="458" y="640" type="curve" smooth="yes"/>
      <point x="454" y="647"/>
      <point x="436" y="650"/>
      <point x="386" y="651" type="curve" smooth="yes"/>
      <point x="354" y="651"/>
      <point x="354" y="651"/>
      <point x="351" y="654" type="curve" smooth="yes"/>
      <point x="347" y="657"/>
      <point x="346" y="661"/>
      <point x="348" y="670" type="curve" smooth="yes"/>
      <point x="350" y="677"/>
      <point x="352" y="680"/>
    </contour>
  </outline>
</glyph>
<glyph name="K" format="2">
  <advance width="768"/>
  <unicode hex="004B"/>
  <anchor x="456.286" y="682.822" name="TopAnchor"/>
  <anchor x="456.286" y="-0.0722656" name="BottomAnchor"/>
  <outline>
    <contour>
      <point x="224.277" y="681.177" type="curve" smooth="yes"/>
      <point x="227.223" y="683.01"/>
      <point x="227.312" y="683.018"/>
      <point x="239.523" y="682.594" type="curve" smooth="yes"/>
      <point x="280.636" y="681.166"/>
      <point x="298.14" y="680.76"/>
      <point x="336.705" y="680.339" type="curve" smooth="yes"/>
      <point x="378.468" y="679.883"/>
      <point x="436.76" y="680.69"/>
      <point x="475.217" y="682.257" type="curve" smooth="yes"/>
      <point x="494.726" y="683.052"/>
      <point x="495.922" y="682.875"/>
      <point x="499.483" y="678.685" type="curve" smooth="yes"/>
      <point x="502.7" y="674.9"/>
      <point x="502.679" y="672.688"/>
      <point x="499.288" y="658.96" type="curve" smooth="yes"/>
      <point x="493.897" y="637.136"/>
      <point x="496.171" y="638.473"/>
      <point x="463.512" y="637.917" type="curve" smooth="yes"/>
      <point x="431.142" y="637.367"/>
      <point x="414.607" y="635.764"/>
      <point x="407.153" y="632.45" type="curve" smooth="yes"/>
      <point x="403.633" y="630.886"/>
      <point x="398.81" y="625.723"/>
      <point x="396.347" y="620.882" type="curve" smooth="yes"/>
      <point x="395.118" y="618.466"/>
      <point x="381.84" y="566.582"/>
      <point x="356.286" y="464.343" type="curve" smooth="yes"/>
      <point x="324.213" y="336.019"/>
      <point x="318.313" y="311.643"/>
      <point x="319.617" y="312.825" type="curve" smooth="yes"/>
      <point x="320.472" y="313.6"/>
      <point x="395.159" y="376.596"/>
      <point x="485.549" y="452.782" type="curve" smooth="yes"/>
      <point x="575.939" y="528.968"/>
      <point x="650.416" y="591.996"/>
      <point x="651.012" y="592.811" type="curve" smooth="yes"/>
      <point x="651.603" y="593.618"/>
      <point x="654.192" y="596.46"/>
      <point x="656.708" y="599.061" type="curve" smooth="yes"/>
      <point x="664.604" y="607.226"/>
      <point x="669.113" y="615.537"/>
      <point x="669.055" y="621.821" type="curve" smooth="yes"/>
      <point x="669.028" y="624.639"/>
      <point x="666.863" y="629.363"/>
      <point x="664.668" y="631.394" type="curve" smooth="yes"/>
      <point x="661.43" y="634.389"/>
      <point x="654.985" y="636.759"/>
      <point x="647.977" y="637.532" type="curve" smooth="yes"/>
      <point x="636.777" y="638.769"/>
      <point x="636.425" y="638.864"/>
      <point x="633.96" y="641.329" type="curve" smooth="yes"/>
      <point x="629.685" y="645.604"/>
      <point x="629.636" y="647.543"/>
      <point x="633.42" y="662.934" type="curve" smooth="yes"/>
      <point x="636.227" y="674.35"/>
      <point x="637.117" y="676.98"/>
      <point x="638.851" y="678.974" type="curve" smooth="yes"/>
      <point x="642.375" y="683.027"/>
      <point x="643.714" y="683.191"/>
      <point x="666.04" y="682.311" type="curve" smooth="yes"/>
      <point x="725.723" y="679.955"/>
      <point x="797.098" y="679.617"/>
      <point x="828.396" y="681.543" type="curve" smooth="yes"/>
      <point x="849.35" y="682.832"/>
      <point x="851.437" y="682.799"/>
      <point x="853.757" y="681.13" type="curve" smooth="yes"/>
      <point x="854.924" y="680.292"/>
      <point x="856.638" y="678.071"/>
      <point x="857.623" y="676.12" type="curve" smooth="yes"/>
      <point x="859.393" y="672.615" type="line"/>
      <point x="855.896" y="658.599" type="line" smooth="yes"/>
      <point x="852.112" y="643.425"/>
      <point x="850.949" y="641.062"/>
      <point x="846.315" y="639.119" type="curve" smooth="yes"/>
      <point x="845.03" y="638.581"/>
      <point x="841.979" y="638.15"/>
      <point x="839.451" y="638.15" type="curve" smooth="yes"/>
      <point x="832.783" y="638.15"/>
      <point x="820.231" y="636.89"/>
      <point x="810.043" y="635.197" type="curve" smooth="yes"/>
      <point x="775.939" y="629.53"/>
      <point x="740.169" y="612.396"/>
      <point x="707.009" y="585.844" type="curve" smooth="yes"/>
      <point x="703.035" y="582.661"/>
      <point x="698.45" y="579.307"/>
      <point x="696.821" y="578.39" type="curve" smooth="yes"/>
      <point x="694.512" y="577.089"/>
      <point x="510.838" y="422.932"/>
      <point x="505.563" y="417.867" type="curve" smooth="yes"/>
      <point x="504.318" y="416.672"/>
      <point x="506.952" y="409.249"/>
      <point x="567.43" y="243.497" type="curve" smooth="yes"/>
      <point x="636.105" y="55.2744"/>
      <point x="632.306" y="64.9238"/>
      <point x="640.968" y="56.7734" type="curve" smooth="yes"/>
      <point x="643.136" y="54.7344"/>
      <point x="646.223" y="52.3848"/>
      <point x="647.76" y="51.6035" type="curve" smooth="yes"/>
      <point x="655.6" y="47.623"/>
      <point x="667.341" y="45.7305"/>
      <point x="687.5" y="45.1982" type="curve" smooth="yes"/>
      <point x="695.882" y="44.9766"/>
      <point x="703.708" y="44.4893"/>
      <point x="704.985" y="44.1084" type="curve" smooth="yes"/>
      <point x="707.981" y="43.2148"/>
      <point x="711.506" y="39.1621"/>
      <point x="712.114" y="35.9102" type="curve" smooth="yes"/>
      <point x="712.651" y="33.042"/>
      <point x="707.382" y="10.4043"/>
      <point x="705.135" y="5.9248" type="curve" smooth="yes"/>
      <point x="704.304" y="4.26953"/>
      <point x="702.674" y="2.70605"/>
      <point x="700.65" y="1.62598" type="curve" smooth="yes"/>
      <point x="697.471" y="-0.0722656" type="line"/>
      <point x="682.37" y="0.763672" type="line" smooth="yes"/>
      <point x="645.72" y="2.79102"/>
      <point x="601.012" y="3.35254"/>
      <point x="550.361" y="2.42285" type="curve" smooth="yes"/>
      <point x="523.266" y="1.9248"/>
      <point x="493.604" y="1.20605"/>
      <point x="484.465" y="0.826172" type="curve" smooth="yes"/>
      <point x="466.112" y="0.0634766"/>
      <point x="464.353" y="0.291992"/>
      <point x="461.409" y="3.8291" type="curve" smooth="yes"/>
      <point x="457.775" y="8.19727"/>
      <point x="457.778" y="9.9707"/>
      <point x="461.436" y="24.9277" type="curve" smooth="yes"/>
      <point x="466.012" y="43.6416"/>
      <point x="467.245" y="44.9424"/>
      <point x="480.419" y="44.9424" type="curve" smooth="yes"/>
      <point x="501.301" y="44.9424"/>
      <point x="513.81" y="48.4521"/>
      <point x="521.619" y="56.5029" type="curve" smooth="yes"/>
      <point x="525.451" y="60.4531"/>
      <point x="526.934" y="63.9453"/>
      <point x="527.294" y="69.8701" type="curve" smooth="yes"/>
      <point x="527.602" y="74.9277" type="line"/>
      <point x="477.746" y="211.488" type="line" smooth="yes"/>
      <point x="450.312" y="286.633"/>
      <point x="427.614" y="348.78"/>
      <point x="427.276" y="349.675" type="curve" smooth="yes"/>
      <point x="426.709" y="351.177"/>
      <point x="421.893" y="347.279"/>
      <point x="364.162" y="298.591" type="curve" smooth="yes"/>
      <point x="301.662" y="245.882" type="line"/>
      <point x="279.082" y="155.708" type="line" smooth="yes"/>
      <point x="266.671" y="106.142"/>
      <point x="256.163" y="63.4844"/>
      <point x="255.748" y="60.9824" type="curve" smooth="yes"/>
      <point x="254.682" y="54.5518"/>
      <point x="255.74" y="50.9443"/>
      <point x="259.104" y="49.5439" type="curve" smooth="yes"/>
      <point x="265.44" y="46.9062"/>
      <point x="290.823" y="44.9424"/>
      <point x="318.569" y="44.9424" type="curve" smooth="yes"/>
      <point x="333.165" y="44.9424"/>
      <point x="334.108" y="44.8584"/>
      <point x="336.85" y="43.3252" type="curve" smooth="yes"/>
      <point x="340.126" y="41.4932"/>
      <point x="342.47" y="37.5723"/>
      <point x="342.448" y="33.96" type="curve" smooth="yes"/>
      <point x="342.428" y="30.5635"/>
      <point x="336.391" y="6.98633"/>
      <point x="334.992" y="4.84082" type="curve" smooth="yes"/>
      <point x="334.348" y="3.85156"/>
      <point x="332.442" y="2.34863"/>
      <point x="330.78" y="1.51758" type="curve" smooth="yes"/>
      <point x="327.777" y="0.015625"/>
      <point x="327.529" y="0.00878906"/>
      <point x="306.72" y="0.810547" type="curve" smooth="yes"/>
      <point x="244.292" y="3.21484"/>
      <point x="161.822" y="3.51953"/>
      <point x="102.24" y="1.56348" type="curve" smooth="yes"/>
      <point x="62.5" y="0.259766"/>
      <point x="61.1211" y="0.273438"/>
      <point x="58.7432" y="2" type="curve" smooth="yes"/>
      <point x="57.6162" y="2.81738"/>
      <point x="55.9346" y="5.02148"/>
      <point x="54.9492" y="6.97266" type="curve" smooth="yes"/>
      <point x="53.1787" y="10.4766" type="line"/>
      <point x="56.6855" y="24.5664" type="line" smooth="yes"/>
      <point x="60.498" y="39.8848"/>
      <point x="61.916" y="42.6523"/>
      <point x="66.6904" y="44.0977" type="curve" smooth="yes"/>
      <point x="67.9658" y="44.4834"/>
      <point x="79.6963" y="44.9775"/>
      <point x="92.8467" y="45.1982" type="curve" smooth="yes"/>
      <point x="124.639" y="45.7314"/>
      <point x="141.023" y="47.3535"/>
      <point x="148.627" y="50.7188" type="curve" smooth="yes"/>
      <point x="152.734" y="52.5371"/>
      <point x="157.136" y="57.2979"/>
      <point x="159.586" y="62.5723" type="curve" smooth="yes"/>
      <point x="161.007" y="65.6309"/>
      <point x="182.922" y="152.168"/>
      <point x="231.205" y="345.376" type="curve" smooth="yes"/>
      <point x="305.761" y="643.714"/>
      <point x="302.271" y="628.874"/>
      <point x="298.699" y="632.382" type="curve" smooth="yes"/>
      <point x="295.442" y="635.581"/>
      <point x="278.974" y="637.325"/>
      <point x="246.749" y="637.883" type="curve" smooth="yes"/>
      <point x="233.599" y="638.109"/>
      <point x="221.867" y="638.604"/>
      <point x="220.593" y="638.984" type="curve" smooth="yes"/>
      <point x="217.597" y="639.878"/>
      <point x="214.083" y="643.931"/>
      <point x="213.484" y="647.182" type="curve" smooth="yes"/>
      <point x="213.141" y="649.051"/>
      <point x="213.849" y="653.179"/>
      <point x="216" y="661.85" type="curve" smooth="yes"/>
      <point x="219.729" y="676.879"/>
      <point x="220.585" y="678.878"/>
    </contour>
  </outline>
</glyph>
<glyph name="L" format="2">
  <advance width="627"/>
  <unicode hex="004C"/>
  <outline>
    <contour>
      <point x="61" y="13" type="curve" smooth="yes"/>
      <point x="66" y="32"/>
      <point x="66" y="32"/>
      <point x="87" y="32" type="curve" smooth="yes"/>
      <point x="156" y="32"/>
      <point x="160" y="43"/>
      <point x="165" y="57" type="curve" smooth="yes"/>
      <point x="166" y="60"/>
      <point x="199" y="189"/>
      <point x="238" y="344" type="curve" smooth="yes"/>
      <point x="314" y="651"/>
      <point x="312" y="640"/>
      <point x="306" y="644" type="curve" smooth="yes"/>
      <point x="301" y="648"/>
      <point x="277" y="651"/>
      <point x="247" y="651" type="curve" smooth="yes"/>
      <point x="230" y="651"/>
      <point x="227" y="652"/>
      <point x="224" y="658" type="curve" smooth="yes"/>
      <point x="224" y="658"/>
      <point x="220" y="670"/>
      <point x="233" y="683" type="curve"/>
      <point x="247" y="683" type="line"/>
      <point x="308" y="680"/>
      <point x="407" y="680"/>
      <point x="482" y="682" type="curve" smooth="yes"/>
      <point x="520" y="683"/>
      <point x="521" y="683"/>
      <point x="519" y="665" type="curve" smooth="yes"/>
      <point x="517" y="657"/>
      <point x="516" y="657"/>
      <point x="510" y="651" type="curve"/>
      <point x="490" y="651" type="line" smooth="yes"/>
      <point x="436" y="651"/>
      <point x="400" y="649"/>
      <point x="393" y="627" type="curve" smooth="yes"/>
      <point x="389" y="620"/>
      <point x="247" y="54"/>
      <point x="246" y="43" type="curve" smooth="yes"/>
      <point x="246" y="38"/>
      <point x="246" y="36"/>
      <point x="247" y="35" type="curve" smooth="yes"/>
      <point x="251" y="32"/>
      <point x="263" y="32"/>
      <point x="324" y="32" type="curve" smooth="yes"/>
      <point x="405" y="34"/>
      <point x="418" y="34"/>
      <point x="460" y="54" type="curve" smooth="yes"/>
      <point x="570" y="108"/>
      <point x="581" y="253"/>
      <point x="599" y="257" type="curve" smooth="yes"/>
      <point x="605" y="262"/>
      <point x="625" y="260"/>
      <point x="625" y="248" type="curve" smooth="yes"/>
      <point x="625" y="246"/>
      <point x="541" y="9"/>
      <point x="539" y="5" type="curve" smooth="yes"/>
      <point x="536" y="0"/>
      <point x="551" y="0"/>
      <point x="300" y="0" type="curve" smooth="yes"/>
      <point x="68" y="0" type="line"/>
      <point x="61" y="7"/>
      <point x="61" y="7"/>
    </contour>
  </outline>
</glyph>
<glyph name="M" format="2">
  <advance width="896"/>
  <unicode hex="004D"/>
  <outline>
    <contour>
      <point x="231.864" y="681.431" type="curve" smooth="yes"/>
      <point x="234.463" y="682.946"/>
      <point x="234.537" y="682.948"/>
      <point x="322.76" y="682.948" type="curve" smooth="yes"/>
      <point x="383.31" y="682.948"/>
      <point x="411.69" y="682.707"/>
      <point x="413.078" y="682.183" type="curve" smooth="yes"/>
      <point x="416.112" y="681.034"/>
      <point x="419.765" y="677.129"/>
      <point x="420.472" y="674.277" type="curve" smooth="yes"/>
      <point x="420.816" y="672.887"/>
      <point x="433.223" y="545.954"/>
      <point x="448.049" y="392.124" type="curve" smooth="yes"/>
      <point x="462.876" y="238.295"/>
      <point x="475.179" y="112.272"/>
      <point x="475.397" y="111.994" type="curve" smooth="yes"/>
      <point x="475.616" y="111.716"/>
      <point x="551.07" y="237.717"/>
      <point x="643.063" y="391.979" type="curve" smooth="yes"/>
      <point x="735.057" y="546.243"/>
      <point x="811.617" y="673.886"/>
      <point x="813.187" y="675.614" type="curve" smooth="yes"/>
      <point x="814.769" y="677.356"/>
      <point x="817.666" y="679.61"/>
      <point x="819.689" y="680.672" type="curve" smooth="yes"/>
      <point x="823.338" y="682.587" type="line"/>
      <point x="908.599" y="682.804" type="line" smooth="yes"/>
      <point x="967.196" y="682.952"/>
      <point x="994.694" y="682.777"/>
      <point x="996.532" y="682.244" type="curve" smooth="yes"/>
      <point x="999.814" y="681.291"/>
      <point x="1003.4" y="677.312"/>
      <point x="1004.03" y="673.916" type="curve" smooth="yes"/>
      <point x="1004.64" y="670.633"/>
      <point x="1000.47" y="653.54"/>
      <point x="998.249" y="650.217" type="curve" smooth="yes"/>
      <point x="995.311" y="645.819"/>
      <point x="993.353" y="645.374"/>
      <point x="976.879" y="645.354" type="curve" smooth="yes"/>
      <point x="950" y="645.324"/>
      <point x="925.665" y="643.324"/>
      <point x="916.04" y="640.354" type="curve" smooth="yes"/>
      <point x="913.656" y="639.619"/>
      <point x="910.438" y="638.13"/>
      <point x="908.888" y="637.045" type="curve" smooth="yes"/>
      <point x="905.451" y="634.64"/>
      <point x="900.329" y="627.096"/>
      <point x="898.158" y="621.243" type="curve" smooth="yes"/>
      <point x="897.304" y="618.938"/>
      <point x="865.215" y="491.51"/>
      <point x="826.843" y="338.042" type="curve" smooth="yes"/>
      <point x="763.286" y="83.8516"/>
      <point x="757.071" y="58.4854"/>
      <point x="756.973" y="52.8906" type="curve" smooth="yes"/>
      <point x="756.909" y="49.2773"/>
      <point x="757.233" y="46.0938"/>
      <point x="757.762" y="45.1592" type="curve" smooth="yes"/>
      <point x="760.177" y="40.8838"/>
      <point x="777.529" y="38.5957"/>
      <point x="813.367" y="37.8242" type="curve" smooth="yes"/>
      <point x="838.945" y="37.2734"/>
      <point x="838.456" y="37.3945"/>
      <point x="841.75" y="30.8525" type="curve" smooth="yes"/>
      <point x="843.497" y="27.3848" type="line"/>
      <point x="841.102" y="17.5576" type="line" smooth="yes"/>
      <point x="838.335" y="6.21387"/>
      <point x="836.979" y="3.56543"/>
      <point x="832.876" y="1.49512" type="curve" smooth="yes"/>
      <point x="829.967" y="0.0273438"/>
      <point x="829.552" y="0.0146484"/>
      <point x="810.043" y="0.806641" type="curve" smooth="yes"/>
      <point x="750.072" y="3.24023"/>
      <point x="674.066" y="3.55371"/>
      <point x="618.497" y="1.5957" type="curve" smooth="yes"/>
      <point x="581.214" y="0.283203"/>
      <point x="579.218" y="0.300781"/>
      <point x="576.879" y="1.97168" type="curve" smooth="yes"/>
      <point x="575.712" y="2.80469"/>
      <point x="573.998" y="5.02148"/>
      <point x="573.013" y="6.97266" type="curve" smooth="yes"/>
      <point x="571.243" y="10.4766" type="line"/>
      <point x="573.627" y="20.3037" type="line" smooth="yes"/>
      <point x="574.942" y="25.7227"/>
      <point x="576.657" y="31.1992"/>
      <point x="577.451" y="32.5146" type="curve" smooth="yes"/>
      <point x="580.291" y="37.2168"/>
      <point x="581.575" y="37.4512"/>
      <point x="607.298" y="37.9619" type="curve" smooth="yes"/>
      <point x="648.555" y="38.7832"/>
      <point x="662.45" y="41.1357"/>
      <point x="669.87" y="48.5547" type="curve" smooth="yes"/>
      <point x="677.176" y="55.8613"/>
      <point x="672.036" y="36.6328"/>
      <point x="749.693" y="347.182" type="curve" smooth="yes"/>
      <point x="788.721" y="503.251"/>
      <point x="820.486" y="630.835"/>
      <point x="820.268" y="630.636" type="curve" smooth="yes"/>
      <point x="820.049" y="630.438"/>
      <point x="736.697" y="490.823"/>
      <point x="635.079" y="320.448" type="curve" smooth="yes"/>
      <point x="533.462" y="150.072"/>
      <point x="449.167" y="9.32031"/>
      <point x="447.796" y="7.73145" type="curve" smooth="yes"/>
      <point x="446.411" y="6.12598"/>
      <point x="443.569" y="3.87793"/>
      <point x="441.401" y="2.67383" type="curve" smooth="yes"/>
      <point x="437.702" y="0.618164"/>
      <point x="436.994" y="0.494141"/>
      <point x="427.746" y="0.289062" type="curve" smooth="yes"/>
      <point x="418.642" y="0.0869141"/>
      <point x="417.774" y="0.185547"/>
      <point x="414.74" y="1.77051" type="curve" smooth="yes"/>
      <point x="412.355" y="3.01562"/>
      <point x="411.064" y="4.3252"/>
      <point x="409.898" y="6.68359" type="curve" smooth="yes"/>
      <point x="408.449" y="9.61621"/>
      <point x="405.715" y="36.8135"/>
      <point x="378.829" y="315.715" type="curve" smooth="yes"/>
      <point x="362.614" y="483.924"/>
      <point x="349.188" y="621.532"/>
      <point x="348.988" y="621.533" type="curve" smooth="yes"/>
      <point x="348.164" y="621.536"/>
      <point x="215.19" y="87.6445"/>
      <point x="214.647" y="82.1533" type="curve" smooth="yes"/>
      <point x="213.926" y="74.8555"/>
      <point x="214.71" y="67.4756"/>
      <point x="216.796" y="61.9219" type="curve" smooth="yes"/>
      <point x="218.03" y="58.6377"/>
      <point x="219.581" y="56.4443"/>
      <point x="223.193" y="52.874" type="curve" smooth="yes"/>
      <point x="233.064" y="43.1211"/>
      <point x="246.965" y="39.0732"/>
      <point x="274.783" y="37.8535" type="curve" smooth="yes"/>
      <point x="288.656" y="37.2461"/>
      <point x="289.621" y="36.8701"/>
      <point x="292.594" y="30.9248" type="curve" smooth="yes"/>
      <point x="294.364" y="27.3848" type="line"/>
      <point x="291.968" y="17.5576" type="line" smooth="yes"/>
      <point x="289.202" y="6.21387"/>
      <point x="287.846" y="3.55762"/>
      <point x="283.743" y="1.4502" type="curve" smooth="yes"/>
      <point x="280.842" y="-0.0410156"/>
      <point x="280.419" y="-0.0556641"/>
      <point x="263.367" y="0.749023" type="curve" smooth="yes"/>
      <point x="211.561" y="3.19336"/>
      <point x="148.139" y="3.52246"/>
      <point x="101.518" y="1.58691" type="curve" smooth="yes"/>
      <point x="70.4482" y="0.297852"/>
      <point x="68.3477" y="0.323242"/>
      <point x="65.9678" y="2.02344" type="curve" smooth="yes"/>
      <point x="64.8418" y="2.82715"/>
      <point x="63.1602" y="5.02148"/>
      <point x="62.1748" y="6.97266" type="curve" smooth="yes"/>
      <point x="60.4043" y="10.4766" type="line"/>
      <point x="62.7891" y="20.3037" type="line" smooth="yes"/>
      <point x="64.1035" y="25.7227"/>
      <point x="65.8252" y="31.1992"/>
      <point x="66.627" y="32.5146" type="curve" smooth="yes"/>
      <point x="68.9209" y="36.2773"/>
      <point x="72.6152" y="37.7217"/>
      <point x="79.9854" y="37.7334" type="curve" smooth="yes"/>
      <point x="101.807" y="37.7676"/>
      <point x="123.562" y="42.0488"/>
      <point x="137.645" y="49.0801" type="curve" smooth="yes"/>
      <point x="154.05" y="57.2705"/>
      <point x="166.492" y="70.665"/>
      <point x="173.063" y="87.2109" type="curve" smooth="yes"/>
      <point x="174.168" y="89.9922"/>
      <point x="204.99" y="211.777"/>
      <point x="241.546" y="357.804" type="curve" smooth="yes"/>
      <point x="306.41" y="616.907"/>
      <point x="308.022" y="623.511"/>
      <point x="308.093" y="630.455" type="curve" smooth="yes"/>
      <point x="308.16" y="637.103"/>
      <point x="308.053" y="637.663"/>
      <point x="306.467" y="638.945" type="curve" smooth="yes"/>
      <point x="305.549" y="639.688"/>
      <point x="303.54" y="640.667"/>
      <point x="302.096" y="641.079" type="curve" smooth="yes"/>
      <point x="293.388" y="643.557"/>
      <point x="269.437" y="645.376"/>
      <point x="245.521" y="645.376" type="curve" smooth="yes"/>
      <point x="229.263" y="645.376"/>
      <point x="226.961" y="645.94"/>
      <point x="224.035" y="650.65" type="curve" smooth="yes"/>
      <point x="221.98" y="653.958"/>
      <point x="222.108" y="657.731"/>
      <point x="224.606" y="667.485" type="curve" smooth="yes"/>
      <point x="227.011" y="676.879"/>
      <point x="228.297" y="679.35"/>
    </contour>
  </outline>
</glyph>
<glyph name="N" format="2">
  <advance width="743"/>
  <unicode hex="004E"/>
  <outline>
    <contour>
      <point x="61" y="13" type="curve" smooth="yes"/>
      <point x="63" y="28"/>
      <point x="69" y="32"/>
      <point x="79" y="32" type="curve" smooth="yes"/>
      <point x="107" y="32"/>
      <point x="151" y="39"/>
      <point x="171" y="82" type="curve" smooth="yes"/>
      <point x="172" y="85"/>
      <point x="201" y="198"/>
      <point x="243" y="366" type="curve" smooth="yes"/>
      <point x="313" y="645" type="line"/>
      <point x="302" y="649"/>
      <point x="284" y="650"/>
      <point x="258" y="651" type="curve" smooth="yes"/>
      <point x="224" y="651"/>
      <point x="222" y="652"/>
      <point x="224" y="669" type="curve" smooth="yes"/>
      <point x="226" y="677"/>
      <point x="227" y="677"/>
      <point x="233" y="683" type="curve"/>
      <point x="313" y="683" type="line" smooth="yes"/>
      <point x="400" y="683"/>
      <point x="400" y="683"/>
      <point x="400" y="679" type="curve" smooth="yes"/>
      <point x="401" y="677"/>
      <point x="445" y="558"/>
      <point x="497" y="412" type="curve"/>
      <point x="593" y="148" type="line"/>
      <point x="649" y="373" type="line" smooth="yes"/>
      <point x="704" y="593"/>
      <point x="705" y="599"/>
      <point x="705" y="609" type="curve" smooth="yes"/>
      <point x="705" y="621"/>
      <point x="705" y="651"/>
      <point x="643" y="651" type="curve" smooth="yes"/>
      <point x="620" y="651"/>
      <point x="626" y="672"/>
      <point x="637" y="683" type="curve"/>
      <point x="648" y="683" type="line" smooth="yes"/>
      <point x="650" y="683"/>
      <point x="814" y="677"/>
      <point x="838" y="683" type="curve"/>
      <point x="846" y="683" type="line"/>
      <point x="852" y="677"/>
      <point x="855" y="674"/>
      <point x="852" y="663" type="curve" smooth="yes"/>
      <point x="849" y="652"/>
      <point x="847" y="651"/>
      <point x="830" y="651" type="curve" smooth="yes"/>
      <point x="786" y="649"/>
      <point x="759" y="634"/>
      <point x="744" y="604" type="curve" smooth="yes"/>
      <point x="742" y="598"/>
      <point x="593" y="13"/>
      <point x="593" y="7" type="curve" smooth="yes"/>
      <point x="591" y="2"/>
      <point x="587" y="0"/>
      <point x="576" y="0" type="curve" smooth="yes"/>
      <point x="567" y="0"/>
      <point x="566" y="0"/>
      <point x="563" y="3" type="curve" smooth="yes"/>
      <point x="560" y="5"/>
      <point x="547" y="41"/>
      <point x="451" y="306" type="curve" smooth="yes"/>
      <point x="392" y="471"/>
      <point x="342" y="608"/>
      <point x="342" y="609" type="curve" smooth="yes"/>
      <point x="340" y="616"/>
      <point x="209" y="86"/>
      <point x="208" y="78" type="curve" smooth="yes"/>
      <point x="207" y="66"/>
      <point x="206" y="32"/>
      <point x="272" y="32" type="curve" smooth="yes"/>
      <point x="280" y="32"/>
      <point x="286" y="30"/>
      <point x="286" y="19" type="curve" smooth="yes"/>
      <point x="284" y="-1"/>
      <point x="281" y="0"/>
      <point x="252" y="1" type="curve" smooth="yes"/>
      <point x="197" y="3"/>
      <point x="113" y="3"/>
      <point x="76" y="0" type="curve"/>
      <point x="68" y="0" type="line"/>
      <point x="62" y="5"/>
      <point x="61" y="5"/>
    </contour>
  </outline>
</glyph>
<glyph name="O" format="2">
  <advance width="767"/>
  <unicode hex="004F"/>
  <outline>
    <contour>
      <point x="540" y="704" type="curve" smooth="yes"/>
      <point x="550" y="705"/>
      <point x="585" y="704"/>
      <point x="595" y="702" type="curve" smooth="yes"/>
      <point x="657" y="693"/>
      <point x="710" y="659"/>
      <point x="744" y="607" type="curve" smooth="yes"/>
      <point x="751" y="596"/>
      <point x="765" y="569"/>
      <point x="769" y="556" type="curve" smooth="yes"/>
      <point x="781" y="523"/>
      <point x="787" y="492"/>
      <point x="788" y="453" type="curve" smooth="yes"/>
      <point x="789" y="401"/>
      <point x="781" y="352"/>
      <point x="762" y="298" type="curve" smooth="yes"/>
      <point x="737" y="224"/>
      <point x="695" y="157"/>
      <point x="639" y="100" type="curve" smooth="yes"/>
      <point x="588" y="50"/>
      <point x="532" y="14"/>
      <point x="471" y="-6" type="curve" smooth="yes"/>
      <point x="374" y="-38"/>
      <point x="283" y="-21"/>
      <point x="221" y="41" type="curve" smooth="yes"/>
      <point x="133" y="129"/>
      <point x="125" y="291"/>
      <point x="201" y="445" type="curve" smooth="yes"/>
      <point x="242" y="526"/>
      <point x="304" y="597"/>
      <point x="376" y="644" type="curve" smooth="yes"/>
      <point x="430" y="680"/>
      <point x="484" y="699"/>
    </contour>
    <contour>
      <point x="574" y="677" type="curve" smooth="yes"/>
      <point x="564" y="679"/>
      <point x="547" y="679"/>
      <point x="538" y="678" type="curve" smooth="yes"/>
      <point x="500" y="675"/>
      <point x="460" y="658"/>
      <point x="423" y="629" type="curve" smooth="yes"/>
      <point x="369" y="589"/>
      <point x="327" y="532"/>
      <point x="295" y="458" type="curve" smooth="yes"/>
      <point x="270" y="400"/>
      <point x="248" y="315"/>
      <point x="242" y="250" type="curve" smooth="yes"/>
      <point x="231" y="142"/>
      <point x="258" y="61"/>
      <point x="317" y="24" type="curve" smooth="yes"/>
      <point x="371" y="-10"/>
      <point x="446" y="3"/>
      <point x="514" y="56" type="curve" smooth="yes"/>
      <point x="595" y="120"/>
      <point x="654" y="227"/>
      <point x="687" y="368" type="curve" smooth="yes"/>
      <point x="698" y="418"/>
      <point x="703" y="452"/>
      <point x="702" y="493" type="curve" smooth="yes"/>
      <point x="701" y="529"/>
      <point x="697" y="553"/>
      <point x="687" y="579" type="curve" smooth="yes"/>
      <point x="667" y="635"/>
      <point x="627" y="670"/>
    </contour>
  </outline>
</glyph>
<glyph name="P" format="2">
  <advance width="678"/>
  <unicode hex="0050"/>
  <outline>
    <contour>
      <point x="231" y="680" type="curve" smooth="yes"/>
      <point x="234" y="683" type="line"/>
      <point x="407" y="683" type="line" smooth="yes"/>
      <point x="596" y="682"/>
      <point x="585" y="683"/>
      <point x="610" y="676" type="curve" smooth="yes"/>
      <point x="665" y="663"/>
      <point x="705" y="629"/>
      <point x="721" y="584" type="curve" smooth="yes"/>
      <point x="741" y="531"/>
      <point x="727" y="471"/>
      <point x="684" y="418" type="curve" smooth="yes"/>
      <point x="668" y="398"/>
      <point x="641" y="375"/>
      <point x="618" y="360" type="curve" smooth="yes"/>
      <point x="583" y="339"/>
      <point x="547" y="325"/>
      <point x="504" y="317" type="curve" smooth="yes"/>
      <point x="495" y="316"/>
      <point x="483" y="316"/>
      <point x="404" y="315" type="curve" smooth="yes"/>
      <point x="314" y="315" type="line"/>
      <point x="282" y="186" type="line" smooth="yes"/>
      <point x="253" y="72"/>
      <point x="250" y="56"/>
      <point x="250" y="49" type="curve" smooth="yes"/>
      <point x="250" y="42"/>
      <point x="250" y="41"/>
      <point x="252" y="39" type="curve" smooth="yes"/>
      <point x="257" y="35"/>
      <point x="281" y="32"/>
      <point x="311" y="32" type="curve" smooth="yes"/>
      <point x="327" y="32" type="line"/>
      <point x="331" y="28" type="line" smooth="yes"/>
      <point x="334" y="25"/>
      <point x="334" y="25"/>
      <point x="334" y="19" type="curve" smooth="yes"/>
      <point x="333" y="10"/>
      <point x="330" y="4"/>
      <point x="326" y="1" type="curve" smooth="yes"/>
      <point x="323" y="0"/>
      <point x="320" y="0"/>
      <point x="295" y="1" type="curve" smooth="yes"/>
      <point x="229" y="3"/>
      <point x="125" y="3"/>
      <point x="79" y="0" type="curve" smooth="yes"/>
      <point x="69" y="0" type="line"/>
      <point x="65" y="3" type="line" smooth="yes"/>
      <point x="62" y="7"/>
      <point x="62" y="7"/>
      <point x="62" y="13" type="curve" smooth="yes"/>
      <point x="63" y="17"/>
      <point x="64" y="22"/>
      <point x="65" y="24" type="curve" smooth="yes"/>
      <point x="68" y="31"/>
      <point x="70" y="32"/>
      <point x="88" y="32" type="curve" smooth="yes"/>
      <point x="118" y="32"/>
      <point x="142" y="35"/>
      <point x="152" y="39" type="curve" smooth="yes"/>
      <point x="157" y="42"/>
      <point x="163" y="49"/>
      <point x="166" y="57" type="curve" smooth="yes"/>
      <point x="167" y="60"/>
      <point x="200" y="189"/>
      <point x="239" y="344" type="curve" smooth="yes"/>
      <point x="315" y="651"/>
      <point x="313" y="640"/>
      <point x="307" y="644" type="curve" smooth="yes"/>
      <point x="302" y="648"/>
      <point x="278" y="651"/>
      <point x="248" y="651" type="curve" smooth="yes"/>
      <point x="231" y="651"/>
      <point x="228" y="652"/>
      <point x="225" y="658" type="curve" smooth="yes"/>
      <point x="223" y="663"/>
      <point x="226" y="675"/>
    </contour>
    <contour>
      <point x="560" y="648" type="curve" smooth="yes"/>
      <point x="549" y="650"/>
      <point x="545" y="650"/>
      <point x="483" y="651" type="curve" smooth="yes"/>
      <point x="447" y="651"/>
      <point x="415" y="650"/>
      <point x="412" y="650" type="curve" smooth="yes"/>
      <point x="400" y="648"/>
      <point x="396" y="645"/>
      <point x="392" y="634" type="curve" smooth="yes"/>
      <point x="390" y="630"/>
      <point x="318" y="346"/>
      <point x="318" y="342" type="curve"/>
      <point x="388" y="342" type="line" smooth="yes"/>
      <point x="461" y="342"/>
      <point x="471" y="342"/>
      <point x="492" y="347" type="curve" smooth="yes"/>
      <point x="526" y="353"/>
      <point x="557" y="370"/>
      <point x="580" y="392" type="curve" smooth="yes"/>
      <point x="602" y="414"/>
      <point x="616" y="442"/>
      <point x="628" y="490" type="curve" smooth="yes"/>
      <point x="641" y="540"/>
      <point x="644" y="569"/>
      <point x="637" y="592" type="curve" smooth="yes"/>
      <point x="627" y="621"/>
      <point x="601" y="640"/>
    </contour>
  </outline>
</glyph>
<glyph name="Q" format="2">
  <advance width="767"/>
  <unicode hex="0051"/>
  <outline>
    <contour>
      <point x="540" y="704" type="curve" smooth="yes"/>
      <point x="550" y="705"/>
      <point x="585" y="704"/>
      <point x="595" y="702" type="curve" smooth="yes"/>
      <point x="657" y="693"/>
      <point x="710" y="659"/>
      <point x="744" y="607" type="curve" smooth="yes"/>
      <point x="751" y="596"/>
      <point x="765" y="569"/>
      <point x="769" y="556" type="curve" smooth="yes"/>
      <point x="777" y="536"/>
      <point x="782" y="513"/>
      <point x="786" y="489" type="curve" smooth="yes"/>
      <point x="788" y="473"/>
      <point x="789" y="433"/>
      <point x="787" y="414" type="curve" smooth="yes"/>
      <point x="781" y="333"/>
      <point x="752" y="252"/>
      <point x="703" y="180" type="curve" smooth="yes"/>
      <point x="654" y="106"/>
      <point x="586" y="45"/>
      <point x="515" y="11" type="curve"/>
      <point x="502" y="6" type="line"/>
      <point x="502" y="2" type="line" smooth="yes"/>
      <point x="502" y="0"/>
      <point x="503" y="-9"/>
      <point x="503" y="-17" type="curve" smooth="yes"/>
      <point x="507" y="-56"/>
      <point x="513" y="-75"/>
      <point x="527" y="-87" type="curve" smooth="yes"/>
      <point x="536" y="-96"/>
      <point x="546" y="-99"/>
      <point x="563" y="-99" type="curve" smooth="yes"/>
      <point x="607" y="-99"/>
      <point x="654" y="-59"/>
      <point x="671" y="-6" type="curve" smooth="yes"/>
      <point x="675" y="8"/>
      <point x="678" y="11"/>
      <point x="684" y="11" type="curve" smooth="yes"/>
      <point x="689" y="11"/>
      <point x="694" y="7"/>
      <point x="695" y="2" type="curve" smooth="yes"/>
      <point x="695" y="-2"/>
      <point x="693" y="-11"/>
      <point x="685" y="-35" type="curve" smooth="yes"/>
      <point x="649" y="-148"/>
      <point x="589" y="-205"/>
      <point x="520" y="-192" type="curve" smooth="yes"/>
      <point x="493" y="-188"/>
      <point x="475" y="-173"/>
      <point x="466" y="-148" type="curve" smooth="yes"/>
      <point x="461" y="-134"/>
      <point x="460" y="-124"/>
      <point x="460" y="-101" type="curve" smooth="yes"/>
      <point x="460" y="-80"/>
      <point x="461" y="-64"/>
      <point x="466" y="-28" type="curve" smooth="yes"/>
      <point x="467" y="-17"/>
      <point x="469" y="-7"/>
      <point x="469" y="-7" type="curve"/>
      <point x="468" y="-7"/>
      <point x="465" y="-8"/>
      <point x="460" y="-10" type="curve" smooth="yes"/>
      <point x="439" y="-16"/>
      <point x="411" y="-21"/>
      <point x="387" y="-22" type="curve" smooth="yes"/>
      <point x="322" y="-24"/>
      <point x="264" y="-2"/>
      <point x="221" y="41" type="curve" smooth="yes"/>
      <point x="133" y="129"/>
      <point x="125" y="291"/>
      <point x="201" y="445" type="curve" smooth="yes"/>
      <point x="242" y="526"/>
      <point x="304" y="597"/>
      <point x="376" y="644" type="curve" smooth="yes"/>
      <point x="430" y="680"/>
      <point x="484" y="699"/>
    </contour>
    <contour>
      <point x="582" y="676" type="curve" smooth="yes"/>
      <point x="569" y="679"/>
      <point x="545" y="679"/>
      <point x="532" y="678" type="curve" smooth="yes"/>
      <point x="510" y="674"/>
      <point x="490" y="668"/>
      <point x="468" y="657" type="curve" smooth="yes"/>
      <point x="417" y="631"/>
      <point x="373" y="590"/>
      <point x="336" y="534" type="curve" smooth="yes"/>
      <point x="321" y="512"/>
      <point x="314" y="499"/>
      <point x="301" y="474" type="curve" smooth="yes"/>
      <point x="285" y="439"/>
      <point x="270" y="401"/>
      <point x="259" y="357" type="curve" smooth="yes"/>
      <point x="223" y="227"/>
      <point x="227" y="131"/>
      <point x="270" y="66" type="curve" smooth="yes"/>
      <point x="278" y="53"/>
      <point x="293" y="37"/>
      <point x="304" y="30" type="curve" smooth="yes"/>
      <point x="311" y="25"/>
      <point x="324" y="17"/>
      <point x="325" y="17" type="curve"/>
      <point x="325" y="17"/>
      <point x="325" y="20"/>
      <point x="324" y="23" type="curve" smooth="yes"/>
      <point x="315" y="54"/>
      <point x="329" y="95"/>
      <point x="357" y="121" type="curve" smooth="yes"/>
      <point x="368" y="132"/>
      <point x="385" y="142"/>
      <point x="399" y="146" type="curve" smooth="yes"/>
      <point x="409" y="148"/>
      <point x="425" y="149"/>
      <point x="436" y="146" type="curve" smooth="yes"/>
      <point x="473" y="139"/>
      <point x="493" y="110"/>
      <point x="498" y="55" type="curve" smooth="yes"/>
      <point x="499" y="49"/>
      <point x="499" y="43"/>
      <point x="500" y="43" type="curve" smooth="yes"/>
      <point x="501" y="42"/>
      <point x="527" y="63"/>
      <point x="542" y="76" type="curve" smooth="yes"/>
      <point x="568" y="101"/>
      <point x="599" y="140"/>
      <point x="620" y="175" type="curve" smooth="yes"/>
      <point x="645" y="221"/>
      <point x="667" y="275"/>
      <point x="682" y="336" type="curve" smooth="yes"/>
      <point x="707" y="435"/>
      <point x="709" y="510"/>
      <point x="689" y="571" type="curve" smooth="yes"/>
      <point x="670" y="628"/>
      <point x="632" y="665"/>
    </contour>
    <contour>
      <point x="433" y="124" type="curve" smooth="yes"/>
      <point x="415" y="127"/>
      <point x="401" y="124"/>
      <point x="386" y="115" type="curve" smooth="yes"/>
      <point x="349" y="93"/>
      <point x="332" y="39"/>
      <point x="355" y="14" type="curve" smooth="yes"/>
      <point x="362" y="6"/>
      <point x="365" y="5"/>
      <point x="379" y="4" type="curve" smooth="yes"/>
      <point x="405" y="3"/>
      <point x="433" y="9"/>
      <point x="462" y="22" type="curve" smooth="yes"/>
      <point x="473" y="27" type="line"/>
      <point x="473" y="33" type="line" smooth="yes"/>
      <point x="473" y="36"/>
      <point x="474" y="45"/>
      <point x="474" y="53" type="curve" smooth="yes"/>
      <point x="474" y="98"/>
      <point x="462" y="118"/>
    </contour>
  </outline>
</glyph>
